<?xml version="1.0" encoding="UTF-8" standalone="no"?><svg xmlns="http://www.w3.org/2000/svg" xmlns:xlink="http://www.w3.org/1999/xlink" clip-rule="evenodd" stroke-miterlimit="10" viewBox="0 0 1024 768"><desc>SVG generated by Keynote</desc><defs><pattern id="patternP1" patternUnits="userSpaceOnUse" width="500" height="500" viewBox="0 0 500 500"><image xlink:href="../../EEFE8CC9-7018-4D69-A14F-E9946820B58E/assets/532C1F6324702BA5935B3E573B5E58A2.png" width="500.00" height="500.00"></image></pattern></defs><g transform="matrix(1.00, 0.00, -0.00, -1.00, 0.0, 768.0)"><g><clipPath id="clip0x6080012b6860"><path d="M 0.0 768.0 L 1024.0 768.0 L 1024.0 0.0 L 0.0 0.0 Z M 0.0 768.0 "></path></clipPath><g clip-path="url(#clip0x6080012b6860)"><image xlink:href="../../7EA767DE-955E-4E20-9ADC-BFAA01F56EE6/assets/8F1988DB1AAF97C886A39057648AB34F.jpeg" width="2048.00" height="1536.00" transform="matrix(0.50, 0.00, -0.00, -0.50, 0.0, 768.0)"></image></g></g><g opacity="0.45"><g><clipPath id="clip0x6080012b6b60"><path d="M 30.0 48.0 L 994.0 48.0 L 994.0 741.0 L 30.0 741.0 Z M 30.0 48.0 "></path></clipPath><g clip-path="url(#clip0x6080012b6b60)"><image xlink:href="../../7EA767DE-955E-4E20-9ADC-BFAA01F56EE6/assets/2762798D5DAF222C11E7DC4E503ABF71.png" width="1374.00" height="986.00" transform="matrix(0.70, 0.00, -0.00, -0.70, 31.0, 740.0)"></image></g></g></g><image xlink:href="../../5B4C2FD5-B0A5-4EB7-A424-80C1FAFDD791/assets/34212AFE8636DF1F6FCF1B38A995102F.png" width="857.00" height="33.00" transform="matrix(1.00, 0.00, -0.00, -1.00, 43.0, 720.0)"></image><text xml:space="preserve" font-family="AvenirNext-Bold,Avenir Next" font-weight="bold" font-size="38.4" fill="#3D3B38" transform="matrix(1.00, 0.00, -0.00, -1.00, 45.0, 692.1)">W</text><text xml:space="preserve" font-family="AvenirNext-Bold,Avenir Next" font-weight="bold" font-size="38.4" fill="#3D3B38" transform="matrix(1.00, 0.00, -0.00, -1.00, 87.4, 692.1)">H</text><text xml:space="preserve" font-family="AvenirNext-Bold,Avenir Next" font-weight="bold" font-size="38.4" fill="#3D3B38" transform="matrix(1.00, 0.00, -0.00, -1.00, 119.8, 692.1)">A</text><text xml:space="preserve" font-family="AvenirNext-Bold,Avenir Next" font-weight="bold" font-size="38.4" fill="#3D3B38" transform="matrix(1.00, 0.00, -0.00, -1.00, 148.6, 692.1)">T</text><text xml:space="preserve" font-family="AvenirNext-Bold,Avenir Next" font-weight="bold" font-size="38.4" fill="#3D3B38" transform="matrix(1.00, 0.00, -0.00, -1.00, 174.0, 692.1)">’</text><text xml:space="preserve" font-family="AvenirNext-Bold,Avenir Next" font-weight="bold" font-size="38.4" fill="#3D3B38" transform="matrix(1.00, 0.00, -0.00, -1.00, 188.6, 692.1)">S</text><text xml:space="preserve" font-family="AvenirNext-Bold,Avenir Next" font-weight="bold" font-size="38.4" fill="#3D3B38" transform="matrix(1.00, 0.00, -0.00, -1.00, 214.3, 692.1)"> </text><text xml:space="preserve" font-family="AvenirNext-Bold,Avenir Next" font-weight="bold" font-size="38.4" fill="#3D3B38" transform="matrix(1.00, 0.00, -0.00, -1.00, 226.1, 692.1)">T</text><text xml:space="preserve" font-family="AvenirNext-Bold,Avenir Next" font-weight="bold" font-size="38.4" fill="#3D3B38" transform="matrix(1.00, 0.00, -0.00, -1.00, 251.5, 692.1)">H</text><text xml:space="preserve" font-family="AvenirNext-Bold,Avenir Next" font-weight="bold" font-size="38.4" fill="#3D3B38" transform="matrix(1.00, 0.00, -0.00, -1.00, 283.9, 692.1)">E</text><text xml:space="preserve" font-family="AvenirNext-Bold,Avenir Next" font-weight="bold" font-size="38.4" fill="#3D3B38" transform="matrix(1.00, 0.00, -0.00, -1.00, 310.3, 692.1)"> </text><text xml:space="preserve" font-family="AvenirNext-Bold,Avenir Next" font-weight="bold" font-size="38.4" fill="#3D3B38" transform="matrix(1.00, 0.00, -0.00, -1.00, 322.5, 692.1)">W</text><text xml:space="preserve" font-family="AvenirNext-Bold,Avenir Next" font-weight="bold" font-size="38.4" fill="#3D3B38" transform="matrix(1.00, 0.00, -0.00, -1.00, 364.9, 692.1)">H</text><text xml:space="preserve" font-family="AvenirNext-Bold,Avenir Next" font-weight="bold" font-size="38.4" fill="#3D3B38" transform="matrix(1.00, 0.00, -0.00, -1.00, 397.3, 692.1)">O</text><text xml:space="preserve" font-family="AvenirNext-Bold,Avenir Next" font-weight="bold" font-size="38.4" fill="#3D3B38" transform="matrix(1.00, 0.00, -0.00, -1.00, 433.1, 692.1)">L</text><text xml:space="preserve" font-family="AvenirNext-Bold,Avenir Next" font-weight="bold" font-size="38.4" fill="#3D3B38" transform="matrix(1.00, 0.00, -0.00, -1.00, 456.3, 692.1)">E</text><text xml:space="preserve" font-family="AvenirNext-Bold,Avenir Next" font-weight="bold" font-size="38.4" fill="#3D3B38" transform="matrix(1.00, 0.00, -0.00, -1.00, 482.7, 692.1)"> </text><text xml:space="preserve" font-family="AvenirNext-Bold,Avenir Next" font-weight="bold" font-size="38.4" fill="#3D3B38" transform="matrix(1.00, 0.00, -0.00, -1.00, 494.5, 692.1)">T</text><text xml:space="preserve" font-family="AvenirNext-Bold,Avenir Next" font-weight="bold" font-size="38.4" fill="#3D3B38" transform="matrix(1.00, 0.00, -0.00, -1.00, 519.9, 692.1)">H</text><text xml:space="preserve" font-family="AvenirNext-Bold,Avenir Next" font-weight="bold" font-size="38.4" fill="#3D3B38" transform="matrix(1.00, 0.00, -0.00, -1.00, 552.3, 692.1)">I</text><text xml:space="preserve" font-family="AvenirNext-Bold,Avenir Next" font-weight="bold" font-size="38.4" fill="#3D3B38" transform="matrix(1.00, 0.00, -0.00, -1.00, 567.5, 692.1)">N</text><text xml:space="preserve" font-family="AvenirNext-Bold,Avenir Next" font-weight="bold" font-size="38.4" fill="#3D3B38" transform="matrix(1.00, 0.00, -0.00, -1.00, 601.0, 692.1)">G</text><text xml:space="preserve" font-family="AvenirNext-Bold,Avenir Next" font-weight="bold" font-size="38.4" fill="#3D3B38" transform="matrix(1.00, 0.00, -0.00, -1.00, 633.6, 692.1)"> </text><text xml:space="preserve" font-family="AvenirNext-Bold,Avenir Next" font-weight="bold" font-size="38.4" fill="#3D3B38" transform="matrix(1.00, 0.00, -0.00, -1.00, 646.2, 692.1)">L</text><text xml:space="preserve" font-family="AvenirNext-Bold,Avenir Next" font-weight="bold" font-size="38.4" fill="#3D3B38" transform="matrix(1.00, 0.00, -0.00, -1.00, 668.3, 692.1)">O</text><text xml:space="preserve" font-family="AvenirNext-Bold,Avenir Next" font-weight="bold" font-size="38.4" fill="#3D3B38" transform="matrix(1.00, 0.00, -0.00, -1.00, 704.1, 692.1)">O</text><text xml:space="preserve" font-family="AvenirNext-Bold,Avenir Next" font-weight="bold" font-size="38.4" fill="#3D3B38" transform="matrix(1.00, 0.00, -0.00, -1.00, 739.8, 692.1)">K</text><text xml:space="preserve" font-family="AvenirNext-Bold,Avenir Next" font-weight="bold" font-size="38.4" fill="#3D3B38" transform="matrix(1.00, 0.00, -0.00, -1.00, 769.8, 692.1)"> </text><text xml:space="preserve" font-family="AvenirNext-Bold,Avenir Next" font-weight="bold" font-size="38.4" fill="#3D3B38" transform="matrix(1.00, 0.00, -0.00, -1.00, 782.4, 692.1)">L</text><text xml:space="preserve" font-family="AvenirNext-Bold,Avenir Next" font-weight="bold" font-size="38.4" fill="#3D3B38" transform="matrix(1.00, 0.00, -0.00, -1.00, 805.7, 692.1)">I</text><text xml:space="preserve" font-family="AvenirNext-Bold,Avenir Next" font-weight="bold" font-size="38.4" fill="#3D3B38" transform="matrix(1.00, 0.00, -0.00, -1.00, 821.0, 692.1)">K</text><text xml:space="preserve" font-family="AvenirNext-Bold,Avenir Next" font-weight="bold" font-size="38.4" fill="#3D3B38" transform="matrix(1.00, 0.00, -0.00, -1.00, 851.4, 692.1)">E</text><text xml:space="preserve" font-family="AvenirNext-Bold,Avenir Next" font-weight="bold" font-size="38.4" fill="#3D3B38" transform="matrix(1.00, 0.00, -0.00, -1.00, 877.7, 692.1)">?</text><image xlink:href="../../5B4C2FD5-B0A5-4EB7-A424-80C1FAFDD791/assets/684F937AB1DC4D9CA6C59A724665DF4B.jpeg" width="304.00" height="166.00" transform="matrix(2.33, 0.00, -0.00, -2.33, 57.7, 463.4)"></image><image xlink:href="../../5B4C2FD5-B0A5-4EB7-A424-80C1FAFDD791/assets/8BA5C10C5568A31C1F0CBBE2CE6A3736.png" width="620.00" height="270.00" transform="matrix(1.00, 0.00, -0.00, -1.00, 227.3, 666.2)" opacity="0.30"></image><g><clipPath id="clip0x6180010a3c60"><path d="M 242.3 665.0 C 235.8 665.1 231.0 659.9 231.0 653.4 L 231.0 441.4 C 231.0 434.9 235.8 430.0 242.3 430.0 L 319.4 430.0 L 342.9 400.9 L 366.3 430.0 L 832.6 430.0 C 839.1 430.0 844.0 434.9 844.0 441.4 L 844.0 653.4 C 844.0 659.9 839.1 665.0 832.6 665.0 L 242.3 665.0 Z M 242.3 665.1 "></path></clipPath><g clip-path="url(#clip0x6180010a3c60)"><path d="M 231.0 400.9 L 844.0 400.9 L 844.0 665.1 L 231.0 665.1 Z M 231.0 400.9 " fill="url(#patternP1)"></path></g></g><image xlink:href="../../5B4C2FD5-B0A5-4EB7-A424-80C1FAFDD791/assets/967255EEF2A6265E801C88437501C300.png" width="533.00" height="35.00" transform="matrix(1.00, 0.00, -0.00, -1.00, 270.0, 603.0)"></image><g><clipPath id="clip0x6000012bc800"><path d="M 222.4 429.6 L 852.7 429.6 L 852.7 665.1 L 222.4 665.1 Z M 222.4 429.6 "></path></clipPath><g clip-path="url(#clip0x6000012bc800)"><text xml:space="preserve" font-family="AvenirNext-Medium,Avenir Next" font-size="30.0" fill="#3D3B38" transform="matrix(1.00, 0.00, -0.00, -1.00, 271.9, 578.6)">W</text><text xml:space="preserve" font-family="AvenirNext-Medium,Avenir Next" font-size="30.0" fill="#3D3B38" transform="matrix(1.00, 0.00, -0.00, -1.00, 300.4, 578.6)">e</text><text xml:space="preserve" font-family="AvenirNext-Medium,Avenir Next" font-size="30.0" fill="#3D3B38" transform="matrix(1.00, 0.00, -0.00, -1.00, 317.6, 578.6)">l</text><text xml:space="preserve" font-family="AvenirNext-Medium,Avenir Next" font-size="30.0" fill="#3D3B38" transform="matrix(1.00, 0.00, -0.00, -1.00, 325.4, 578.6)">l</text><text xml:space="preserve" font-family="AvenirNext-Medium,Avenir Next" font-size="30.0" fill="#3D3B38" transform="matrix(1.00, 0.00, -0.00, -1.00, 333.2, 578.6)">,</text><text xml:space="preserve" font-family="AvenirNext-Medium,Avenir Next" font-size="30.0" fill="#3D3B38" transform="matrix(1.00, 0.00, -0.00, -1.00, 340.1, 578.6)"> </text><text xml:space="preserve" font-family="AvenirNext-Medium,Avenir Next" font-size="30.0" fill="#3D3B38" transform="matrix(1.00, 0.00, -0.00, -1.00, 347.6, 578.6)">t</text><text xml:space="preserve" font-family="AvenirNext-Medium,Avenir Next" font-size="30.0" fill="#3D3B38" transform="matrix(1.00, 0.00, -0.00, -1.00, 357.5, 578.6)">h</text><text xml:space="preserve" font-family="AvenirNext-Medium,Avenir Next" font-size="30.0" fill="#3D3B38" transform="matrix(1.00, 0.00, -0.00, -1.00, 375.0, 578.6)">a</text><text xml:space="preserve" font-family="AvenirNext-Medium,Avenir Next" font-size="30.0" fill="#3D3B38" transform="matrix(1.00, 0.00, -0.00, -1.00, 391.0, 578.6)">t</text><text xml:space="preserve" font-family="AvenirNext-Medium,Avenir Next" font-size="30.0" fill="#3D3B38" transform="matrix(1.00, 0.00, -0.00, -1.00, 401.6, 578.6)">’</text><text xml:space="preserve" font-family="AvenirNext-Medium,Avenir Next" font-size="30.0" fill="#3D3B38" transform="matrix(1.00, 0.00, -0.00, -1.00, 407.5, 578.6)">s</text><text xml:space="preserve" font-family="AvenirNext-Medium,Avenir Next" font-size="30.0" fill="#3D3B38" transform="matrix(1.00, 0.00, -0.00, -1.00, 420.8, 578.6)"> </text><text xml:space="preserve" font-family="AvenirNext-Medium,Avenir Next" font-size="30.0" fill="#3D3B38" transform="matrix(1.00, 0.00, -0.00, -1.00, 428.3, 578.6)">j</text><text xml:space="preserve" font-family="AvenirNext-Medium,Avenir Next" font-size="30.0" fill="#3D3B38" transform="matrix(1.00, 0.00, -0.00, -1.00, 436.1, 578.6)">u</text><text xml:space="preserve" font-family="AvenirNext-Medium,Avenir Next" font-size="30.0" fill="#3D3B38" transform="matrix(1.00, 0.00, -0.00, -1.00, 453.6, 578.6)">s</text><text xml:space="preserve" font-family="AvenirNext-Medium,Avenir Next" font-size="30.0" fill="#3D3B38" transform="matrix(1.00, 0.00, -0.00, -1.00, 466.9, 578.6)">t</text><text xml:space="preserve" font-family="AvenirNext-Medium,Avenir Next" font-size="30.0" fill="#3D3B38" transform="matrix(1.00, 0.00, -0.00, -1.00, 476.8, 578.6)"> </text><text xml:space="preserve" font-family="AvenirNext-Medium,Avenir Next" font-size="30.0" fill="#3D3B38" transform="matrix(1.00, 0.00, -0.00, -1.00, 484.3, 578.6)">g</text><text xml:space="preserve" font-family="AvenirNext-Medium,Avenir Next" font-size="30.0" fill="#3D3B38" transform="matrix(1.00, 0.00, -0.00, -1.00, 503.2, 578.6)">r</text><text xml:space="preserve" font-family="AvenirNext-Medium,Avenir Next" font-size="30.0" fill="#3D3B38" transform="matrix(1.00, 0.00, -0.00, -1.00, 513.5, 578.6)">e</text><text xml:space="preserve" font-family="AvenirNext-Medium,Avenir Next" font-size="30.0" fill="#3D3B38" transform="matrix(1.00, 0.00, -0.00, -1.00, 530.6, 578.6)">a</text><text xml:space="preserve" font-family="AvenirNext-Medium,Avenir Next" font-size="30.0" fill="#3D3B38" transform="matrix(1.00, 0.00, -0.00, -1.00, 546.5, 578.6)">t</text><text xml:space="preserve" font-family="AvenirNext-Medium,Avenir Next" font-size="30.0" fill="#3D3B38" transform="matrix(1.00, 0.00, -0.00, -1.00, 556.4, 578.6)">,</text><text xml:space="preserve" font-family="AvenirNext-Medium,Avenir Next" font-size="30.0" fill="#3D3B38" transform="matrix(1.00, 0.00, -0.00, -1.00, 563.3, 578.6)"> </text><text xml:space="preserve" font-family="AvenirNext-Medium,Avenir Next" font-size="30.0" fill="#3D3B38" transform="matrix(1.00, 0.00, -0.00, -1.00, 570.8, 578.6)">R</text><text xml:space="preserve" font-family="AvenirNext-Medium,Avenir Next" font-size="30.0" fill="#3D3B38" transform="matrix(1.00, 0.00, -0.00, -1.00, 589.2, 578.6)">i</text><text xml:space="preserve" font-family="AvenirNext-Medium,Avenir Next" font-size="30.0" fill="#3D3B38" transform="matrix(1.00, 0.00, -0.00, -1.00, 597.0, 578.6)">c</text><text xml:space="preserve" font-family="AvenirNext-Medium,Avenir Next" font-size="30.0" fill="#3D3B38" transform="matrix(1.00, 0.00, -0.00, -1.00, 611.8, 578.6)">k</text><text xml:space="preserve" font-family="AvenirNext-Medium,Avenir Next" font-size="30.0" fill="#3D3B38" transform="matrix(1.00, 0.00, -0.00, -1.00, 627.6, 578.6)">.</text><text xml:space="preserve" font-family="AvenirNext-Medium,Avenir Next" font-size="30.0" fill="#3D3B38" transform="matrix(1.00, 0.00, -0.00, -1.00, 634.5, 578.6)"> </text><text xml:space="preserve" font-family="AvenirNext-Medium,Avenir Next" font-size="30.0" fill="#3D3B38" transform="matrix(1.00, 0.00, -0.00, -1.00, 642.0, 578.6)">B</text><text xml:space="preserve" font-family="AvenirNext-Medium,Avenir Next" font-size="30.0" fill="#3D3B38" transform="matrix(1.00, 0.00, -0.00, -1.00, 661.3, 578.6)">u</text><text xml:space="preserve" font-family="AvenirNext-Medium,Avenir Next" font-size="30.0" fill="#3D3B38" transform="matrix(1.00, 0.00, -0.00, -1.00, 678.7, 578.6)">t</text><text xml:space="preserve" font-family="AvenirNext-Medium,Avenir Next" font-size="30.0" fill="#3D3B38" transform="matrix(1.00, 0.00, -0.00, -1.00, 688.6, 578.6)"> </text><text xml:space="preserve" font-family="AvenirNext-Medium,Avenir Next" font-size="30.0" fill="#3D3B38" transform="matrix(1.00, 0.00, -0.00, -1.00, 696.1, 578.6)">c</text><text xml:space="preserve" font-family="AvenirNext-Medium,Avenir Next" font-size="30.0" fill="#3D3B38" transform="matrix(1.00, 0.00, -0.00, -1.00, 710.9, 578.6)">a</text><text xml:space="preserve" font-family="AvenirNext-Medium,Avenir Next" font-size="30.0" fill="#3D3B38" transform="matrix(1.00, 0.00, -0.00, -1.00, 727.2, 578.6)">n</text><text xml:space="preserve" font-family="AvenirNext-Medium,Avenir Next" font-size="30.0" fill="#3D3B38" transform="matrix(1.00, 0.00, -0.00, -1.00, 744.6, 578.6)"> </text><text xml:space="preserve" font-family="AvenirNext-Medium,Avenir Next" font-size="30.0" fill="#3D3B38" transform="matrix(1.00, 0.00, -0.00, -1.00, 752.1, 578.6)">y</text><text xml:space="preserve" font-family="AvenirNext-Medium,Avenir Next" font-size="30.0" fill="#3D3B38" transform="matrix(1.00, 0.00, -0.00, -1.00, 767.3, 578.6)">o</text><text xml:space="preserve" font-family="AvenirNext-Medium,Avenir Next" font-size="30.0" fill="#3D3B38" transform="matrix(1.00, 0.00, -0.00, -1.00, 785.6, 578.6)">u</text><text xml:space="preserve" font-family="AvenirNext-Medium,Avenir Next" font-size="30.0" fill="#3D3B38" transform="matrix(1.00, 0.00, -0.00, -1.00, 803.0, 578.6)"> </text></g></g><image xlink:href="../../5B4C2FD5-B0A5-4EB7-A424-80C1FAFDD791/assets/4804005A419B1890F67DF2A6D33D2C07.png" width="561.00" height="35.00" transform="matrix(1.00, 0.00, -0.00, -1.00, 257.0, 562.0)"></image><g><clipPath id="clip0x6180010a40e0"><path d="M 222.4 429.6 L 852.7 429.6 L 852.7 665.1 L 222.4 665.1 Z M 222.4 429.6 "></path></clipPath><g clip-path="url(#clip0x6180010a40e0)"><text xml:space="preserve" font-family="AvenirNext-Medium,Avenir Next" font-size="30.0" fill="#3D3B38" transform="matrix(1.00, 0.00, -0.00, -1.00, 257.1, 537.6)">m</text><text xml:space="preserve" font-family="AvenirNext-Medium,Avenir Next" font-size="30.0" fill="#3D3B38" transform="matrix(1.00, 0.00, -0.00, -1.00, 283.7, 537.6)">a</text><text xml:space="preserve" font-family="AvenirNext-Medium,Avenir Next" font-size="30.0" fill="#3D3B38" transform="matrix(1.00, 0.00, -0.00, -1.00, 300.0, 537.6)">k</text><text xml:space="preserve" font-family="AvenirNext-Medium,Avenir Next" font-size="30.0" fill="#3D3B38" transform="matrix(1.00, 0.00, -0.00, -1.00, 315.2, 537.6)">e</text><text xml:space="preserve" font-family="AvenirNext-Medium,Avenir Next" font-size="30.0" fill="#3D3B38" transform="matrix(1.00, 0.00, -0.00, -1.00, 332.4, 537.6)"> </text><text xml:space="preserve" font-family="AvenirNext-Medium,Avenir Next" font-size="30.0" fill="#3D3B38" transform="matrix(1.00, 0.00, -0.00, -1.00, 339.9, 537.6)">a</text><text xml:space="preserve" font-family="AvenirNext-Medium,Avenir Next" font-size="30.0" fill="#3D3B38" transform="matrix(1.00, 0.00, -0.00, -1.00, 356.2, 537.6)"> </text><text xml:space="preserve" font-family="AvenirNext-Medium,Avenir Next" font-size="30.0" fill="#3D3B38" transform="matrix(1.00, 0.00, -0.00, -1.00, 363.7, 537.6)">l</text><text xml:space="preserve" font-family="AvenirNext-Medium,Avenir Next" font-size="30.0" fill="#3D3B38" transform="matrix(1.00, 0.00, -0.00, -1.00, 371.5, 537.6)">a</text><text xml:space="preserve" font-family="AvenirNext-Medium,Avenir Next" font-size="30.0" fill="#3D3B38" transform="matrix(1.00, 0.00, -0.00, -1.00, 387.8, 537.6)">r</text><text xml:space="preserve" font-family="AvenirNext-Medium,Avenir Next" font-size="30.0" fill="#3D3B38" transform="matrix(1.00, 0.00, -0.00, -1.00, 398.1, 537.6)">g</text><text xml:space="preserve" font-family="AvenirNext-Medium,Avenir Next" font-size="30.0" fill="#3D3B38" transform="matrix(1.00, 0.00, -0.00, -1.00, 417.0, 537.6)">e</text><text xml:space="preserve" font-family="AvenirNext-Medium,Avenir Next" font-size="30.0" fill="#3D3B38" transform="matrix(1.00, 0.00, -0.00, -1.00, 434.2, 537.6)">,</text><text xml:space="preserve" font-family="AvenirNext-Medium,Avenir Next" font-size="30.0" fill="#3D3B38" transform="matrix(1.00, 0.00, -0.00, -1.00, 441.1, 537.6)"> </text><text xml:space="preserve" font-family="AvenirNext-Medium,Avenir Next" font-size="30.0" fill="#3D3B38" transform="matrix(1.00, 0.00, -0.00, -1.00, 448.6, 537.6)">a</text><text xml:space="preserve" font-family="AvenirNext-Medium,Avenir Next" font-size="30.0" fill="#3D3B38" transform="matrix(1.00, 0.00, -0.00, -1.00, 464.9, 537.6)">b</text><text xml:space="preserve" font-family="AvenirNext-Medium,Avenir Next" font-size="30.0" fill="#3D3B38" transform="matrix(1.00, 0.00, -0.00, -1.00, 484.0, 537.6)">s</text><text xml:space="preserve" font-family="AvenirNext-Medium,Avenir Next" font-size="30.0" fill="#3D3B38" transform="matrix(1.00, 0.00, -0.00, -1.00, 497.3, 537.6)">t</text><text xml:space="preserve" font-family="AvenirNext-Medium,Avenir Next" font-size="30.0" fill="#3D3B38" transform="matrix(1.00, 0.00, -0.00, -1.00, 507.2, 537.6)">r</text><text xml:space="preserve" font-family="AvenirNext-Medium,Avenir Next" font-size="30.0" fill="#3D3B38" transform="matrix(1.00, 0.00, -0.00, -1.00, 517.6, 537.6)">a</text><text xml:space="preserve" font-family="AvenirNext-Medium,Avenir Next" font-size="30.0" fill="#3D3B38" transform="matrix(1.00, 0.00, -0.00, -1.00, 533.9, 537.6)">c</text><text xml:space="preserve" font-family="AvenirNext-Medium,Avenir Next" font-size="30.0" fill="#3D3B38" transform="matrix(1.00, 0.00, -0.00, -1.00, 548.7, 537.6)">t</text><text xml:space="preserve" font-family="AvenirNext-Medium,Avenir Next" font-size="30.0" fill="#3D3B38" transform="matrix(1.00, 0.00, -0.00, -1.00, 558.6, 537.6)"> </text><text xml:space="preserve" font-family="AvenirNext-Medium,Avenir Next" font-size="30.0" fill="#3D3B38" transform="matrix(1.00, 0.00, -0.00, -1.00, 566.1, 537.6)">ﬂ</text><text xml:space="preserve" font-family="AvenirNext-Medium,Avenir Next" font-size="30.0" fill="#3D3B38" transform="matrix(1.00, 0.00, -0.00, -1.00, 583.3, 537.6)">o</text><text xml:space="preserve" font-family="AvenirNext-Medium,Avenir Next" font-size="30.0" fill="#3D3B38" transform="matrix(1.00, 0.00, -0.00, -1.00, 601.6, 537.6)">w</text><text xml:space="preserve" font-family="AvenirNext-Medium,Avenir Next" font-size="30.0" fill="#3D3B38" transform="matrix(1.00, 0.00, -0.00, -1.00, 624.8, 537.6)">c</text><text xml:space="preserve" font-family="AvenirNext-Medium,Avenir Next" font-size="30.0" fill="#3D3B38" transform="matrix(1.00, 0.00, -0.00, -1.00, 639.6, 537.6)">h</text><text xml:space="preserve" font-family="AvenirNext-Medium,Avenir Next" font-size="30.0" fill="#3D3B38" transform="matrix(1.00, 0.00, -0.00, -1.00, 657.1, 537.6)">a</text><text xml:space="preserve" font-family="AvenirNext-Medium,Avenir Next" font-size="30.0" fill="#3D3B38" transform="matrix(1.00, 0.00, -0.00, -1.00, 673.4, 537.6)">r</text><text xml:space="preserve" font-family="AvenirNext-Medium,Avenir Next" font-size="30.0" fill="#3D3B38" transform="matrix(1.00, 0.00, -0.00, -1.00, 683.9, 537.6)">t</text><text xml:space="preserve" font-family="AvenirNext-Medium,Avenir Next" font-size="30.0" fill="#3D3B38" transform="matrix(1.00, 0.00, -0.00, -1.00, 693.8, 537.6)"> </text><text xml:space="preserve" font-family="AvenirNext-Medium,Avenir Next" font-size="30.0" fill="#3D3B38" transform="matrix(1.00, 0.00, -0.00, -1.00, 701.3, 537.6)">s</text><text xml:space="preserve" font-family="AvenirNext-Medium,Avenir Next" font-size="30.0" fill="#3D3B38" transform="matrix(1.00, 0.00, -0.00, -1.00, 714.6, 537.6)">h</text><text xml:space="preserve" font-family="AvenirNext-Medium,Avenir Next" font-size="30.0" fill="#3D3B38" transform="matrix(1.00, 0.00, -0.00, -1.00, 732.1, 537.6)">o</text><text xml:space="preserve" font-family="AvenirNext-Medium,Avenir Next" font-size="30.0" fill="#3D3B38" transform="matrix(1.00, 0.00, -0.00, -1.00, 750.4, 537.6)">w</text><text xml:space="preserve" font-family="AvenirNext-Medium,Avenir Next" font-size="30.0" fill="#3D3B38" transform="matrix(1.00, 0.00, -0.00, -1.00, 773.6, 537.6)">i</text><text xml:space="preserve" font-family="AvenirNext-Medium,Avenir Next" font-size="30.0" fill="#3D3B38" transform="matrix(1.00, 0.00, -0.00, -1.00, 781.4, 537.6)">n</text><text xml:space="preserve" font-family="AvenirNext-Medium,Avenir Next" font-size="30.0" fill="#3D3B38" transform="matrix(1.00, 0.00, -0.00, -1.00, 798.8, 537.6)">g</text><text xml:space="preserve" font-family="AvenirNext-Medium,Avenir Next" font-size="30.0" fill="#3D3B38" transform="matrix(1.00, 0.00, -0.00, -1.00, 817.8, 537.6)"> </text></g></g><image xlink:href="../../5B4C2FD5-B0A5-4EB7-A424-80C1FAFDD791/assets/B8ADAF4523E541B1A182D537C1BBE9C7.png" width="540.00" height="35.00" transform="matrix(1.00, 0.00, -0.00, -1.00, 268.0, 521.0)"></image><g><clipPath id="clip0x6100012a1aa0"><path d="M 222.4 429.6 L 852.7 429.6 L 852.7 665.1 L 222.4 665.1 Z M 222.4 429.6 "></path></clipPath><g clip-path="url(#clip0x6100012a1aa0)"><text xml:space="preserve" font-family="AvenirNext-Medium,Avenir Next" font-size="30.0" fill="#3D3B38" transform="matrix(1.00, 0.00, -0.00, -1.00, 268.2, 496.6)">h</text><text xml:space="preserve" font-family="AvenirNext-Medium,Avenir Next" font-size="30.0" fill="#3D3B38" transform="matrix(1.00, 0.00, -0.00, -1.00, 285.7, 496.6)">o</text><text xml:space="preserve" font-family="AvenirNext-Medium,Avenir Next" font-size="30.0" fill="#3D3B38" transform="matrix(1.00, 0.00, -0.00, -1.00, 304.0, 496.6)">w</text><text xml:space="preserve" font-family="AvenirNext-Medium,Avenir Next" font-size="30.0" fill="#3D3B38" transform="matrix(1.00, 0.00, -0.00, -1.00, 327.2, 496.6)"> </text><text xml:space="preserve" font-family="AvenirNext-Medium,Avenir Next" font-size="30.0" fill="#3D3B38" transform="matrix(1.00, 0.00, -0.00, -1.00, 334.7, 496.6)">a</text><text xml:space="preserve" font-family="AvenirNext-Medium,Avenir Next" font-size="30.0" fill="#3D3B38" transform="matrix(1.00, 0.00, -0.00, -1.00, 351.0, 496.6)">l</text><text xml:space="preserve" font-family="AvenirNext-Medium,Avenir Next" font-size="30.0" fill="#3D3B38" transform="matrix(1.00, 0.00, -0.00, -1.00, 358.8, 496.6)">l</text><text xml:space="preserve" font-family="AvenirNext-Medium,Avenir Next" font-size="30.0" fill="#3D3B38" transform="matrix(1.00, 0.00, -0.00, -1.00, 366.6, 496.6)"> </text><text xml:space="preserve" font-family="AvenirNext-Medium,Avenir Next" font-size="30.0" fill="#3D3B38" transform="matrix(1.00, 0.00, -0.00, -1.00, 374.1, 496.6)">t</text><text xml:space="preserve" font-family="AvenirNext-Medium,Avenir Next" font-size="30.0" fill="#3D3B38" transform="matrix(1.00, 0.00, -0.00, -1.00, 384.0, 496.6)">h</text><text xml:space="preserve" font-family="AvenirNext-Medium,Avenir Next" font-size="30.0" fill="#3D3B38" transform="matrix(1.00, 0.00, -0.00, -1.00, 401.5, 496.6)">e</text><text xml:space="preserve" font-family="AvenirNext-Medium,Avenir Next" font-size="30.0" fill="#3D3B38" transform="matrix(1.00, 0.00, -0.00, -1.00, 418.7, 496.6)">s</text><text xml:space="preserve" font-family="AvenirNext-Medium,Avenir Next" font-size="30.0" fill="#3D3B38" transform="matrix(1.00, 0.00, -0.00, -1.00, 432.0, 496.6)">e</text><text xml:space="preserve" font-family="AvenirNext-Medium,Avenir Next" font-size="30.0" fill="#3D3B38" transform="matrix(1.00, 0.00, -0.00, -1.00, 449.2, 496.6)"> </text><text xml:space="preserve" font-family="AvenirNext-Medium,Avenir Next" font-size="30.0" fill="#3D3B38" transform="matrix(1.00, 0.00, -0.00, -1.00, 456.7, 496.6)">t</text><text xml:space="preserve" font-family="AvenirNext-Medium,Avenir Next" font-size="30.0" fill="#3D3B38" transform="matrix(1.00, 0.00, -0.00, -1.00, 466.6, 496.6)">h</text><text xml:space="preserve" font-family="AvenirNext-Medium,Avenir Next" font-size="30.0" fill="#3D3B38" transform="matrix(1.00, 0.00, -0.00, -1.00, 484.1, 496.6)">i</text><text xml:space="preserve" font-family="AvenirNext-Medium,Avenir Next" font-size="30.0" fill="#3D3B38" transform="matrix(1.00, 0.00, -0.00, -1.00, 491.8, 496.6)">n</text><text xml:space="preserve" font-family="AvenirNext-Medium,Avenir Next" font-size="30.0" fill="#3D3B38" transform="matrix(1.00, 0.00, -0.00, -1.00, 509.3, 496.6)">g</text><text xml:space="preserve" font-family="AvenirNext-Medium,Avenir Next" font-size="30.0" fill="#3D3B38" transform="matrix(1.00, 0.00, -0.00, -1.00, 528.3, 496.6)">s</text><text xml:space="preserve" font-family="AvenirNext-Medium,Avenir Next" font-size="30.0" fill="#3D3B38" transform="matrix(1.00, 0.00, -0.00, -1.00, 541.6, 496.6)"> </text><text xml:space="preserve" font-family="AvenirNext-Medium,Avenir Next" font-size="30.0" fill="#3D3B38" transform="matrix(1.00, 0.00, -0.00, -1.00, 549.1, 496.6)">m</text><text xml:space="preserve" font-family="AvenirNext-Medium,Avenir Next" font-size="30.0" fill="#3D3B38" transform="matrix(1.00, 0.00, -0.00, -1.00, 575.7, 496.6)">i</text><text xml:space="preserve" font-family="AvenirNext-Medium,Avenir Next" font-size="30.0" fill="#3D3B38" transform="matrix(1.00, 0.00, -0.00, -1.00, 583.5, 496.6)">g</text><text xml:space="preserve" font-family="AvenirNext-Medium,Avenir Next" font-size="30.0" fill="#3D3B38" transform="matrix(1.00, 0.00, -0.00, -1.00, 602.4, 496.6)">h</text><text xml:space="preserve" font-family="AvenirNext-Medium,Avenir Next" font-size="30.0" fill="#3D3B38" transform="matrix(1.00, 0.00, -0.00, -1.00, 619.9, 496.6)">t</text><text xml:space="preserve" font-family="AvenirNext-Medium,Avenir Next" font-size="30.0" fill="#3D3B38" transform="matrix(1.00, 0.00, -0.00, -1.00, 629.8, 496.6)"> </text><text xml:space="preserve" font-family="AvenirNext-Medium,Avenir Next" font-size="30.0" fill="#3D3B38" transform="matrix(1.00, 0.00, -0.00, -1.00, 637.3, 496.6)">ﬁ</text><text xml:space="preserve" font-family="AvenirNext-Medium,Avenir Next" font-size="30.0" fill="#3D3B38" transform="matrix(1.00, 0.00, -0.00, -1.00, 654.5, 496.6)">t</text><text xml:space="preserve" font-family="AvenirNext-Medium,Avenir Next" font-size="30.0" fill="#3D3B38" transform="matrix(1.00, 0.00, -0.00, -1.00, 664.4, 496.6)"> </text><text xml:space="preserve" font-family="AvenirNext-Medium,Avenir Next" font-size="30.0" fill="#3D3B38" transform="matrix(1.00, 0.00, -0.00, -1.00, 671.9, 496.6)">t</text><text xml:space="preserve" font-family="AvenirNext-Medium,Avenir Next" font-size="30.0" fill="#3D3B38" transform="matrix(1.00, 0.00, -0.00, -1.00, 681.8, 496.6)">o</text><text xml:space="preserve" font-family="AvenirNext-Medium,Avenir Next" font-size="30.0" fill="#3D3B38" transform="matrix(1.00, 0.00, -0.00, -1.00, 700.1, 496.6)">g</text><text xml:space="preserve" font-family="AvenirNext-Medium,Avenir Next" font-size="30.0" fill="#3D3B38" transform="matrix(1.00, 0.00, -0.00, -1.00, 719.0, 496.6)">e</text><text xml:space="preserve" font-family="AvenirNext-Medium,Avenir Next" font-size="30.0" fill="#3D3B38" transform="matrix(1.00, 0.00, -0.00, -1.00, 736.2, 496.6)">t</text><text xml:space="preserve" font-family="AvenirNext-Medium,Avenir Next" font-size="30.0" fill="#3D3B38" transform="matrix(1.00, 0.00, -0.00, -1.00, 746.1, 496.6)">h</text><text xml:space="preserve" font-family="AvenirNext-Medium,Avenir Next" font-size="30.0" fill="#3D3B38" transform="matrix(1.00, 0.00, -0.00, -1.00, 763.6, 496.6)">e</text><text xml:space="preserve" font-family="AvenirNext-Medium,Avenir Next" font-size="30.0" fill="#3D3B38" transform="matrix(1.00, 0.00, -0.00, -1.00, 780.8, 496.6)">r</text><text xml:space="preserve" font-family="AvenirNext-Medium,Avenir Next" font-size="30.0" fill="#3D3B38" transform="matrix(1.00, 0.00, -0.00, -1.00, 791.7, 496.6)">?</text></g></g></g></svg>