<?xml version="1.0" encoding="UTF-8" standalone="no"?><svg xmlns="http://www.w3.org/2000/svg" xmlns:xlink="http://www.w3.org/1999/xlink" clip-rule="evenodd" stroke-miterlimit="10" viewBox="0 0 1024 768"><desc>SVG generated by Keynote</desc><defs></defs><g transform="matrix(1.00, 0.00, -0.00, -1.00, 0.0, 768.0)"><g><clipPath id="clip0x618000caeee0"><path d="M 0.0 768.0 L 1024.0 768.0 L 1024.0 0.0 L 0.0 0.0 Z M 0.0 768.0 "></path></clipPath><g clip-path="url(#clip0x618000caeee0)"><image xlink:href="../../7EA767DE-955E-4E20-9ADC-BFAA01F56EE6/assets/8F1988DB1AAF97C886A39057648AB34F.jpeg" width="2048.00" height="1536.00" transform="matrix(0.50, 0.00, -0.00, -0.50, 0.0, 768.0)"></image></g></g><g opacity="0.45"><g><clipPath id="clip0x610000eb3440"><path d="M 30.0 48.0 L 994.0 48.0 L 994.0 741.0 L 30.0 741.0 Z M 30.0 48.0 "></path></clipPath><g clip-path="url(#clip0x610000eb3440)"><image xlink:href="../../7EA767DE-955E-4E20-9ADC-BFAA01F56EE6/assets/2762798D5DAF222C11E7DC4E503ABF71.png" width="1374.00" height="986.00" transform="matrix(0.70, 0.00, -0.00, -0.70, 31.0, 740.0)"></image></g></g></g><image xlink:href="A90BFF9DB720C3FBCFF81E93FA7E4B5E.png" width="524.00" height="33.00" transform="matrix(1.00, 0.00, -0.00, -1.00, 72.0, 704.0)"></image><text xml:space="preserve" font-family="AvenirNext-Bold,Avenir Next" font-weight="bold" font-size="38.4" fill="#3D3B38" transform="matrix(1.00, 0.00, -0.00, -1.00, 75.0, 676.1)">A</text><text xml:space="preserve" font-family="AvenirNext-Bold,Avenir Next" font-weight="bold" font-size="38.4" fill="#3D3B38" transform="matrix(1.00, 0.00, -0.00, -1.00, 106.1, 676.1)">N</text><text xml:space="preserve" font-family="AvenirNext-Bold,Avenir Next" font-weight="bold" font-size="38.4" fill="#3D3B38" transform="matrix(1.00, 0.00, -0.00, -1.00, 139.5, 676.1)">G</text><text xml:space="preserve" font-family="AvenirNext-Bold,Avenir Next" font-weight="bold" font-size="38.4" fill="#3D3B38" transform="matrix(1.00, 0.00, -0.00, -1.00, 172.1, 676.1)">U</text><text xml:space="preserve" font-family="AvenirNext-Bold,Avenir Next" font-weight="bold" font-size="38.4" fill="#3D3B38" transform="matrix(1.00, 0.00, -0.00, -1.00, 203.5, 676.1)">L</text><text xml:space="preserve" font-family="AvenirNext-Bold,Avenir Next" font-weight="bold" font-size="38.4" fill="#3D3B38" transform="matrix(1.00, 0.00, -0.00, -1.00, 226.8, 676.1)">A</text><text xml:space="preserve" font-family="AvenirNext-Bold,Avenir Next" font-weight="bold" font-size="38.4" fill="#3D3B38" transform="matrix(1.00, 0.00, -0.00, -1.00, 257.8, 676.1)">R</text><text xml:space="preserve" font-family="AvenirNext-Bold,Avenir Next" font-weight="bold" font-size="38.4" fill="#3D3B38" transform="matrix(1.00, 0.00, -0.00, -1.00, 286.4, 676.1)"> </text><text xml:space="preserve" font-family="AvenirNext-Bold,Avenir Next" font-weight="bold" font-size="38.4" fill="#3D3B38" transform="matrix(1.00, 0.00, -0.00, -1.00, 299.0, 676.1)">I</text><text xml:space="preserve" font-family="AvenirNext-Bold,Avenir Next" font-weight="bold" font-size="38.4" fill="#3D3B38" transform="matrix(1.00, 0.00, -0.00, -1.00, 314.3, 676.1)">N</text><text xml:space="preserve" font-family="AvenirNext-Bold,Avenir Next" font-weight="bold" font-size="38.4" fill="#3D3B38" transform="matrix(1.00, 0.00, -0.00, -1.00, 347.7, 676.1)"> </text><text xml:space="preserve" font-family="AvenirNext-Bold,Avenir Next" font-weight="bold" font-size="38.4" fill="#3D3B38" transform="matrix(1.00, 0.00, -0.00, -1.00, 360.4, 676.1)">5</text><text xml:space="preserve" font-family="AvenirNext-Bold,Avenir Next" font-weight="bold" font-size="38.4" fill="#3D3B38" transform="matrix(1.00, 0.00, -0.00, -1.00, 388.3, 676.1)"> </text><text xml:space="preserve" font-family="AvenirNext-Bold,Avenir Next" font-weight="bold" font-size="38.4" fill="#3D3B38" transform="matrix(1.00, 0.00, -0.00, -1.00, 400.9, 676.1)">M</text><text xml:space="preserve" font-family="AvenirNext-Bold,Avenir Next" font-weight="bold" font-size="38.4" fill="#3D3B38" transform="matrix(1.00, 0.00, -0.00, -1.00, 440.7, 676.1)">I</text><text xml:space="preserve" font-family="AvenirNext-Bold,Avenir Next" font-weight="bold" font-size="38.4" fill="#3D3B38" transform="matrix(1.00, 0.00, -0.00, -1.00, 456.0, 676.1)">N</text><text xml:space="preserve" font-family="AvenirNext-Bold,Avenir Next" font-weight="bold" font-size="38.4" fill="#3D3B38" transform="matrix(1.00, 0.00, -0.00, -1.00, 489.4, 676.1)">U</text><text xml:space="preserve" font-family="AvenirNext-Bold,Avenir Next" font-weight="bold" font-size="38.4" fill="#3D3B38" transform="matrix(1.00, 0.00, -0.00, -1.00, 520.8, 676.1)">T</text><text xml:space="preserve" font-family="AvenirNext-Bold,Avenir Next" font-weight="bold" font-size="38.4" fill="#3D3B38" transform="matrix(1.00, 0.00, -0.00, -1.00, 546.2, 676.1)">E</text><text xml:space="preserve" font-family="AvenirNext-Bold,Avenir Next" font-weight="bold" font-size="38.4" fill="#3D3B38" transform="matrix(1.00, 0.00, -0.00, -1.00, 572.5, 676.1)">S</text><image xlink:href="FDCF59B6F29865602C51F1CFB5DBA137.png" width="422.00" height="282.00" transform="matrix(1.84, 0.00, -0.00, -1.84, 123.8, 653.2)"></image><image xlink:href="79B4985C4F8E99E684CC362FA2FB88AD.png" width="398.00" height="41.00" transform="matrix(1.00, 0.00, -0.00, -1.00, 41.0, 118.0)"></image><text xml:space="preserve" font-family="AvenirNext-Medium,Avenir Next" font-size="36.0" fill="#5D514B" transform="matrix(1.00, 0.00, -0.00, -1.00, 42.0, 89.7)">S</text><text xml:space="preserve" font-family="AvenirNext-Medium,Avenir Next" font-size="36.0" fill="#5D514B" transform="matrix(1.00, 0.00, -0.00, -1.00, 62.5, 89.7)">o</text><text xml:space="preserve" font-family="AvenirNext-Medium,Avenir Next" font-size="36.0" fill="#5D514B" transform="matrix(1.00, 0.00, -0.00, -1.00, 84.4, 89.7)"> </text><text xml:space="preserve" font-family="AvenirNext-Medium,Avenir Next" font-size="36.0" fill="#5D514B" transform="matrix(1.00, 0.00, -0.00, -1.00, 93.4, 89.7)">m</text><text xml:space="preserve" font-family="AvenirNext-Medium,Avenir Next" font-size="36.0" fill="#5D514B" transform="matrix(1.00, 0.00, -0.00, -1.00, 125.4, 89.7)">u</text><text xml:space="preserve" font-family="AvenirNext-Medium,Avenir Next" font-size="36.0" fill="#5D514B" transform="matrix(1.00, 0.00, -0.00, -1.00, 146.3, 89.7)">c</text><text xml:space="preserve" font-family="AvenirNext-Medium,Avenir Next" font-size="36.0" fill="#5D514B" transform="matrix(1.00, 0.00, -0.00, -1.00, 164.1, 89.7)">h</text><text xml:space="preserve" font-family="AvenirNext-Medium,Avenir Next" font-size="36.0" fill="#5D514B" transform="matrix(1.00, 0.00, -0.00, -1.00, 185.1, 89.7)"> </text><text xml:space="preserve" font-family="AvenirNext-Medium,Avenir Next" font-size="36.0" fill="#5D514B" transform="matrix(1.00, 0.00, -0.00, -1.00, 194.1, 89.7)">f</text><text xml:space="preserve" font-family="AvenirNext-Medium,Avenir Next" font-size="36.0" fill="#5D514B" transform="matrix(1.00, 0.00, -0.00, -1.00, 205.3, 89.7)">o</text><text xml:space="preserve" font-family="AvenirNext-Medium,Avenir Next" font-size="36.0" fill="#5D514B" transform="matrix(1.00, 0.00, -0.00, -1.00, 227.3, 89.7)">r</text><text xml:space="preserve" font-family="AvenirNext-Medium,Avenir Next" font-size="36.0" fill="#5D514B" transform="matrix(1.00, 0.00, -0.00, -1.00, 240.3, 89.7)"> </text><text xml:space="preserve" font-family="AvenirNext-Medium,Avenir Next" font-size="36.0" fill="#5D514B" transform="matrix(1.00, 0.00, -0.00, -1.00, 249.3, 89.7)">t</text><text xml:space="preserve" font-family="AvenirNext-Medium,Avenir Next" font-size="36.0" fill="#5D514B" transform="matrix(1.00, 0.00, -0.00, -1.00, 261.1, 89.7)">h</text><text xml:space="preserve" font-family="AvenirNext-Medium,Avenir Next" font-size="36.0" fill="#5D514B" transform="matrix(1.00, 0.00, -0.00, -1.00, 282.2, 89.7)">a</text><text xml:space="preserve" font-family="AvenirNext-Medium,Avenir Next" font-size="36.0" fill="#5D514B" transform="matrix(1.00, 0.00, -0.00, -1.00, 301.3, 89.7)">t</text><text xml:space="preserve" font-family="AvenirNext-Medium,Avenir Next" font-size="36.0" fill="#5D514B" transform="matrix(1.00, 0.00, -0.00, -1.00, 313.2, 89.7)"> </text><text xml:space="preserve" font-family="AvenirNext-Medium,Avenir Next" font-size="36.0" fill="#5D514B" transform="matrix(1.00, 0.00, -0.00, -1.00, 322.2, 89.7)">p</text><text xml:space="preserve" font-family="AvenirNext-Medium,Avenir Next" font-size="36.0" fill="#5D514B" transform="matrix(1.00, 0.00, -0.00, -1.00, 345.0, 89.7)">l</text><text xml:space="preserve" font-family="AvenirNext-Medium,Avenir Next" font-size="36.0" fill="#5D514B" transform="matrix(1.00, 0.00, -0.00, -1.00, 354.3, 89.7)">a</text><text xml:space="preserve" font-family="AvenirNext-Medium,Avenir Next" font-size="36.0" fill="#5D514B" transform="matrix(1.00, 0.00, -0.00, -1.00, 373.8, 89.7)">n</text><text xml:space="preserve" font-family="AvenirNext-Medium,Avenir Next" font-size="36.0" fill="#5D514B" transform="matrix(1.00, 0.00, -0.00, -1.00, 394.8, 89.7)"> </text><text xml:space="preserve" font-family="AvenirNext-Medium,Avenir Next" font-size="36.0" fill="#5D514B" transform="matrix(1.00, 0.00, -0.00, -1.00, 403.8, 89.7)">…</text></g></svg>