<?xml version="1.0" encoding="UTF-8" standalone="no"?><svg xmlns="http://www.w3.org/2000/svg" xmlns:xlink="http://www.w3.org/1999/xlink" clip-rule="evenodd" stroke-miterlimit="10" viewBox="0 0 1024 768"><desc>SVG generated by Keynote</desc><defs><pattern id="patternP1" patternUnits="userSpaceOnUse" width="500" height="500" viewBox="0 0 500 500"><image xlink:href="../../1BC3D76F-57AD-4AD4-8A46-756004B1428C/assets/305F3861F72BFD73C3C6B847AFAF9D5E.png" width="500.00" height="500.00"></image></pattern></defs><g transform="matrix(1.00, 0.00, -0.00, -1.00, 0.0, 768.0)"><path d="M 0.0 768.0 L 1024.0 768.0 L 1024.0 0.0 L 0.0 0.0 Z M 0.0 768.0 " fill="#96443B"></path><g opacity="0.45"><g><clipPath id="clip0x6100010ae700"><path d="M 30.0 48.0 L 994.0 48.0 L 994.0 741.0 L 30.0 741.0 Z M 30.0 48.0 "></path></clipPath><g clip-path="url(#clip0x6100010ae700)"><image xlink:href="../../7EA767DE-955E-4E20-9ADC-BFAA01F56EE6/assets/2762798D5DAF222C11E7DC4E503ABF71.png" width="1374.00" height="986.00" transform="matrix(0.70, 0.00, -0.00, -0.70, 31.0, 740.0)"></image></g></g></g><image xlink:href="8B62267BECDA9559F6C8CC9E6FA54A4A.png" width="678.00" height="41.00" transform="matrix(1.00, 0.00, -0.00, -1.00, 172.0, 662.0)"></image><text xml:space="preserve" font-family="AvenirNext-Bold,Avenir Next" font-weight="bold" font-size="48.0" fill="#3D3B38" transform="matrix(1.00, 0.00, -0.00, -1.00, 171.2, 626.4)">N</text><text xml:space="preserve" font-family="AvenirNext-Bold,Avenir Next" font-weight="bold" font-size="48.0" fill="#3D3B38" transform="matrix(1.00, 0.00, -0.00, -1.00, 212.9, 626.4)">O</text><text xml:space="preserve" font-family="AvenirNext-Bold,Avenir Next" font-weight="bold" font-size="48.0" fill="#3D3B38" transform="matrix(1.00, 0.00, -0.00, -1.00, 257.6, 626.4)">W</text><text xml:space="preserve" font-family="AvenirNext-Bold,Avenir Next" font-weight="bold" font-size="48.0" fill="#3D3B38" transform="matrix(1.00, 0.00, -0.00, -1.00, 310.1, 626.4)"> </text><text xml:space="preserve" font-family="AvenirNext-Bold,Avenir Next" font-weight="bold" font-size="48.0" fill="#3D3B38" transform="matrix(1.00, 0.00, -0.00, -1.00, 325.9, 626.4)">L</text><text xml:space="preserve" font-family="AvenirNext-Bold,Avenir Next" font-weight="bold" font-size="48.0" fill="#3D3B38" transform="matrix(1.00, 0.00, -0.00, -1.00, 355.0, 626.4)">E</text><text xml:space="preserve" font-family="AvenirNext-Bold,Avenir Next" font-weight="bold" font-size="48.0" fill="#3D3B38" transform="matrix(1.00, 0.00, -0.00, -1.00, 388.0, 626.4)">T</text><text xml:space="preserve" font-family="AvenirNext-Bold,Avenir Next" font-weight="bold" font-size="48.0" fill="#3D3B38" transform="matrix(1.00, 0.00, -0.00, -1.00, 419.7, 626.4)">S</text><text xml:space="preserve" font-family="AvenirNext-Bold,Avenir Next" font-weight="bold" font-size="48.0" fill="#3D3B38" transform="matrix(1.00, 0.00, -0.00, -1.00, 451.9, 626.4)"> </text><text xml:space="preserve" font-family="AvenirNext-Bold,Avenir Next" font-weight="bold" font-size="48.0" fill="#3D3B38" transform="matrix(1.00, 0.00, -0.00, -1.00, 467.8, 626.4)">S</text><text xml:space="preserve" font-family="AvenirNext-Bold,Avenir Next" font-weight="bold" font-size="48.0" fill="#3D3B38" transform="matrix(1.00, 0.00, -0.00, -1.00, 500.0, 626.4)">H</text><text xml:space="preserve" font-family="AvenirNext-Bold,Avenir Next" font-weight="bold" font-size="48.0" fill="#3D3B38" transform="matrix(1.00, 0.00, -0.00, -1.00, 540.5, 626.4)">O</text><text xml:space="preserve" font-family="AvenirNext-Bold,Avenir Next" font-weight="bold" font-size="48.0" fill="#3D3B38" transform="matrix(1.00, 0.00, -0.00, -1.00, 584.6, 626.4)">V</text><text xml:space="preserve" font-family="AvenirNext-Bold,Avenir Next" font-weight="bold" font-size="48.0" fill="#3D3B38" transform="matrix(1.00, 0.00, -0.00, -1.00, 621.2, 626.4)">E</text><text xml:space="preserve" font-family="AvenirNext-Bold,Avenir Next" font-weight="bold" font-size="48.0" fill="#3D3B38" transform="matrix(1.00, 0.00, -0.00, -1.00, 654.2, 626.4)">L</text><text xml:space="preserve" font-family="AvenirNext-Bold,Avenir Next" font-weight="bold" font-size="48.0" fill="#3D3B38" transform="matrix(1.00, 0.00, -0.00, -1.00, 682.1, 626.4)"> </text><text xml:space="preserve" font-family="AvenirNext-Bold,Avenir Next" font-weight="bold" font-size="48.0" fill="#3D3B38" transform="matrix(1.00, 0.00, -0.00, -1.00, 697.9, 626.4)">R</text><text xml:space="preserve" font-family="AvenirNext-Bold,Avenir Next" font-weight="bold" font-size="48.0" fill="#3D3B38" transform="matrix(1.00, 0.00, -0.00, -1.00, 733.6, 626.4)">A</text><text xml:space="preserve" font-family="AvenirNext-Bold,Avenir Next" font-weight="bold" font-size="48.0" fill="#3D3B38" transform="matrix(1.00, 0.00, -0.00, -1.00, 772.4, 626.4)">I</text><text xml:space="preserve" font-family="AvenirNext-Bold,Avenir Next" font-weight="bold" font-size="48.0" fill="#3D3B38" transform="matrix(1.00, 0.00, -0.00, -1.00, 791.5, 626.4)">L</text><text xml:space="preserve" font-family="AvenirNext-Bold,Avenir Next" font-weight="bold" font-size="48.0" fill="#3D3B38" transform="matrix(1.00, 0.00, -0.00, -1.00, 820.6, 626.4)">S</text><text xml:space="preserve" font-family="AvenirNext-Bold,Avenir Next" font-weight="bold" font-size="48.0" fill="#3D3B38" transform="matrix(1.00, 0.00, -0.00, -1.00, 852.8, 626.4)"> </text><image xlink:href="0CDD5D2B537D58497CF6AF655E0DE0D9.png" width="738.00" height="41.00" transform="matrix(1.00, 0.00, -0.00, -1.00, 140.0, 609.0)"></image><text xml:space="preserve" font-family="AvenirNext-Bold,Avenir Next" font-weight="bold" font-size="48.0" fill="#3D3B38" transform="matrix(1.00, 0.00, -0.00, -1.00, 140.3, 573.6)">C</text><text xml:space="preserve" font-family="AvenirNext-Bold,Avenir Next" font-weight="bold" font-size="48.0" fill="#3D3B38" transform="matrix(1.00, 0.00, -0.00, -1.00, 177.0, 573.6)">O</text><text xml:space="preserve" font-family="AvenirNext-Bold,Avenir Next" font-weight="bold" font-size="48.0" fill="#3D3B38" transform="matrix(1.00, 0.00, -0.00, -1.00, 221.7, 573.6)">N</text><text xml:space="preserve" font-family="AvenirNext-Bold,Avenir Next" font-weight="bold" font-size="48.0" fill="#3D3B38" transform="matrix(1.00, 0.00, -0.00, -1.00, 263.4, 573.6)">C</text><text xml:space="preserve" font-family="AvenirNext-Bold,Avenir Next" font-weight="bold" font-size="48.0" fill="#3D3B38" transform="matrix(1.00, 0.00, -0.00, -1.00, 300.7, 573.6)">E</text><text xml:space="preserve" font-family="AvenirNext-Bold,Avenir Next" font-weight="bold" font-size="48.0" fill="#3D3B38" transform="matrix(1.00, 0.00, -0.00, -1.00, 333.7, 573.6)">P</text><text xml:space="preserve" font-family="AvenirNext-Bold,Avenir Next" font-weight="bold" font-size="48.0" fill="#3D3B38" transform="matrix(1.00, 0.00, -0.00, -1.00, 367.9, 573.6)">T</text><text xml:space="preserve" font-family="AvenirNext-Bold,Avenir Next" font-weight="bold" font-size="48.0" fill="#3D3B38" transform="matrix(1.00, 0.00, -0.00, -1.00, 399.7, 573.6)">S</text><text xml:space="preserve" font-family="AvenirNext-Bold,Avenir Next" font-weight="bold" font-size="48.0" fill="#3D3B38" transform="matrix(1.00, 0.00, -0.00, -1.00, 431.9, 573.6)"> </text><text xml:space="preserve" font-family="AvenirNext-Bold,Avenir Next" font-weight="bold" font-size="48.0" fill="#3D3B38" transform="matrix(1.00, 0.00, -0.00, -1.00, 447.7, 573.6)">I</text><text xml:space="preserve" font-family="AvenirNext-Bold,Avenir Next" font-weight="bold" font-size="48.0" fill="#3D3B38" transform="matrix(1.00, 0.00, -0.00, -1.00, 466.8, 573.6)">N</text><text xml:space="preserve" font-family="AvenirNext-Bold,Avenir Next" font-weight="bold" font-size="48.0" fill="#3D3B38" transform="matrix(1.00, 0.00, -0.00, -1.00, 508.6, 573.6)">T</text><text xml:space="preserve" font-family="AvenirNext-Bold,Avenir Next" font-weight="bold" font-size="48.0" fill="#3D3B38" transform="matrix(1.00, 0.00, -0.00, -1.00, 538.9, 573.6)">O</text><text xml:space="preserve" font-family="AvenirNext-Bold,Avenir Next" font-weight="bold" font-size="48.0" fill="#3D3B38" transform="matrix(1.00, 0.00, -0.00, -1.00, 583.5, 573.6)"> </text><text xml:space="preserve" font-family="AvenirNext-Bold,Avenir Next" font-weight="bold" font-size="48.0" fill="#3D3B38" transform="matrix(1.00, 0.00, -0.00, -1.00, 598.5, 573.6)">A</text><text xml:space="preserve" font-family="AvenirNext-Bold,Avenir Next" font-weight="bold" font-size="48.0" fill="#3D3B38" transform="matrix(1.00, 0.00, -0.00, -1.00, 637.4, 573.6)">N</text><text xml:space="preserve" font-family="AvenirNext-Bold,Avenir Next" font-weight="bold" font-size="48.0" fill="#3D3B38" transform="matrix(1.00, 0.00, -0.00, -1.00, 679.1, 573.6)">G</text><text xml:space="preserve" font-family="AvenirNext-Bold,Avenir Next" font-weight="bold" font-size="48.0" fill="#3D3B38" transform="matrix(1.00, 0.00, -0.00, -1.00, 719.9, 573.6)">U</text><text xml:space="preserve" font-family="AvenirNext-Bold,Avenir Next" font-weight="bold" font-size="48.0" fill="#3D3B38" transform="matrix(1.00, 0.00, -0.00, -1.00, 759.1, 573.6)">L</text><text xml:space="preserve" font-family="AvenirNext-Bold,Avenir Next" font-weight="bold" font-size="48.0" fill="#3D3B38" transform="matrix(1.00, 0.00, -0.00, -1.00, 788.2, 573.6)">A</text><text xml:space="preserve" font-family="AvenirNext-Bold,Avenir Next" font-weight="bold" font-size="48.0" fill="#3D3B38" transform="matrix(1.00, 0.00, -0.00, -1.00, 827.0, 573.6)">R</text><text xml:space="preserve" font-family="AvenirNext-Bold,Avenir Next" font-weight="bold" font-size="48.0" fill="#3D3B38" transform="matrix(1.00, 0.00, -0.00, -1.00, 862.7, 573.6)">!</text><image xlink:href="496A926473CCC1F6940495EABEB99A49.jpeg" width="300.00" height="168.00" transform="matrix(2.63, 0.00, -0.00, -2.63, 117.3, 549.0)"></image><image xlink:href="322424B1A61B3B6772B0D650E07228E0.png" width="363.00" height="124.00" transform="matrix(1.00, 0.00, -0.00, -1.00, 395.8, 327.8)" opacity="0.30"></image><g><clipPath id="clip0x6000012a3f00"><path d="M 399.0 327.0 L 756.0 327.0 L 756.0 209.0 L 399.0 209.0 Z M 399.0 326.8 "></path></clipPath><g clip-path="url(#clip0x6000012a3f00)"><path d="M 399.0 209.0 L 756.0 209.0 L 756.0 327.0 L 399.0 327.0 Z M 399.0 209.0 " fill="url(#patternP1)"></path></g></g><image xlink:href="75ECD56E16B5A56CEA8D97125BD8A3D5.png" width="340.00" height="48.00" transform="matrix(1.00, 0.00, -0.00, -1.00, 409.0, 293.0)"></image><g><clipPath id="clip0x6000012a41a0"><path d="M 381.3 205.0 L 773.9 205.0 L 773.9 327.6 L 381.3 327.6 Z M 381.3 205.0 "></path></clipPath><g clip-path="url(#clip0x6000012a41a0)"><text xml:space="preserve" font-family="AvenirNext-Medium,Avenir Next" font-size="58.0" fill="#3D3B38" transform="matrix(1.00, 0.00, -0.00, -1.00, 406.5, 249.0)">R</text><text xml:space="preserve" font-family="AvenirNext-Medium,Avenir Next" font-size="58.0" fill="#3D3B38" transform="matrix(1.00, 0.00, -0.00, -1.00, 442.1, 249.0)">A</text><text xml:space="preserve" font-family="AvenirNext-Medium,Avenir Next" font-size="58.0" fill="#3D3B38" transform="matrix(1.00, 0.00, -0.00, -1.00, 483.4, 249.0)">I</text><text xml:space="preserve" font-family="AvenirNext-Medium,Avenir Next" font-size="58.0" fill="#3D3B38" transform="matrix(1.00, 0.00, -0.00, -1.00, 499.1, 249.0)">L</text><text xml:space="preserve" font-family="AvenirNext-Medium,Avenir Next" font-size="58.0" fill="#3D3B38" transform="matrix(1.00, 0.00, -0.00, -1.00, 528.7, 249.0)">S</text><text xml:space="preserve" font-family="AvenirNext-Medium,Avenir Next" font-size="58.0" fill="#3D3B38" transform="matrix(1.00, 0.00, -0.00, -1.00, 561.7, 249.0)"> </text><text xml:space="preserve" font-family="AvenirNext-Medium,Avenir Next" font-size="58.0" fill="#3D3B38" transform="matrix(1.00, 0.00, -0.00, -1.00, 576.2, 249.0)">S</text><text xml:space="preserve" font-family="AvenirNext-Medium,Avenir Next" font-size="58.0" fill="#3D3B38" transform="matrix(1.00, 0.00, -0.00, -1.00, 608.3, 249.0)">T</text><text xml:space="preserve" font-family="AvenirNext-Medium,Avenir Next" font-size="58.0" fill="#3D3B38" transform="matrix(1.00, 0.00, -0.00, -1.00, 641.3, 249.0)">U</text><text xml:space="preserve" font-family="AvenirNext-Medium,Avenir Next" font-size="58.0" fill="#3D3B38" transform="matrix(1.00, 0.00, -0.00, -1.00, 682.6, 249.0)">F</text><text xml:space="preserve" font-family="AvenirNext-Medium,Avenir Next" font-size="58.0" fill="#3D3B38" transform="matrix(1.00, 0.00, -0.00, -1.00, 715.5, 249.0)">F</text></g></g></g></svg>