<?xml version="1.0" encoding="UTF-8" standalone="no"?><svg xmlns="http://www.w3.org/2000/svg" xmlns:xlink="http://www.w3.org/1999/xlink" clip-rule="evenodd" stroke-miterlimit="10" viewBox="0 0 1024 768"><desc>SVG generated by Keynote</desc><defs></defs><g transform="matrix(1.00, 0.00, -0.00, -1.00, 0.0, 768.0)"><g><clipPath id="clip0x618000eb2960"><path d="M 0.0 768.0 L 1024.0 768.0 L 1024.0 0.0 L 0.0 0.0 Z M 0.0 768.0 "></path></clipPath><g clip-path="url(#clip0x618000eb2960)"><image xlink:href="../../7EA767DE-955E-4E20-9ADC-BFAA01F56EE6/assets/8F1988DB1AAF97C886A39057648AB34F.jpeg" width="2048.00" height="1536.00" transform="matrix(0.50, 0.00, -0.00, -0.50, 0.0, 768.0)"></image></g></g><g opacity="0.45"><g><clipPath id="clip0x6080010bc3e0"><path d="M 30.0 48.0 L 994.0 48.0 L 994.0 741.0 L 30.0 741.0 Z M 30.0 48.0 "></path></clipPath><g clip-path="url(#clip0x6080010bc3e0)"><image xlink:href="../../7EA767DE-955E-4E20-9ADC-BFAA01F56EE6/assets/2762798D5DAF222C11E7DC4E503ABF71.png" width="1374.00" height="986.00" transform="matrix(0.70, 0.00, -0.00, -0.70, 31.0, 740.0)"></image></g></g></g><image xlink:href="../../3C4FD3A7-9028-49D4-BE62-482B2AF2F54A/assets/526766B576C3903B478972F70BCC20FB.png" width="581.00" height="40.00" transform="matrix(1.00, 0.00, -0.00, -1.00, 72.0, 705.0)"></image><text xml:space="preserve" font-family="AvenirNext-Bold,Avenir Next" font-weight="bold" font-size="38.4" fill="#3D3B38" transform="matrix(1.00, 0.00, -0.00, -1.00, 75.0, 676.1)">A</text><text xml:space="preserve" font-family="AvenirNext-Bold,Avenir Next" font-weight="bold" font-size="38.4" fill="#3D3B38" transform="matrix(1.00, 0.00, -0.00, -1.00, 106.1, 676.1)">N</text><text xml:space="preserve" font-family="AvenirNext-Bold,Avenir Next" font-weight="bold" font-size="38.4" fill="#3D3B38" transform="matrix(1.00, 0.00, -0.00, -1.00, 139.5, 676.1)">G</text><text xml:space="preserve" font-family="AvenirNext-Bold,Avenir Next" font-weight="bold" font-size="38.4" fill="#3D3B38" transform="matrix(1.00, 0.00, -0.00, -1.00, 172.1, 676.1)">U</text><text xml:space="preserve" font-family="AvenirNext-Bold,Avenir Next" font-weight="bold" font-size="38.4" fill="#3D3B38" transform="matrix(1.00, 0.00, -0.00, -1.00, 203.5, 676.1)">L</text><text xml:space="preserve" font-family="AvenirNext-Bold,Avenir Next" font-weight="bold" font-size="38.4" fill="#3D3B38" transform="matrix(1.00, 0.00, -0.00, -1.00, 226.8, 676.1)">A</text><text xml:space="preserve" font-family="AvenirNext-Bold,Avenir Next" font-weight="bold" font-size="38.4" fill="#3D3B38" transform="matrix(1.00, 0.00, -0.00, -1.00, 257.8, 676.1)">R</text><text xml:space="preserve" font-family="AvenirNext-Bold,Avenir Next" font-weight="bold" font-size="38.4" fill="#3D3B38" transform="matrix(1.00, 0.00, -0.00, -1.00, 286.4, 676.1)"> </text><text xml:space="preserve" font-family="AvenirNext-Bold,Avenir Next" font-weight="bold" font-size="38.4" fill="#3D3B38" transform="matrix(1.00, 0.00, -0.00, -1.00, 299.0, 676.1)">I</text><text xml:space="preserve" font-family="AvenirNext-Bold,Avenir Next" font-weight="bold" font-size="38.4" fill="#3D3B38" transform="matrix(1.00, 0.00, -0.00, -1.00, 314.3, 676.1)">N</text><text xml:space="preserve" font-family="AvenirNext-Bold,Avenir Next" font-weight="bold" font-size="38.4" fill="#3D3B38" transform="matrix(1.00, 0.00, -0.00, -1.00, 347.7, 676.1)"> </text><text xml:space="preserve" font-family="AvenirNext-Bold,Avenir Next" font-weight="bold" font-size="38.4" fill="#3D3B38" transform="matrix(1.00, 0.00, -0.00, -1.00, 360.4, 676.1)">5</text><text xml:space="preserve" font-family="AvenirNext-Bold,Avenir Next" font-weight="bold" font-size="38.4" fill="#3D3B38" transform="matrix(1.00, 0.00, -0.00, -1.00, 388.3, 676.1)">(</text><text xml:space="preserve" font-family="AvenirNext-Bold,Avenir Next" font-weight="bold" font-size="38.4" fill="#3D3B38" transform="matrix(1.00, 0.00, -0.00, -1.00, 404.5, 676.1)">?</text><text xml:space="preserve" font-family="AvenirNext-Bold,Avenir Next" font-weight="bold" font-size="38.4" fill="#3D3B38" transform="matrix(1.00, 0.00, -0.00, -1.00, 428.5, 676.1)">)</text><text xml:space="preserve" font-family="AvenirNext-Bold,Avenir Next" font-weight="bold" font-size="38.4" fill="#3D3B38" transform="matrix(1.00, 0.00, -0.00, -1.00, 444.7, 676.1)"> </text><text xml:space="preserve" font-family="AvenirNext-Bold,Avenir Next" font-weight="bold" font-size="38.4" fill="#3D3B38" transform="matrix(1.00, 0.00, -0.00, -1.00, 457.4, 676.1)">M</text><text xml:space="preserve" font-family="AvenirNext-Bold,Avenir Next" font-weight="bold" font-size="38.4" fill="#3D3B38" transform="matrix(1.00, 0.00, -0.00, -1.00, 497.1, 676.1)">I</text><text xml:space="preserve" font-family="AvenirNext-Bold,Avenir Next" font-weight="bold" font-size="38.4" fill="#3D3B38" transform="matrix(1.00, 0.00, -0.00, -1.00, 512.4, 676.1)">N</text><text xml:space="preserve" font-family="AvenirNext-Bold,Avenir Next" font-weight="bold" font-size="38.4" fill="#3D3B38" transform="matrix(1.00, 0.00, -0.00, -1.00, 545.8, 676.1)">U</text><text xml:space="preserve" font-family="AvenirNext-Bold,Avenir Next" font-weight="bold" font-size="38.4" fill="#3D3B38" transform="matrix(1.00, 0.00, -0.00, -1.00, 577.2, 676.1)">T</text><text xml:space="preserve" font-family="AvenirNext-Bold,Avenir Next" font-weight="bold" font-size="38.4" fill="#3D3B38" transform="matrix(1.00, 0.00, -0.00, -1.00, 602.6, 676.1)">E</text><text xml:space="preserve" font-family="AvenirNext-Bold,Avenir Next" font-weight="bold" font-size="38.4" fill="#3D3B38" transform="matrix(1.00, 0.00, -0.00, -1.00, 629.0, 676.1)">S</text><image xlink:href="../../3C4FD3A7-9028-49D4-BE62-482B2AF2F54A/assets/C5092446FEED440EC126BF9C15FD00C6.png" width="635.00" height="33.00" transform="matrix(1.00, 0.00, -0.00, -1.00, 75.0, 649.0)"></image><text xml:space="preserve" font-family="AvenirNext-Bold,Avenir Next" font-weight="bold" font-size="38.4" fill="#3D3B38" transform="matrix(1.00, 0.00, -0.00, -1.00, 75.0, 621.1)">P</text><text xml:space="preserve" font-family="AvenirNext-Bold,Avenir Next" font-weight="bold" font-size="38.4" fill="#3D3B38" transform="matrix(1.00, 0.00, -0.00, -1.00, 102.6, 621.1)">R</text><text xml:space="preserve" font-family="AvenirNext-Bold,Avenir Next" font-weight="bold" font-size="38.4" fill="#3D3B38" transform="matrix(1.00, 0.00, -0.00, -1.00, 131.2, 621.1)">O</text><text xml:space="preserve" font-family="AvenirNext-Bold,Avenir Next" font-weight="bold" font-size="38.4" fill="#3D3B38" transform="matrix(1.00, 0.00, -0.00, -1.00, 165.8, 621.1)">T</text><text xml:space="preserve" font-family="AvenirNext-Bold,Avenir Next" font-weight="bold" font-size="38.4" fill="#3D3B38" transform="matrix(1.00, 0.00, -0.00, -1.00, 190.0, 621.1)">O</text><text xml:space="preserve" font-family="AvenirNext-Bold,Avenir Next" font-weight="bold" font-size="38.4" fill="#3D3B38" transform="matrix(1.00, 0.00, -0.00, -1.00, 224.6, 621.1)">T</text><text xml:space="preserve" font-family="AvenirNext-Bold,Avenir Next" font-weight="bold" font-size="38.4" fill="#3D3B38" transform="matrix(1.00, 0.00, -0.00, -1.00, 249.5, 621.1)">Y</text><text xml:space="preserve" font-family="AvenirNext-Bold,Avenir Next" font-weight="bold" font-size="38.4" fill="#3D3B38" transform="matrix(1.00, 0.00, -0.00, -1.00, 278.3, 621.1)">P</text><text xml:space="preserve" font-family="AvenirNext-Bold,Avenir Next" font-weight="bold" font-size="38.4" fill="#3D3B38" transform="matrix(1.00, 0.00, -0.00, -1.00, 305.9, 621.1)">I</text><text xml:space="preserve" font-family="AvenirNext-Bold,Avenir Next" font-weight="bold" font-size="38.4" fill="#3D3B38" transform="matrix(1.00, 0.00, -0.00, -1.00, 321.2, 621.1)">C</text><text xml:space="preserve" font-family="AvenirNext-Bold,Avenir Next" font-weight="bold" font-size="38.4" fill="#3D3B38" transform="matrix(1.00, 0.00, -0.00, -1.00, 350.6, 621.1)">A</text><text xml:space="preserve" font-family="AvenirNext-Bold,Avenir Next" font-weight="bold" font-size="38.4" fill="#3D3B38" transform="matrix(1.00, 0.00, -0.00, -1.00, 381.6, 621.1)">L</text><text xml:space="preserve" font-family="AvenirNext-Bold,Avenir Next" font-weight="bold" font-size="38.4" fill="#3D3B38" transform="matrix(1.00, 0.00, -0.00, -1.00, 404.0, 621.1)"> </text><text xml:space="preserve" font-family="AvenirNext-Bold,Avenir Next" font-weight="bold" font-size="38.4" fill="#3D3B38" transform="matrix(1.00, 0.00, -0.00, -1.00, 416.6, 621.1)">I</text><text xml:space="preserve" font-family="AvenirNext-Bold,Avenir Next" font-weight="bold" font-size="38.4" fill="#3D3B38" transform="matrix(1.00, 0.00, -0.00, -1.00, 431.9, 621.1)">N</text><text xml:space="preserve" font-family="AvenirNext-Bold,Avenir Next" font-weight="bold" font-size="38.4" fill="#3D3B38" transform="matrix(1.00, 0.00, -0.00, -1.00, 465.3, 621.1)">H</text><text xml:space="preserve" font-family="AvenirNext-Bold,Avenir Next" font-weight="bold" font-size="38.4" fill="#3D3B38" transform="matrix(1.00, 0.00, -0.00, -1.00, 497.7, 621.1)">E</text><text xml:space="preserve" font-family="AvenirNext-Bold,Avenir Next" font-weight="bold" font-size="38.4" fill="#3D3B38" transform="matrix(1.00, 0.00, -0.00, -1.00, 524.1, 621.1)">R</text><text xml:space="preserve" font-family="AvenirNext-Bold,Avenir Next" font-weight="bold" font-size="38.4" fill="#3D3B38" transform="matrix(1.00, 0.00, -0.00, -1.00, 552.7, 621.1)">I</text><text xml:space="preserve" font-family="AvenirNext-Bold,Avenir Next" font-weight="bold" font-size="38.4" fill="#3D3B38" transform="matrix(1.00, 0.00, -0.00, -1.00, 567.9, 621.1)">T</text><text xml:space="preserve" font-family="AvenirNext-Bold,Avenir Next" font-weight="bold" font-size="38.4" fill="#3D3B38" transform="matrix(1.00, 0.00, -0.00, -1.00, 591.0, 621.1)">A</text><text xml:space="preserve" font-family="AvenirNext-Bold,Avenir Next" font-weight="bold" font-size="38.4" fill="#3D3B38" transform="matrix(1.00, 0.00, -0.00, -1.00, 622.1, 621.1)">N</text><text xml:space="preserve" font-family="AvenirNext-Bold,Avenir Next" font-weight="bold" font-size="38.4" fill="#3D3B38" transform="matrix(1.00, 0.00, -0.00, -1.00, 655.5, 621.1)">C</text><text xml:space="preserve" font-family="AvenirNext-Bold,Avenir Next" font-weight="bold" font-size="38.4" fill="#3D3B38" transform="matrix(1.00, 0.00, -0.00, -1.00, 685.3, 621.1)">E</text><text xml:space="preserve" font-family="AvenirNext-Bold,Avenir Next" font-weight="bold" font-size="38.4" fill="#3D3B38" transform="matrix(1.00, 0.00, -0.00, -1.00, 711.7, 621.1)"> </text><image xlink:href="../../559F7477-3E32-474E-8C7F-E32FF17ED934/assets/242FEACF92E2A232181212960EE6D8FF.png" width="467.00" height="37.00" transform="matrix(1.00, 0.00, -0.00, -1.00, 40.0, 577.0)"></image><text xml:space="preserve" font-family="AvenirNext-Medium,Avenir Next" font-size="36.0" fill="#5D514B" transform="matrix(1.00, 0.00, -0.00, -1.00, 42.0, 549.7)">W</text><text xml:space="preserve" font-family="AvenirNext-Medium,Avenir Next" font-size="36.0" fill="#5D514B" transform="matrix(1.00, 0.00, -0.00, -1.00, 77.6, 549.7)">h</text><text xml:space="preserve" font-family="AvenirNext-Medium,Avenir Next" font-size="36.0" fill="#5D514B" transform="matrix(1.00, 0.00, -0.00, -1.00, 98.6, 549.7)">e</text><text xml:space="preserve" font-family="AvenirNext-Medium,Avenir Next" font-size="36.0" fill="#5D514B" transform="matrix(1.00, 0.00, -0.00, -1.00, 119.2, 549.7)">n</text><text xml:space="preserve" font-family="AvenirNext-Medium,Avenir Next" font-size="36.0" fill="#5D514B" transform="matrix(1.00, 0.00, -0.00, -1.00, 140.2, 549.7)"> </text><text xml:space="preserve" font-family="AvenirNext-Medium,Avenir Next" font-size="36.0" fill="#5D514B" transform="matrix(1.00, 0.00, -0.00, -1.00, 149.2, 549.7)">i</text><text xml:space="preserve" font-family="AvenirNext-Medium,Avenir Next" font-size="36.0" fill="#5D514B" transform="matrix(1.00, 0.00, -0.00, -1.00, 158.5, 549.7)">n</text><text xml:space="preserve" font-family="AvenirNext-Medium,Avenir Next" font-size="36.0" fill="#5D514B" transform="matrix(1.00, 0.00, -0.00, -1.00, 179.4, 549.7)"> </text><text xml:space="preserve" font-family="AvenirNext-Medium,Avenir Next" font-size="36.0" fill="#5D514B" transform="matrix(1.00, 0.00, -0.00, -1.00, 188.4, 549.7)">d</text><text xml:space="preserve" font-family="AvenirNext-Medium,Avenir Next" font-size="36.0" fill="#5D514B" transform="matrix(1.00, 0.00, -0.00, -1.00, 211.3, 549.7)">o</text><text xml:space="preserve" font-family="AvenirNext-Medium,Avenir Next" font-size="36.0" fill="#5D514B" transform="matrix(1.00, 0.00, -0.00, -1.00, 233.3, 549.7)">u</text><text xml:space="preserve" font-family="AvenirNext-Medium,Avenir Next" font-size="36.0" fill="#5D514B" transform="matrix(1.00, 0.00, -0.00, -1.00, 254.2, 549.7)">b</text><text xml:space="preserve" font-family="AvenirNext-Medium,Avenir Next" font-size="36.0" fill="#5D514B" transform="matrix(1.00, 0.00, -0.00, -1.00, 277.1, 549.7)">t</text><text xml:space="preserve" font-family="AvenirNext-Medium,Avenir Next" font-size="36.0" fill="#5D514B" transform="matrix(1.00, 0.00, -0.00, -1.00, 289.0, 549.7)">,</text><text xml:space="preserve" font-family="AvenirNext-Medium,Avenir Next" font-size="36.0" fill="#5D514B" transform="matrix(1.00, 0.00, -0.00, -1.00, 297.2, 549.7)"> </text><text xml:space="preserve" font-family="AvenirNext-Medium,Avenir Next" font-size="36.0" fill="#5D514B" transform="matrix(1.00, 0.00, -0.00, -1.00, 306.2, 549.7)">d</text><text xml:space="preserve" font-family="AvenirNext-Medium,Avenir Next" font-size="36.0" fill="#5D514B" transform="matrix(1.00, 0.00, -0.00, -1.00, 329.1, 549.7)">o</text><text xml:space="preserve" font-family="AvenirNext-Medium,Avenir Next" font-size="36.0" fill="#5D514B" transform="matrix(1.00, 0.00, -0.00, -1.00, 351.1, 549.7)">t</text><text xml:space="preserve" font-family="AvenirNext-Medium,Avenir Next" font-size="36.0" fill="#5D514B" transform="matrix(1.00, 0.00, -0.00, -1.00, 362.9, 549.7)"> </text><text xml:space="preserve" font-family="AvenirNext-Medium,Avenir Next" font-size="36.0" fill="#5D514B" transform="matrix(1.00, 0.00, -0.00, -1.00, 371.9, 549.7)">(</text><text xml:space="preserve" font-family="AvenirNext-Medium,Avenir Next" font-size="36.0" fill="#5D514B" transform="matrix(1.00, 0.00, -0.00, -1.00, 383.2, 549.7)">.</text><text xml:space="preserve" font-family="AvenirNext-Medium,Avenir Next" font-size="36.0" fill="#5D514B" transform="matrix(1.00, 0.00, -0.00, -1.00, 392.6, 549.7)">)</text><text xml:space="preserve" font-family="AvenirNext-Medium,Avenir Next" font-size="36.0" fill="#5D514B" transform="matrix(1.00, 0.00, -0.00, -1.00, 403.9, 549.7)"> </text><text xml:space="preserve" font-family="AvenirNext-Medium,Avenir Next" font-size="36.0" fill="#5D514B" transform="matrix(1.00, 0.00, -0.00, -1.00, 412.9, 549.7)">i</text><text xml:space="preserve" font-family="AvenirNext-Medium,Avenir Next" font-size="36.0" fill="#5D514B" transform="matrix(1.00, 0.00, -0.00, -1.00, 422.3, 549.7)">t</text><text xml:space="preserve" font-family="AvenirNext-Medium,Avenir Next" font-size="36.0" fill="#5D514B" transform="matrix(1.00, 0.00, -0.00, -1.00, 434.1, 549.7)"> </text><text xml:space="preserve" font-family="AvenirNext-Medium,Avenir Next" font-size="36.0" fill="#5D514B" transform="matrix(1.00, 0.00, -0.00, -1.00, 443.1, 549.7)">o</text><text xml:space="preserve" font-family="AvenirNext-Medium,Avenir Next" font-size="36.0" fill="#5D514B" transform="matrix(1.00, 0.00, -0.00, -1.00, 465.1, 549.7)">u</text><text xml:space="preserve" font-family="AvenirNext-Medium,Avenir Next" font-size="36.0" fill="#5D514B" transform="matrix(1.00, 0.00, -0.00, -1.00, 486.0, 549.7)">t</text><text xml:space="preserve" font-family="AvenirNext-Medium,Avenir Next" font-size="36.0" fill="#5D514B" transform="matrix(1.00, 0.00, -0.00, -1.00, 497.9, 549.7)">.</text><image xlink:href="../../559F7477-3E32-474E-8C7F-E32FF17ED934/assets/F137E79BF98B6E4AF81AC498BFCD2D90.png" width="315.00" height="41.00" transform="matrix(1.00, 0.00, -0.00, -1.00, 653.0, 99.0)"></image><text xml:space="preserve" font-family="AvenirNext-Medium,Avenir Next" font-size="36.0" fill="#5D514B" transform="matrix(1.00, 0.00, -0.00, -1.00, 655.2, 70.7)">T</text><text xml:space="preserve" font-family="AvenirNext-Medium,Avenir Next" font-size="36.0" fill="#5D514B" transform="matrix(1.00, 0.00, -0.00, -1.00, 675.1, 70.7)">h</text><text xml:space="preserve" font-family="AvenirNext-Medium,Avenir Next" font-size="36.0" fill="#5D514B" transform="matrix(1.00, 0.00, -0.00, -1.00, 696.1, 70.7)">e</text><text xml:space="preserve" font-family="AvenirNext-Medium,Avenir Next" font-size="36.0" fill="#5D514B" transform="matrix(1.00, 0.00, -0.00, -1.00, 716.7, 70.7)"> </text><text xml:space="preserve" font-family="AvenirNext-Medium,Avenir Next" font-size="36.0" fill="#5D514B" transform="matrix(1.00, 0.00, -0.00, -1.00, 725.7, 70.7)">.</text><text xml:space="preserve" font-family="AvenirNext-Medium,Avenir Next" font-size="36.0" fill="#5D514B" transform="matrix(1.00, 0.00, -0.00, -1.00, 734.0, 70.7)"> </text><text xml:space="preserve" font-family="AvenirNext-Medium,Avenir Next" font-size="36.0" fill="#5D514B" transform="matrix(1.00, 0.00, -0.00, -1.00, 743.0, 70.7)">i</text><text xml:space="preserve" font-family="AvenirNext-Medium,Avenir Next" font-size="36.0" fill="#5D514B" transform="matrix(1.00, 0.00, -0.00, -1.00, 752.3, 70.7)">s</text><text xml:space="preserve" font-family="AvenirNext-Medium,Avenir Next" font-size="36.0" fill="#5D514B" transform="matrix(1.00, 0.00, -0.00, -1.00, 768.3, 70.7)"> </text><text xml:space="preserve" font-family="AvenirNext-Medium,Avenir Next" font-size="36.0" fill="#5D514B" transform="matrix(1.00, 0.00, -0.00, -1.00, 777.3, 70.7)">y</text><text xml:space="preserve" font-family="AvenirNext-Medium,Avenir Next" font-size="36.0" fill="#5D514B" transform="matrix(1.00, 0.00, -0.00, -1.00, 795.5, 70.7)">o</text><text xml:space="preserve" font-family="AvenirNext-Medium,Avenir Next" font-size="36.0" fill="#5D514B" transform="matrix(1.00, 0.00, -0.00, -1.00, 817.4, 70.7)">u</text><text xml:space="preserve" font-family="AvenirNext-Medium,Avenir Next" font-size="36.0" fill="#5D514B" transform="matrix(1.00, 0.00, -0.00, -1.00, 838.4, 70.7)">r</text><text xml:space="preserve" font-family="AvenirNext-Medium,Avenir Next" font-size="36.0" fill="#5D514B" transform="matrix(1.00, 0.00, -0.00, -1.00, 851.4, 70.7)"> </text><text xml:space="preserve" font-family="AvenirNext-Medium,Avenir Next" font-size="36.0" fill="#5D514B" transform="matrix(1.00, 0.00, -0.00, -1.00, 860.4, 70.7)">f</text><text xml:space="preserve" font-family="AvenirNext-Medium,Avenir Next" font-size="36.0" fill="#5D514B" transform="matrix(1.00, 0.00, -0.00, -1.00, 871.6, 70.7)">r</text><text xml:space="preserve" font-family="AvenirNext-Medium,Avenir Next" font-size="36.0" fill="#5D514B" transform="matrix(1.00, 0.00, -0.00, -1.00, 884.6, 70.7)">i</text><text xml:space="preserve" font-family="AvenirNext-Medium,Avenir Next" font-size="36.0" fill="#5D514B" transform="matrix(1.00, 0.00, -0.00, -1.00, 893.9, 70.7)">e</text><text xml:space="preserve" font-family="AvenirNext-Medium,Avenir Next" font-size="36.0" fill="#5D514B" transform="matrix(1.00, 0.00, -0.00, -1.00, 914.6, 70.7)">n</text><text xml:space="preserve" font-family="AvenirNext-Medium,Avenir Next" font-size="36.0" fill="#5D514B" transform="matrix(1.00, 0.00, -0.00, -1.00, 935.5, 70.7)">d</text><text xml:space="preserve" font-family="AvenirNext-Medium,Avenir Next" font-size="36.0" fill="#5D514B" transform="matrix(1.00, 0.00, -0.00, -1.00, 958.4, 70.7)">.</text><image xlink:href="../../559F7477-3E32-474E-8C7F-E32FF17ED934/assets/5305F39717C61EDD27BBE6EF269A1D5B.jpeg" width="385.00" height="257.00" transform="matrix(1.53, 0.00, -0.00, -1.53, 218.0, 517.8)"></image></g></svg>