<?xml version="1.0" encoding="UTF-8" standalone="no"?><svg xmlns="http://www.w3.org/2000/svg" xmlns:xlink="http://www.w3.org/1999/xlink" clip-rule="evenodd" stroke-miterlimit="10" viewBox="0 0 1024 768"><desc>SVG generated by Keynote</desc><defs><pattern id="patternP1" patternUnits="userSpaceOnUse" width="500" height="500" viewBox="0 0 500 500"><image xlink:href="../../91A50125-E504-4029-86C9-23B3BC2085CD/assets/7069AEF9FF91D8945788D385657C5FAA.png" width="500.00" height="500.00"></image></pattern><pattern id="patternP2" patternUnits="userSpaceOnUse" width="500" height="500" viewBox="0 0 500 500"><image xlink:href="../../7EA767DE-955E-4E20-9ADC-BFAA01F56EE6/assets/8E442496E1AFE03FBA0DB3EC86D0E9D5.png" width="500.00" height="500.00"></image></pattern><pattern id="patternP3" patternUnits="userSpaceOnUse" width="500" height="500" viewBox="0 0 500 500"><image xlink:href="../../EEFE8CC9-7018-4D69-A14F-E9946820B58E/assets/532C1F6324702BA5935B3E573B5E58A2.png" width="500.00" height="500.00"></image></pattern><pattern id="patternP4" patternUnits="userSpaceOnUse" width="500" height="500" viewBox="0 0 500 500"><image xlink:href="../../1BC3D76F-57AD-4AD4-8A46-756004B1428C/assets/305F3861F72BFD73C3C6B847AFAF9D5E.png" width="500.00" height="500.00"></image></pattern><pattern id="patternP5" patternUnits="userSpaceOnUse" width="500" height="500" viewBox="0 0 500 500"><image xlink:href="../../EEFE8CC9-7018-4D69-A14F-E9946820B58E/assets/532C1F6324702BA5935B3E573B5E58A2.png" width="500.00" height="500.00"></image></pattern></defs><g transform="matrix(1.00, 0.00, -0.00, -1.00, 0.0, 768.0)"><g><clipPath id="clip0x6100012a8220"><path d="M 0.0 768.0 L 1024.0 768.0 L 1024.0 0.0 L 0.0 0.0 Z M 0.0 768.0 "></path></clipPath><g clip-path="url(#clip0x6100012a8220)"><image xlink:href="../../7EA767DE-955E-4E20-9ADC-BFAA01F56EE6/assets/8F1988DB1AAF97C886A39057648AB34F.jpeg" width="2048.00" height="1536.00" transform="matrix(0.50, 0.00, -0.00, -0.50, 0.0, 768.0)"></image></g></g><g opacity="0.45"><g><clipPath id="clip0x6100012a95a0"><path d="M 30.0 48.0 L 994.0 48.0 L 994.0 741.0 L 30.0 741.0 Z M 30.0 48.0 "></path></clipPath><g clip-path="url(#clip0x6100012a95a0)"><image xlink:href="../../7EA767DE-955E-4E20-9ADC-BFAA01F56EE6/assets/2762798D5DAF222C11E7DC4E503ABF71.png" width="1374.00" height="986.00" transform="matrix(0.70, 0.00, -0.00, -0.70, 31.0, 740.0)"></image></g></g></g><image xlink:href="B7E5B6005CC1639CF95BF89C30F313F3.png" width="868.00" height="30.00" transform="matrix(1.00, 0.00, -0.00, -1.00, 43.0, 721.0)"></image><text xml:space="preserve" font-family="AvenirNext-Bold,Avenir Next" font-weight="bold" font-size="33.6" fill="#3D3B38" transform="matrix(1.00, 0.00, -0.00, -1.00, 45.0, 696.3)">T</text><text xml:space="preserve" font-family="AvenirNext-Bold,Avenir Next" font-weight="bold" font-size="33.6" fill="#3D3B38" transform="matrix(1.00, 0.00, -0.00, -1.00, 67.2, 696.3)">H</text><text xml:space="preserve" font-family="AvenirNext-Bold,Avenir Next" font-weight="bold" font-size="33.6" fill="#3D3B38" transform="matrix(1.00, 0.00, -0.00, -1.00, 95.6, 696.3)">E</text><text xml:space="preserve" font-family="AvenirNext-Bold,Avenir Next" font-weight="bold" font-size="33.6" fill="#3D3B38" transform="matrix(1.00, 0.00, -0.00, -1.00, 118.7, 696.3)"> </text><text xml:space="preserve" font-family="AvenirNext-Bold,Avenir Next" font-weight="bold" font-size="33.6" fill="#3D3B38" transform="matrix(1.00, 0.00, -0.00, -1.00, 129.7, 696.3)">E</text><text xml:space="preserve" font-family="AvenirNext-Bold,Avenir Next" font-weight="bold" font-size="33.6" fill="#3D3B38" transform="matrix(1.00, 0.00, -0.00, -1.00, 152.8, 696.3)">N</text><text xml:space="preserve" font-family="AvenirNext-Bold,Avenir Next" font-weight="bold" font-size="33.6" fill="#3D3B38" transform="matrix(1.00, 0.00, -0.00, -1.00, 182.1, 696.3)">T</text><text xml:space="preserve" font-family="AvenirNext-Bold,Avenir Next" font-weight="bold" font-size="33.6" fill="#3D3B38" transform="matrix(1.00, 0.00, -0.00, -1.00, 204.3, 696.3)">I</text><text xml:space="preserve" font-family="AvenirNext-Bold,Avenir Next" font-weight="bold" font-size="33.6" fill="#3D3B38" transform="matrix(1.00, 0.00, -0.00, -1.00, 217.6, 696.3)">R</text><text xml:space="preserve" font-family="AvenirNext-Bold,Avenir Next" font-weight="bold" font-size="33.6" fill="#3D3B38" transform="matrix(1.00, 0.00, -0.00, -1.00, 242.6, 696.3)">E</text><text xml:space="preserve" font-family="AvenirNext-Bold,Avenir Next" font-weight="bold" font-size="33.6" fill="#3D3B38" transform="matrix(1.00, 0.00, -0.00, -1.00, 265.7, 696.3)"> </text><text xml:space="preserve" font-family="AvenirNext-Bold,Avenir Next" font-weight="bold" font-size="33.6" fill="#3D3B38" transform="matrix(1.00, 0.00, -0.00, -1.00, 276.8, 696.3)">E</text><text xml:space="preserve" font-family="AvenirNext-Bold,Avenir Next" font-weight="bold" font-size="33.6" fill="#3D3B38" transform="matrix(1.00, 0.00, -0.00, -1.00, 299.9, 696.3)">N</text><text xml:space="preserve" font-family="AvenirNext-Bold,Avenir Next" font-weight="bold" font-size="33.6" fill="#3D3B38" transform="matrix(1.00, 0.00, -0.00, -1.00, 329.1, 696.3)">C</text><text xml:space="preserve" font-family="AvenirNext-Bold,Avenir Next" font-weight="bold" font-size="33.6" fill="#3D3B38" transform="matrix(1.00, 0.00, -0.00, -1.00, 355.2, 696.3)">H</text><text xml:space="preserve" font-family="AvenirNext-Bold,Avenir Next" font-weight="bold" font-size="33.6" fill="#3D3B38" transform="matrix(1.00, 0.00, -0.00, -1.00, 383.5, 696.3)">I</text><text xml:space="preserve" font-family="AvenirNext-Bold,Avenir Next" font-weight="bold" font-size="33.6" fill="#3D3B38" transform="matrix(1.00, 0.00, -0.00, -1.00, 396.9, 696.3)">L</text><text xml:space="preserve" font-family="AvenirNext-Bold,Avenir Next" font-weight="bold" font-size="33.6" fill="#3D3B38" transform="matrix(1.00, 0.00, -0.00, -1.00, 417.3, 696.3)">A</text><text xml:space="preserve" font-family="AvenirNext-Bold,Avenir Next" font-weight="bold" font-size="33.6" fill="#3D3B38" transform="matrix(1.00, 0.00, -0.00, -1.00, 444.4, 696.3)">D</text><text xml:space="preserve" font-family="AvenirNext-Bold,Avenir Next" font-weight="bold" font-size="33.6" fill="#3D3B38" transform="matrix(1.00, 0.00, -0.00, -1.00, 472.3, 696.3)">A</text><text xml:space="preserve" font-family="AvenirNext-Bold,Avenir Next" font-weight="bold" font-size="33.6" fill="#3D3B38" transform="matrix(1.00, 0.00, -0.00, -1.00, 498.9, 696.3)"> </text><text xml:space="preserve" font-family="AvenirNext-Bold,Avenir Next" font-weight="bold" font-size="33.6" fill="#3D3B38" transform="matrix(1.00, 0.00, -0.00, -1.00, 509.6, 696.3)">W</text><text xml:space="preserve" font-family="AvenirNext-Bold,Avenir Next" font-weight="bold" font-size="33.6" fill="#3D3B38" transform="matrix(1.00, 0.00, -0.00, -1.00, 546.7, 696.3)">I</text><text xml:space="preserve" font-family="AvenirNext-Bold,Avenir Next" font-weight="bold" font-size="33.6" fill="#3D3B38" transform="matrix(1.00, 0.00, -0.00, -1.00, 560.1, 696.3)">T</text><text xml:space="preserve" font-family="AvenirNext-Bold,Avenir Next" font-weight="bold" font-size="33.6" fill="#3D3B38" transform="matrix(1.00, 0.00, -0.00, -1.00, 582.3, 696.3)">H</text><text xml:space="preserve" font-family="AvenirNext-Bold,Avenir Next" font-weight="bold" font-size="33.6" fill="#3D3B38" transform="matrix(1.00, 0.00, -0.00, -1.00, 610.7, 696.3)"> </text><text xml:space="preserve" font-family="AvenirNext-Bold,Avenir Next" font-weight="bold" font-size="33.6" fill="#3D3B38" transform="matrix(1.00, 0.00, -0.00, -1.00, 621.7, 696.3)">B</text><text xml:space="preserve" font-family="AvenirNext-Bold,Avenir Next" font-weight="bold" font-size="33.6" fill="#3D3B38" transform="matrix(1.00, 0.00, -0.00, -1.00, 646.8, 696.3)">E</text><text xml:space="preserve" font-family="AvenirNext-Bold,Avenir Next" font-weight="bold" font-size="33.6" fill="#3D3B38" transform="matrix(1.00, 0.00, -0.00, -1.00, 669.9, 696.3)">T</text><text xml:space="preserve" font-family="AvenirNext-Bold,Avenir Next" font-weight="bold" font-size="33.6" fill="#3D3B38" transform="matrix(1.00, 0.00, -0.00, -1.00, 692.1, 696.3)">T</text><text xml:space="preserve" font-family="AvenirNext-Bold,Avenir Next" font-weight="bold" font-size="33.6" fill="#3D3B38" transform="matrix(1.00, 0.00, -0.00, -1.00, 714.3, 696.3)">E</text><text xml:space="preserve" font-family="AvenirNext-Bold,Avenir Next" font-weight="bold" font-size="33.6" fill="#3D3B38" transform="matrix(1.00, 0.00, -0.00, -1.00, 737.4, 696.3)">R</text><text xml:space="preserve" font-family="AvenirNext-Bold,Avenir Next" font-weight="bold" font-size="33.6" fill="#3D3B38" transform="matrix(1.00, 0.00, -0.00, -1.00, 762.3, 696.3)"> </text><text xml:space="preserve" font-family="AvenirNext-Bold,Avenir Next" font-weight="bold" font-size="33.6" fill="#3D3B38" transform="matrix(1.00, 0.00, -0.00, -1.00, 773.4, 696.3)">L</text><text xml:space="preserve" font-family="AvenirNext-Bold,Avenir Next" font-weight="bold" font-size="33.6" fill="#3D3B38" transform="matrix(1.00, 0.00, -0.00, -1.00, 793.8, 696.3)">A</text><text xml:space="preserve" font-family="AvenirNext-Bold,Avenir Next" font-weight="bold" font-size="33.6" fill="#3D3B38" transform="matrix(1.00, 0.00, -0.00, -1.00, 821.0, 696.3)">B</text><text xml:space="preserve" font-family="AvenirNext-Bold,Avenir Next" font-weight="bold" font-size="33.6" fill="#3D3B38" transform="matrix(1.00, 0.00, -0.00, -1.00, 846.0, 696.3)">E</text><text xml:space="preserve" font-family="AvenirNext-Bold,Avenir Next" font-weight="bold" font-size="33.6" fill="#3D3B38" transform="matrix(1.00, 0.00, -0.00, -1.00, 869.1, 696.3)">L</text><text xml:space="preserve" font-family="AvenirNext-Bold,Avenir Next" font-weight="bold" font-size="33.6" fill="#3D3B38" transform="matrix(1.00, 0.00, -0.00, -1.00, 889.4, 696.3)">S</text><image xlink:href="EE66DE1E0E615A195FC5BA3031F8D9D2.png" width="333.00" height="106.00" transform="matrix(1.00, 0.00, -0.00, -1.00, 319.8, 247.4)" opacity="0.30"></image><g><clipPath id="clip0x6180010af420"><path d="M 323.0 246.0 L 650.0 246.0 L 650.0 146.0 L 323.0 146.0 Z M 323.0 246.4 "></path></clipPath><g clip-path="url(#clip0x6180010af420)"><path d="M 323.0 146.0 L 650.0 146.0 L 650.0 246.0 L 323.0 246.0 Z M 323.0 146.0 " fill="url(#patternP1)"></path></g></g><image xlink:href="4843D63F6279E95E4E45294986B7E939.png" width="305.00" height="29.00" transform="matrix(1.00, 0.00, -0.00, -1.00, 333.0, 232.0)"></image><g><clipPath id="clip0x6000014a2820"><path d="M 314.9 142.2 L 658.1 142.2 L 658.1 248.6 L 314.9 248.6 Z M 314.9 142.2 "></path></clipPath><g clip-path="url(#clip0x6000014a2820)"><text xml:space="preserve" font-family="AvenirNext-Medium,Avenir Next" font-size="30.0" fill="#3D3B38" transform="matrix(1.00, 0.00, -0.00, -1.00, 335.5, 207.4)">T</text><text xml:space="preserve" font-family="AvenirNext-Medium,Avenir Next" font-size="30.0" fill="#3D3B38" transform="matrix(1.00, 0.00, -0.00, -1.00, 352.2, 207.4)">i</text><text xml:space="preserve" font-family="AvenirNext-Medium,Avenir Next" font-size="30.0" fill="#3D3B38" transform="matrix(1.00, 0.00, -0.00, -1.00, 360.0, 207.4)">m</text><text xml:space="preserve" font-family="AvenirNext-Medium,Avenir Next" font-size="30.0" fill="#3D3B38" transform="matrix(1.00, 0.00, -0.00, -1.00, 386.6, 207.4)">e</text><text xml:space="preserve" font-family="AvenirNext-Medium,Avenir Next" font-size="30.0" fill="#3D3B38" transform="matrix(1.00, 0.00, -0.00, -1.00, 403.8, 207.4)">M</text><text xml:space="preserve" font-family="AvenirNext-Medium,Avenir Next" font-size="30.0" fill="#3D3B38" transform="matrix(1.00, 0.00, -0.00, -1.00, 430.9, 207.4)">a</text><text xml:space="preserve" font-family="AvenirNext-Medium,Avenir Next" font-size="30.0" fill="#3D3B38" transform="matrix(1.00, 0.00, -0.00, -1.00, 447.1, 207.4)">c</text><text xml:space="preserve" font-family="AvenirNext-Medium,Avenir Next" font-size="30.0" fill="#3D3B38" transform="matrix(1.00, 0.00, -0.00, -1.00, 462.0, 207.4)">h</text><text xml:space="preserve" font-family="AvenirNext-Medium,Avenir Next" font-size="30.0" fill="#3D3B38" transform="matrix(1.00, 0.00, -0.00, -1.00, 479.5, 207.4)">i</text><text xml:space="preserve" font-family="AvenirNext-Medium,Avenir Next" font-size="30.0" fill="#3D3B38" transform="matrix(1.00, 0.00, -0.00, -1.00, 487.3, 207.4)">n</text><text xml:space="preserve" font-family="AvenirNext-Medium,Avenir Next" font-size="30.0" fill="#3D3B38" transform="matrix(1.00, 0.00, -0.00, -1.00, 504.7, 207.4)">e</text><text xml:space="preserve" font-family="AvenirNext-Medium,Avenir Next" font-size="30.0" fill="#3D3B38" transform="matrix(1.00, 0.00, -0.00, -1.00, 521.9, 207.4)">S</text><text xml:space="preserve" font-family="AvenirNext-Medium,Avenir Next" font-size="30.0" fill="#3D3B38" transform="matrix(1.00, 0.00, -0.00, -1.00, 539.0, 207.4)">h</text><text xml:space="preserve" font-family="AvenirNext-Medium,Avenir Next" font-size="30.0" fill="#3D3B38" transform="matrix(1.00, 0.00, -0.00, -1.00, 556.5, 207.4)">o</text><text xml:space="preserve" font-family="AvenirNext-Medium,Avenir Next" font-size="30.0" fill="#3D3B38" transform="matrix(1.00, 0.00, -0.00, -1.00, 574.8, 207.4)">w</text><text xml:space="preserve" font-family="AvenirNext-Medium,Avenir Next" font-size="30.0" fill="#3D3B38" transform="matrix(1.00, 0.00, -0.00, -1.00, 598.0, 207.4)">C</text><text xml:space="preserve" font-family="AvenirNext-Medium,Avenir Next" font-size="30.0" fill="#3D3B38" transform="matrix(1.00, 0.00, -0.00, -1.00, 618.9, 207.4)">o</text></g></g><image xlink:href="8A9090861D5EF1D4FEFF0BF7B9F30508.png" width="102.00" height="29.00" transform="matrix(1.00, 0.00, -0.00, -1.00, 436.0, 191.0)"></image><g><clipPath id="clip0x6000014a2fa0"><path d="M 314.9 142.2 L 658.1 142.2 L 658.1 248.6 L 314.9 248.6 Z M 314.9 142.2 "></path></clipPath><g clip-path="url(#clip0x6000014a2fa0)"><text xml:space="preserve" font-family="AvenirNext-Medium,Avenir Next" font-size="30.0" fill="#3D3B38" transform="matrix(1.00, 0.00, -0.00, -1.00, 436.5, 166.4)">n</text><text xml:space="preserve" font-family="AvenirNext-Medium,Avenir Next" font-size="30.0" fill="#3D3B38" transform="matrix(1.00, 0.00, -0.00, -1.00, 454.0, 166.4)">t</text><text xml:space="preserve" font-family="AvenirNext-Medium,Avenir Next" font-size="30.0" fill="#3D3B38" transform="matrix(1.00, 0.00, -0.00, -1.00, 463.9, 166.4)">r</text><text xml:space="preserve" font-family="AvenirNext-Medium,Avenir Next" font-size="30.0" fill="#3D3B38" transform="matrix(1.00, 0.00, -0.00, -1.00, 474.2, 166.4)">o</text><text xml:space="preserve" font-family="AvenirNext-Medium,Avenir Next" font-size="30.0" fill="#3D3B38" transform="matrix(1.00, 0.00, -0.00, -1.00, 492.5, 166.4)">l</text><text xml:space="preserve" font-family="AvenirNext-Medium,Avenir Next" font-size="30.0" fill="#3D3B38" transform="matrix(1.00, 0.00, -0.00, -1.00, 500.3, 166.4)">l</text><text xml:space="preserve" font-family="AvenirNext-Medium,Avenir Next" font-size="30.0" fill="#3D3B38" transform="matrix(1.00, 0.00, -0.00, -1.00, 508.1, 166.4)">e</text><text xml:space="preserve" font-family="AvenirNext-Medium,Avenir Next" font-size="30.0" fill="#3D3B38" transform="matrix(1.00, 0.00, -0.00, -1.00, 525.3, 166.4)">r</text></g></g><image xlink:href="497389CBC124D9EC952190ED610CB18E.png" width="288.00" height="104.00" transform="matrix(1.00, 0.00, -0.00, -1.00, 706.8, 250.3)" opacity="0.20"></image><g><clipPath id="clip0x6000014a35a0"><path d="M 709.0 246.0 L 993.0 246.0 L 993.0 146.0 L 709.0 146.0 Z M 709.5 246.4 "></path></clipPath><g clip-path="url(#clip0x6000014a35a0)"><path d="M 709.0 146.0 L 993.0 146.0 L 993.0 246.0 L 709.0 246.0 Z M 709.0 146.0 " fill="url(#patternP2)"></path></g></g><image xlink:href="9FB60710C134BE7C20187AF7F0964E35.png" width="269.00" height="29.00" transform="matrix(1.00, 0.00, -0.00, -1.00, 717.0, 232.0)"></image><g><clipPath id="clip0x6000014a37e0"><path d="M 701.4 142.2 L 1001.4 142.2 L 1001.4 248.6 L 701.4 248.6 Z M 701.4 142.2 "></path></clipPath><g clip-path="url(#clip0x6000014a37e0)"><text xml:space="preserve" font-family="AvenirNext-Medium,Avenir Next" font-size="30.0" fill="#3D3B38" transform="matrix(1.00, 0.00, -0.00, -1.00, 718.8, 207.4)">T</text><text xml:space="preserve" font-family="AvenirNext-Medium,Avenir Next" font-size="30.0" fill="#3D3B38" transform="matrix(1.00, 0.00, -0.00, -1.00, 735.5, 207.4)">i</text><text xml:space="preserve" font-family="AvenirNext-Medium,Avenir Next" font-size="30.0" fill="#3D3B38" transform="matrix(1.00, 0.00, -0.00, -1.00, 743.3, 207.4)">m</text><text xml:space="preserve" font-family="AvenirNext-Medium,Avenir Next" font-size="30.0" fill="#3D3B38" transform="matrix(1.00, 0.00, -0.00, -1.00, 769.9, 207.4)">e</text><text xml:space="preserve" font-family="AvenirNext-Medium,Avenir Next" font-size="30.0" fill="#3D3B38" transform="matrix(1.00, 0.00, -0.00, -1.00, 787.1, 207.4)">M</text><text xml:space="preserve" font-family="AvenirNext-Medium,Avenir Next" font-size="30.0" fill="#3D3B38" transform="matrix(1.00, 0.00, -0.00, -1.00, 814.2, 207.4)">a</text><text xml:space="preserve" font-family="AvenirNext-Medium,Avenir Next" font-size="30.0" fill="#3D3B38" transform="matrix(1.00, 0.00, -0.00, -1.00, 830.5, 207.4)">c</text><text xml:space="preserve" font-family="AvenirNext-Medium,Avenir Next" font-size="30.0" fill="#3D3B38" transform="matrix(1.00, 0.00, -0.00, -1.00, 845.3, 207.4)">h</text><text xml:space="preserve" font-family="AvenirNext-Medium,Avenir Next" font-size="30.0" fill="#3D3B38" transform="matrix(1.00, 0.00, -0.00, -1.00, 862.8, 207.4)">i</text><text xml:space="preserve" font-family="AvenirNext-Medium,Avenir Next" font-size="30.0" fill="#3D3B38" transform="matrix(1.00, 0.00, -0.00, -1.00, 870.6, 207.4)">n</text><text xml:space="preserve" font-family="AvenirNext-Medium,Avenir Next" font-size="30.0" fill="#3D3B38" transform="matrix(1.00, 0.00, -0.00, -1.00, 888.0, 207.4)">e</text><text xml:space="preserve" font-family="AvenirNext-Medium,Avenir Next" font-size="30.0" fill="#3D3B38" transform="matrix(1.00, 0.00, -0.00, -1.00, 905.2, 207.4)">M</text><text xml:space="preserve" font-family="AvenirNext-Medium,Avenir Next" font-size="30.0" fill="#3D3B38" transform="matrix(1.00, 0.00, -0.00, -1.00, 932.3, 207.4)">a</text><text xml:space="preserve" font-family="AvenirNext-Medium,Avenir Next" font-size="30.0" fill="#3D3B38" transform="matrix(1.00, 0.00, -0.00, -1.00, 948.6, 207.4)">i</text><text xml:space="preserve" font-family="AvenirNext-Medium,Avenir Next" font-size="30.0" fill="#3D3B38" transform="matrix(1.00, 0.00, -0.00, -1.00, 956.3, 207.4)">n</text><text xml:space="preserve" font-family="AvenirNext-Medium,Avenir Next" font-size="30.0" fill="#3D3B38" transform="matrix(1.00, 0.00, -0.00, -1.00, 973.8, 207.4)">t</text></g></g><image xlink:href="0F5FCB2847FAE719DF6E5B7153FC0A44.png" width="202.00" height="28.00" transform="matrix(1.00, 0.00, -0.00, -1.00, 750.0, 190.0)"></image><g><clipPath id="clip0x6180010af660"><path d="M 701.4 142.2 L 1001.4 142.2 L 1001.4 248.6 L 701.4 248.6 Z M 701.4 142.2 "></path></clipPath><g clip-path="url(#clip0x6180010af660)"><text xml:space="preserve" font-family="AvenirNext-Medium,Avenir Next" font-size="30.0" fill="#3D3B38" transform="matrix(1.00, 0.00, -0.00, -1.00, 751.0, 166.4)">e</text><text xml:space="preserve" font-family="AvenirNext-Medium,Avenir Next" font-size="30.0" fill="#3D3B38" transform="matrix(1.00, 0.00, -0.00, -1.00, 768.2, 166.4)">n</text><text xml:space="preserve" font-family="AvenirNext-Medium,Avenir Next" font-size="30.0" fill="#3D3B38" transform="matrix(1.00, 0.00, -0.00, -1.00, 785.7, 166.4)">a</text><text xml:space="preserve" font-family="AvenirNext-Medium,Avenir Next" font-size="30.0" fill="#3D3B38" transform="matrix(1.00, 0.00, -0.00, -1.00, 802.0, 166.4)">n</text><text xml:space="preserve" font-family="AvenirNext-Medium,Avenir Next" font-size="30.0" fill="#3D3B38" transform="matrix(1.00, 0.00, -0.00, -1.00, 819.4, 166.4)">c</text><text xml:space="preserve" font-family="AvenirNext-Medium,Avenir Next" font-size="30.0" fill="#3D3B38" transform="matrix(1.00, 0.00, -0.00, -1.00, 834.2, 166.4)">e</text><text xml:space="preserve" font-family="AvenirNext-Medium,Avenir Next" font-size="30.0" fill="#3D3B38" transform="matrix(1.00, 0.00, -0.00, -1.00, 851.4, 166.4)">S</text><text xml:space="preserve" font-family="AvenirNext-Medium,Avenir Next" font-size="30.0" fill="#3D3B38" transform="matrix(1.00, 0.00, -0.00, -1.00, 868.5, 166.4)">e</text><text xml:space="preserve" font-family="AvenirNext-Medium,Avenir Next" font-size="30.0" fill="#3D3B38" transform="matrix(1.00, 0.00, -0.00, -1.00, 885.7, 166.4)">r</text><text xml:space="preserve" font-family="AvenirNext-Medium,Avenir Next" font-size="30.0" fill="#3D3B38" transform="matrix(1.00, 0.00, -0.00, -1.00, 896.5, 166.4)">v</text><text xml:space="preserve" font-family="AvenirNext-Medium,Avenir Next" font-size="30.0" fill="#3D3B38" transform="matrix(1.00, 0.00, -0.00, -1.00, 911.7, 166.4)">i</text><text xml:space="preserve" font-family="AvenirNext-Medium,Avenir Next" font-size="30.0" fill="#3D3B38" transform="matrix(1.00, 0.00, -0.00, -1.00, 919.4, 166.4)">c</text><text xml:space="preserve" font-family="AvenirNext-Medium,Avenir Next" font-size="30.0" fill="#3D3B38" transform="matrix(1.00, 0.00, -0.00, -1.00, 934.3, 166.4)">e</text></g></g><image xlink:href="6C44ADEC40D4615FFE9CE51614736741.png" width="419.00" height="106.00" transform="matrix(1.00, 0.00, -0.00, -1.00, 327.8, 622.6)" opacity="0.30"></image><g><clipPath id="clip0x6000014a3fc0"><path d="M 331.0 622.0 L 744.0 622.0 L 744.0 522.0 L 331.0 522.0 Z M 331.0 621.6 "></path></clipPath><g clip-path="url(#clip0x6000014a3fc0)"><path d="M 331.0 522.0 L 744.0 522.0 L 744.0 622.0 L 331.0 622.0 Z M 331.0 522.0 " fill="url(#patternP3)"></path></g></g><image xlink:href="EB8DC36302B6418719C70C8DE01BC058.png" width="339.00" height="28.00" transform="matrix(1.00, 0.00, -0.00, -1.00, 368.0, 586.0)"></image><g><clipPath id="clip0x6000014a4260"><path d="M 322.9 521.6 L 752.8 521.6 L 752.8 621.6 L 322.9 621.6 Z M 322.9 521.6 "></path></clipPath><g clip-path="url(#clip0x6000014a4260)"><text xml:space="preserve" font-family="AvenirNext-Medium,Avenir Next" font-size="30.0" fill="#3D3B38" transform="matrix(1.00, 0.00, -0.00, -1.00, 370.2, 561.6)">T</text><text xml:space="preserve" font-family="AvenirNext-Medium,Avenir Next" font-size="30.0" fill="#3D3B38" transform="matrix(1.00, 0.00, -0.00, -1.00, 386.9, 561.6)">i</text><text xml:space="preserve" font-family="AvenirNext-Medium,Avenir Next" font-size="30.0" fill="#3D3B38" transform="matrix(1.00, 0.00, -0.00, -1.00, 394.7, 561.6)">m</text><text xml:space="preserve" font-family="AvenirNext-Medium,Avenir Next" font-size="30.0" fill="#3D3B38" transform="matrix(1.00, 0.00, -0.00, -1.00, 421.3, 561.6)">e</text><text xml:space="preserve" font-family="AvenirNext-Medium,Avenir Next" font-size="30.0" fill="#3D3B38" transform="matrix(1.00, 0.00, -0.00, -1.00, 438.5, 561.6)">M</text><text xml:space="preserve" font-family="AvenirNext-Medium,Avenir Next" font-size="30.0" fill="#3D3B38" transform="matrix(1.00, 0.00, -0.00, -1.00, 465.6, 561.6)">a</text><text xml:space="preserve" font-family="AvenirNext-Medium,Avenir Next" font-size="30.0" fill="#3D3B38" transform="matrix(1.00, 0.00, -0.00, -1.00, 481.9, 561.6)">c</text><text xml:space="preserve" font-family="AvenirNext-Medium,Avenir Next" font-size="30.0" fill="#3D3B38" transform="matrix(1.00, 0.00, -0.00, -1.00, 496.7, 561.6)">h</text><text xml:space="preserve" font-family="AvenirNext-Medium,Avenir Next" font-size="30.0" fill="#3D3B38" transform="matrix(1.00, 0.00, -0.00, -1.00, 514.2, 561.6)">i</text><text xml:space="preserve" font-family="AvenirNext-Medium,Avenir Next" font-size="30.0" fill="#3D3B38" transform="matrix(1.00, 0.00, -0.00, -1.00, 522.0, 561.6)">n</text><text xml:space="preserve" font-family="AvenirNext-Medium,Avenir Next" font-size="30.0" fill="#3D3B38" transform="matrix(1.00, 0.00, -0.00, -1.00, 539.4, 561.6)">e</text><text xml:space="preserve" font-family="AvenirNext-Medium,Avenir Next" font-size="30.0" fill="#3D3B38" transform="matrix(1.00, 0.00, -0.00, -1.00, 556.6, 561.6)">D</text><text xml:space="preserve" font-family="AvenirNext-Medium,Avenir Next" font-size="30.0" fill="#3D3B38" transform="matrix(1.00, 0.00, -0.00, -1.00, 579.4, 561.6)">e</text><text xml:space="preserve" font-family="AvenirNext-Medium,Avenir Next" font-size="30.0" fill="#3D3B38" transform="matrix(1.00, 0.00, -0.00, -1.00, 596.6, 561.6)">t</text><text xml:space="preserve" font-family="AvenirNext-Medium,Avenir Next" font-size="30.0" fill="#3D3B38" transform="matrix(1.00, 0.00, -0.00, -1.00, 606.5, 561.6)">a</text><text xml:space="preserve" font-family="AvenirNext-Medium,Avenir Next" font-size="30.0" fill="#3D3B38" transform="matrix(1.00, 0.00, -0.00, -1.00, 622.8, 561.6)">i</text><text xml:space="preserve" font-family="AvenirNext-Medium,Avenir Next" font-size="30.0" fill="#3D3B38" transform="matrix(1.00, 0.00, -0.00, -1.00, 630.5, 561.6)">l</text><text xml:space="preserve" font-family="AvenirNext-Medium,Avenir Next" font-size="30.0" fill="#3D3B38" transform="matrix(1.00, 0.00, -0.00, -1.00, 638.3, 561.6)">V</text><text xml:space="preserve" font-family="AvenirNext-Medium,Avenir Next" font-size="30.0" fill="#3D3B38" transform="matrix(1.00, 0.00, -0.00, -1.00, 657.1, 561.6)">i</text><text xml:space="preserve" font-family="AvenirNext-Medium,Avenir Next" font-size="30.0" fill="#3D3B38" transform="matrix(1.00, 0.00, -0.00, -1.00, 664.8, 561.6)">e</text><text xml:space="preserve" font-family="AvenirNext-Medium,Avenir Next" font-size="30.0" fill="#3D3B38" transform="matrix(1.00, 0.00, -0.00, -1.00, 682.0, 561.6)">w</text></g></g><image xlink:href="../../C8C3FE8A-13BF-40E3-ADB1-C4742D985422/assets/9E63016931D42DB9E9AAB90788107E4D.png" width="223.00" height="106.00" transform="matrix(1.00, 0.00, -0.00, -1.00, 53.3, 341.0)" opacity="0.30"></image><g><clipPath id="clip0x6180010aff60"><path d="M 56.0 340.0 L 273.0 340.0 L 273.0 240.0 L 56.0 240.0 Z M 56.5 340.0 "></path></clipPath><g clip-path="url(#clip0x6180010aff60)"><image xlink:href="../../C8C3FE8A-13BF-40E3-ADB1-C4742D985422/assets/9D5DDAF9D089C21A4E2B9F2157D4D29D.png" width="500.00" height="500.00" transform="matrix(0.50, 0.00, -0.00, -0.50, 56.0, 340.0)"></image></g></g><image xlink:href="CAADB80B668AA3FA039F486844B0E835.png" width="197.00" height="28.00" transform="matrix(1.00, 0.00, -0.00, -1.00, 66.0, 325.0)"></image><g><clipPath id="clip0x6180010b0020"><path d="M 48.4 235.8 L 281.7 235.8 L 281.7 342.3 L 48.4 342.3 Z M 48.4 235.8 "></path></clipPath><g clip-path="url(#clip0x6180010b0020)"><text xml:space="preserve" font-family="AvenirNext-Medium,Avenir Next" font-size="30.0" fill="#3D3B38" transform="matrix(1.00, 0.00, -0.00, -1.00, 67.9, 301.0)">T</text><text xml:space="preserve" font-family="AvenirNext-Medium,Avenir Next" font-size="30.0" fill="#3D3B38" transform="matrix(1.00, 0.00, -0.00, -1.00, 84.7, 301.0)">i</text><text xml:space="preserve" font-family="AvenirNext-Medium,Avenir Next" font-size="30.0" fill="#3D3B38" transform="matrix(1.00, 0.00, -0.00, -1.00, 92.4, 301.0)">m</text><text xml:space="preserve" font-family="AvenirNext-Medium,Avenir Next" font-size="30.0" fill="#3D3B38" transform="matrix(1.00, 0.00, -0.00, -1.00, 119.0, 301.0)">e</text><text xml:space="preserve" font-family="AvenirNext-Medium,Avenir Next" font-size="30.0" fill="#3D3B38" transform="matrix(1.00, 0.00, -0.00, -1.00, 136.2, 301.0)"> </text><text xml:space="preserve" font-family="AvenirNext-Medium,Avenir Next" font-size="30.0" fill="#3D3B38" transform="matrix(1.00, 0.00, -0.00, -1.00, 143.7, 301.0)">M</text><text xml:space="preserve" font-family="AvenirNext-Medium,Avenir Next" font-size="30.0" fill="#3D3B38" transform="matrix(1.00, 0.00, -0.00, -1.00, 170.8, 301.0)">a</text><text xml:space="preserve" font-family="AvenirNext-Medium,Avenir Next" font-size="30.0" fill="#3D3B38" transform="matrix(1.00, 0.00, -0.00, -1.00, 187.1, 301.0)">c</text><text xml:space="preserve" font-family="AvenirNext-Medium,Avenir Next" font-size="30.0" fill="#3D3B38" transform="matrix(1.00, 0.00, -0.00, -1.00, 201.9, 301.0)">h</text><text xml:space="preserve" font-family="AvenirNext-Medium,Avenir Next" font-size="30.0" fill="#3D3B38" transform="matrix(1.00, 0.00, -0.00, -1.00, 219.4, 301.0)">i</text><text xml:space="preserve" font-family="AvenirNext-Medium,Avenir Next" font-size="30.0" fill="#3D3B38" transform="matrix(1.00, 0.00, -0.00, -1.00, 227.2, 301.0)">n</text><text xml:space="preserve" font-family="AvenirNext-Medium,Avenir Next" font-size="30.0" fill="#3D3B38" transform="matrix(1.00, 0.00, -0.00, -1.00, 244.6, 301.0)">e</text><text xml:space="preserve" font-family="AvenirNext-Medium,Avenir Next" font-size="30.0" fill="#3D3B38" transform="matrix(1.00, 0.00, -0.00, -1.00, 261.8, 301.0)"> </text></g></g><image xlink:href="20A5544507DEFDF2B9D2F0328A5852FE.png" width="150.00" height="34.00" transform="matrix(1.00, 0.00, -0.00, -1.00, 91.0, 283.0)"></image><g><clipPath id="clip0x6080012bdfa0"><path d="M 48.4 235.8 L 281.7 235.8 L 281.7 342.3 L 48.4 342.3 Z M 48.4 235.8 "></path></clipPath><g clip-path="url(#clip0x6080012bdfa0)"><text xml:space="preserve" font-family="AvenirNext-Medium,Avenir Next" font-size="30.0" fill="#3D3B38" transform="matrix(1.00, 0.00, -0.00, -1.00, 91.0, 260.0)">R</text><text xml:space="preserve" font-family="AvenirNext-Medium,Avenir Next" font-size="30.0" fill="#3D3B38" transform="matrix(1.00, 0.00, -0.00, -1.00, 109.0, 260.0)">e</text><text xml:space="preserve" font-family="AvenirNext-Medium,Avenir Next" font-size="30.0" fill="#3D3B38" transform="matrix(1.00, 0.00, -0.00, -1.00, 126.2, 260.0)">p</text><text xml:space="preserve" font-family="AvenirNext-Medium,Avenir Next" font-size="30.0" fill="#3D3B38" transform="matrix(1.00, 0.00, -0.00, -1.00, 145.3, 260.0)">o</text><text xml:space="preserve" font-family="AvenirNext-Medium,Avenir Next" font-size="30.0" fill="#3D3B38" transform="matrix(1.00, 0.00, -0.00, -1.00, 163.6, 260.0)">s</text><text xml:space="preserve" font-family="AvenirNext-Medium,Avenir Next" font-size="30.0" fill="#3D3B38" transform="matrix(1.00, 0.00, -0.00, -1.00, 176.9, 260.0)">i</text><text xml:space="preserve" font-family="AvenirNext-Medium,Avenir Next" font-size="30.0" fill="#3D3B38" transform="matrix(1.00, 0.00, -0.00, -1.00, 184.6, 260.0)">t</text><text xml:space="preserve" font-family="AvenirNext-Medium,Avenir Next" font-size="30.0" fill="#3D3B38" transform="matrix(1.00, 0.00, -0.00, -1.00, 194.5, 260.0)">o</text><text xml:space="preserve" font-family="AvenirNext-Medium,Avenir Next" font-size="30.0" fill="#3D3B38" transform="matrix(1.00, 0.00, -0.00, -1.00, 212.8, 260.0)">r</text><text xml:space="preserve" font-family="AvenirNext-Medium,Avenir Next" font-size="30.0" fill="#3D3B38" transform="matrix(1.00, 0.00, -0.00, -1.00, 223.7, 260.0)">y</text></g></g><image xlink:href="78B0BC7845CA66A403E5F83C820B1D93.png" width="416.00" height="106.00" transform="matrix(1.00, 0.00, -0.00, -1.00, 329.3, 435.0)" opacity="0.30"></image><g><clipPath id="clip0x6100012aaaa0"><path d="M 333.0 434.0 L 743.0 434.0 L 743.0 334.0 L 333.0 334.0 Z M 332.5 434.0 "></path></clipPath><g clip-path="url(#clip0x6100012aaaa0)"><path d="M 333.0 334.0 L 743.0 334.0 L 743.0 434.0 L 333.0 434.0 Z M 333.0 334.0 " fill="url(#patternP4)"></path></g></g><image xlink:href="BB0C4CBE89092FDA9242820614A2910E.png" width="374.00" height="28.00" transform="matrix(1.00, 0.00, -0.00, -1.00, 351.0, 398.0)"></image><g><clipPath id="clip0x6000014a4ce0"><path d="M 324.4 334.0 L 751.3 334.0 L 751.3 434.0 L 324.4 434.0 Z M 324.4 334.0 "></path></clipPath><g clip-path="url(#clip0x6000014a4ce0)"><text xml:space="preserve" font-family="AvenirNext-Medium,Avenir Next" font-size="30.0" fill="#3D3B38" transform="matrix(1.00, 0.00, -0.00, -1.00, 352.7, 374.0)">s</text><text xml:space="preserve" font-family="AvenirNext-Medium,Avenir Next" font-size="30.0" fill="#3D3B38" transform="matrix(1.00, 0.00, -0.00, -1.00, 366.0, 374.0)">c</text><text xml:space="preserve" font-family="AvenirNext-Medium,Avenir Next" font-size="30.0" fill="#3D3B38" transform="matrix(1.00, 0.00, -0.00, -1.00, 380.8, 374.0)">i</text><text xml:space="preserve" font-family="AvenirNext-Medium,Avenir Next" font-size="30.0" fill="#3D3B38" transform="matrix(1.00, 0.00, -0.00, -1.00, 388.6, 374.0)">e</text><text xml:space="preserve" font-family="AvenirNext-Medium,Avenir Next" font-size="30.0" fill="#3D3B38" transform="matrix(1.00, 0.00, -0.00, -1.00, 405.8, 374.0)">n</text><text xml:space="preserve" font-family="AvenirNext-Medium,Avenir Next" font-size="30.0" fill="#3D3B38" transform="matrix(1.00, 0.00, -0.00, -1.00, 423.3, 374.0)">c</text><text xml:space="preserve" font-family="AvenirNext-Medium,Avenir Next" font-size="30.0" fill="#3D3B38" transform="matrix(1.00, 0.00, -0.00, -1.00, 438.1, 374.0)">e</text><text xml:space="preserve" font-family="AvenirNext-Medium,Avenir Next" font-size="30.0" fill="#3D3B38" transform="matrix(1.00, 0.00, -0.00, -1.00, 455.3, 374.0)">.</text><text xml:space="preserve" font-family="AvenirNext-Medium,Avenir Next" font-size="30.0" fill="#3D3B38" transform="matrix(1.00, 0.00, -0.00, -1.00, 463.1, 374.0)">t</text><text xml:space="preserve" font-family="AvenirNext-Medium,Avenir Next" font-size="30.0" fill="#3D3B38" transform="matrix(1.00, 0.00, -0.00, -1.00, 472.9, 374.0)">i</text><text xml:space="preserve" font-family="AvenirNext-Medium,Avenir Next" font-size="30.0" fill="#3D3B38" transform="matrix(1.00, 0.00, -0.00, -1.00, 480.7, 374.0)">m</text><text xml:space="preserve" font-family="AvenirNext-Medium,Avenir Next" font-size="30.0" fill="#3D3B38" transform="matrix(1.00, 0.00, -0.00, -1.00, 507.3, 374.0)">e</text><text xml:space="preserve" font-family="AvenirNext-Medium,Avenir Next" font-size="30.0" fill="#3D3B38" transform="matrix(1.00, 0.00, -0.00, -1.00, 524.5, 374.0)">M</text><text xml:space="preserve" font-family="AvenirNext-Medium,Avenir Next" font-size="30.0" fill="#3D3B38" transform="matrix(1.00, 0.00, -0.00, -1.00, 551.6, 374.0)">a</text><text xml:space="preserve" font-family="AvenirNext-Medium,Avenir Next" font-size="30.0" fill="#3D3B38" transform="matrix(1.00, 0.00, -0.00, -1.00, 567.9, 374.0)">c</text><text xml:space="preserve" font-family="AvenirNext-Medium,Avenir Next" font-size="30.0" fill="#3D3B38" transform="matrix(1.00, 0.00, -0.00, -1.00, 582.7, 374.0)">h</text><text xml:space="preserve" font-family="AvenirNext-Medium,Avenir Next" font-size="30.0" fill="#3D3B38" transform="matrix(1.00, 0.00, -0.00, -1.00, 600.2, 374.0)">i</text><text xml:space="preserve" font-family="AvenirNext-Medium,Avenir Next" font-size="30.0" fill="#3D3B38" transform="matrix(1.00, 0.00, -0.00, -1.00, 608.0, 374.0)">n</text><text xml:space="preserve" font-family="AvenirNext-Medium,Avenir Next" font-size="30.0" fill="#3D3B38" transform="matrix(1.00, 0.00, -0.00, -1.00, 625.4, 374.0)">e</text><text xml:space="preserve" font-family="AvenirNext-Medium,Avenir Next" font-size="30.0" fill="#3D3B38" transform="matrix(1.00, 0.00, -0.00, -1.00, 642.6, 374.0)">.</text><text xml:space="preserve" font-family="AvenirNext-Medium,Avenir Next" font-size="30.0" fill="#3D3B38" transform="matrix(1.00, 0.00, -0.00, -1.00, 650.4, 374.0)">s</text><text xml:space="preserve" font-family="AvenirNext-Medium,Avenir Next" font-size="30.0" fill="#3D3B38" transform="matrix(1.00, 0.00, -0.00, -1.00, 663.7, 374.0)">h</text><text xml:space="preserve" font-family="AvenirNext-Medium,Avenir Next" font-size="30.0" fill="#3D3B38" transform="matrix(1.00, 0.00, -0.00, -1.00, 681.3, 374.0)">o</text><text xml:space="preserve" font-family="AvenirNext-Medium,Avenir Next" font-size="30.0" fill="#3D3B38" transform="matrix(1.00, 0.00, -0.00, -1.00, 699.6, 374.0)">w</text></g></g><image xlink:href="../../C8C3FE8A-13BF-40E3-ADB1-C4742D985422/assets/98D7586CDDD2BA9DAC29856E2E693F90.png" width="82.00" height="17.00" transform="matrix(0.00, -1.00, -1.01, 0.00, 380.6, 516.7)" opacity="0.72"></image><g opacity="0.90"><g><clipPath id="clip0x6180010b0b00"><path d="M 0.0 0.0 L 1024.0 0.0 L 1024.0 768.0 L 0.0 768.0 Z M 0.0 0.0 "></path></clipPath><g clip-path="url(#clip0x6180010b0b00)"><path d="M 11.7 -0.4 L 13.2 -0.4 L 77.7 -0.4 " fill="none" stroke="#565450" stroke-width="3.00" transform="matrix(0.00, -1.00, -1.00, 0.00, 372.1, 516.7)"></path><path d="M 379.1 503.5 L 372.5 516.7 L 365.9 503.5 Z M 379.1 503.5 " fill="#565450"></path></g></g></g><image xlink:href="../../C8C3FE8A-13BF-40E3-ADB1-C4742D985422/assets/49991233B7338B0ED809FF9080EB702C.png" width="93.00" height="17.00" transform="matrix(-0.50, -0.87, -0.88, 0.51, 332.9, 374.3)" opacity="0.72"></image><g opacity="0.90"><g><clipPath id="clip0x6180010b0f20"><path d="M 0.0 0.0 L 1024.0 0.0 L 1024.0 768.0 L 0.0 768.0 Z M 0.0 0.0 "></path></clipPath><g clip-path="url(#clip0x6180010b0f20)"><path d="M 0.0 0.0 L 75.8 0.0 L 77.3 0.0 " fill="none" stroke="#565450" stroke-width="3.00" transform="matrix(-0.50, -0.87, -0.87, 0.50, 324.5, 378.9)"></path><path d="M 280.9 316.5 L 280.0 301.8 L 292.3 309.9 Z M 280.9 316.5 " fill="#565450"></path></g></g></g><image xlink:href="../../C8C3FE8A-13BF-40E3-ADB1-C4742D985422/assets/6596F690DD218CC5AF03F3C629DF21F9.png" width="90.00" height="17.00" transform="matrix(0.00, -1.00, -1.01, 0.00, 380.3, 333.3)" opacity="0.72"></image><g opacity="0.90"><g><clipPath id="clip0x6180010b1340"><path d="M 0.0 0.0 L 1024.0 0.0 L 1024.0 768.0 L 0.0 768.0 Z M 0.0 0.0 "></path></clipPath><g clip-path="url(#clip0x6180010b1340)"><path d="M 0.3 0.2 L 73.1 0.2 L 74.3 0.2 " fill="none" stroke="#565450" stroke-width="3.00" transform="matrix(0.00, -1.00, -1.00, 0.00, 371.7, 333.3)"></path><path d="M 364.9 260.5 L 371.5 247.3 L 378.1 260.5 Z M 364.9 260.5 " fill="#565450"></path></g></g></g><image xlink:href="../../C8C3FE8A-13BF-40E3-ADB1-C4742D985422/assets/995D38CFAFFA7EE39F77C9A460889948.png" width="53.00" height="17.00" transform="matrix(-0.70, 0.70, 0.72, 0.72, 319.6, 212.0)" opacity="0.72"></image><g opacity="0.90"><g><clipPath id="clip0x6180010b1760"><path d="M 0.0 0.0 L 1024.0 0.0 L 1024.0 768.0 L 0.0 768.0 Z M 0.0 0.0 "></path></clipPath><g clip-path="url(#clip0x6180010b1760)"><path d="M 0.0 0.0 L 35.3 0.0 L 36.8 0.0 " fill="none" stroke="#565450" stroke-width="3.00" transform="matrix(-0.71, 0.71, 0.71, 0.71, 324.3, 221.4)"></path><path d="M 304.0 251.1 L 290.0 255.8 L 294.7 241.8 Z M 304.0 251.1 " fill="#565450"></path></g></g></g><image xlink:href="5CC089B0C053EF265D9CC875F73A79ED.png" width="286.00" height="17.00" transform="matrix(0.00, -1.00, -1.01, 0.00, 637.9, 516.7)" opacity="0.72"></image><g opacity="0.90"><g><clipPath id="clip0x6000014a58e0"><path d="M 0.0 0.0 L 1024.0 0.0 L 1024.0 768.0 L 0.0 768.0 Z M 0.0 0.0 "></path></clipPath><g clip-path="url(#clip0x6000014a58e0)"><path d="M 11.7 -0.2 L 13.2 -0.2 L 269.1 -0.2 L 270.7 -0.2 " fill="none" stroke="#565450" stroke-width="3.00" transform="matrix(0.00, -1.00, -1.00, 0.00, 629.3, 516.7)"></path><path d="M 622.9 247.5 L 629.5 234.3 L 636.1 247.5 Z M 622.9 247.5 " fill="#565450"></path><path d="M 636.1 503.5 L 629.5 516.7 L 622.9 503.5 Z M 636.1 503.5 " fill="#565450"></path></g></g></g><image xlink:href="DA43CED1E5F8E11A2F33CEEF6B5715FE.png" width="63.00" height="17.00" transform="matrix(1.00, 0.00, -0.00, -1.01, 647.1, 214.5)" opacity="0.72"></image><g opacity="0.90"><g><clipPath id="clip0x6000014a5d60"><path d="M 0.0 0.0 L 1024.0 0.0 L 1024.0 768.0 L 0.0 768.0 Z M 0.0 0.0 "></path></clipPath><g clip-path="url(#clip0x6000014a5d60)"><path d="M -0.2 0.4 L 45.6 0.4 L 46.8 0.4 " fill="none" stroke="#565450" stroke-width="3.00" transform="matrix(1.00, 0.00, 0.00, -1.00, 649.2, 207.9)"></path><path d="M 694.5 200.9 L 707.7 207.5 L 694.5 214.1 Z M 694.5 200.9 " fill="#565450"></path></g></g></g><image xlink:href="../../C8C3FE8A-13BF-40E3-ADB1-C4742D985422/assets/49F577873E1CDA267FD6857C252C0EAC.png" width="242.00" height="256.00" transform="matrix(1.00, 0.00, -0.00, -1.00, 43.6, 659.0)" opacity="0.30"></image><g><clipPath id="clip0x6100012a8820"><path d="M 164.9 658.0 L 181.2 641.9 L 201.4 651.9 L 212.1 631.3 L 234.3 634.2 L 238.5 611.0 L 260.4 606.5 L 257.6 583.1 L 277.1 571.6 L 267.7 550.3 L 282.9 533.0 L 267.7 515.7 L 277.1 494.4 L 257.6 482.9 L 260.4 459.5 L 238.5 455.0 L 234.3 431.8 L 212.1 434.7 L 201.4 414.1 L 181.2 424.1 L 164.9 408.0 L 148.6 424.1 L 128.4 414.1 L 117.6 434.7 L 95.5 431.8 L 91.3 455.0 L 69.4 459.5 L 72.1 482.9 L 52.6 494.4 L 62.1 515.7 L 46.9 533.0 L 62.1 550.3 L 52.6 571.6 L 72.1 583.1 L 69.4 606.5 L 91.3 611.0 L 95.5 634.2 L 117.6 631.3 L 128.4 651.9 L 148.6 641.9 Z M 164.9 658.0 "></path></clipPath><g clip-path="url(#clip0x6100012a8820)"><path d="M 46.9 408.0 L 282.9 408.0 L 282.9 658.0 L 46.9 658.0 Z M 46.9 408.0 " fill="url(#patternP5)"></path></g></g><image xlink:href="../../C8C3FE8A-13BF-40E3-ADB1-C4742D985422/assets/9DD26CD2E283697574D417BD9C994B36.png" width="89.00" height="27.00" transform="matrix(1.00, 0.00, -0.00, -1.00, 120.0, 567.0)"></image><g><clipPath id="clip0x6100012aada0"><path d="M 46.9 408.0 L 282.9 408.0 L 282.9 658.0 L 46.9 658.0 Z M 46.9 408.0 "></path></clipPath><g clip-path="url(#clip0x6100012aada0)"><text xml:space="preserve" font-family="AvenirNext-Medium,Avenir Next" font-size="30.0" fill="#3D3B38" transform="matrix(1.00, 0.00, -0.00, -1.00, 121.6, 543.8)">S</text><text xml:space="preserve" font-family="AvenirNext-Medium,Avenir Next" font-size="30.0" fill="#3D3B38" transform="matrix(1.00, 0.00, -0.00, -1.00, 138.2, 543.8)">T</text><text xml:space="preserve" font-family="AvenirNext-Medium,Avenir Next" font-size="30.0" fill="#3D3B38" transform="matrix(1.00, 0.00, -0.00, -1.00, 153.5, 543.8)">A</text><text xml:space="preserve" font-family="AvenirNext-Medium,Avenir Next" font-size="30.0" fill="#3D3B38" transform="matrix(1.00, 0.00, -0.00, -1.00, 173.0, 543.8)">T</text><text xml:space="preserve" font-family="AvenirNext-Medium,Avenir Next" font-size="30.0" fill="#3D3B38" transform="matrix(1.00, 0.00, -0.00, -1.00, 190.1, 543.8)">E</text><text xml:space="preserve" font-family="AvenirNext-Medium,Avenir Next" font-size="30.0" fill="#3D3B38" transform="matrix(1.00, 0.00, -0.00, -1.00, 208.1, 543.8)"> </text></g></g><image xlink:href="../../C8C3FE8A-13BF-40E3-ADB1-C4742D985422/assets/A6EABEE3A304B4ED57295B57D16F8561.png" width="166.00" height="27.00" transform="matrix(1.00, 0.00, -0.00, -1.00, 81.0, 526.0)"></image><g><clipPath id="clip0x6100012aabc0"><path d="M 46.9 408.0 L 282.9 408.0 L 282.9 658.0 L 46.9 658.0 Z M 46.9 408.0 "></path></clipPath><g clip-path="url(#clip0x6100012aabc0)"><text xml:space="preserve" font-family="AvenirNext-Medium,Avenir Next" font-size="30.0" fill="#3D3B38" transform="matrix(1.00, 0.00, -0.00, -1.00, 83.5, 502.8)">A</text><text xml:space="preserve" font-family="AvenirNext-Medium,Avenir Next" font-size="30.0" fill="#3D3B38" transform="matrix(1.00, 0.00, -0.00, -1.00, 104.2, 502.8)">C</text><text xml:space="preserve" font-family="AvenirNext-Medium,Avenir Next" font-size="30.0" fill="#3D3B38" transform="matrix(1.00, 0.00, -0.00, -1.00, 125.3, 502.8)">T</text><text xml:space="preserve" font-family="AvenirNext-Medium,Avenir Next" font-size="30.0" fill="#3D3B38" transform="matrix(1.00, 0.00, -0.00, -1.00, 142.4, 502.8)">I</text><text xml:space="preserve" font-family="AvenirNext-Medium,Avenir Next" font-size="30.0" fill="#3D3B38" transform="matrix(1.00, 0.00, -0.00, -1.00, 150.5, 502.8)">V</text><text xml:space="preserve" font-family="AvenirNext-Medium,Avenir Next" font-size="30.0" fill="#3D3B38" transform="matrix(1.00, 0.00, -0.00, -1.00, 168.9, 502.8)">A</text><text xml:space="preserve" font-family="AvenirNext-Medium,Avenir Next" font-size="30.0" fill="#3D3B38" transform="matrix(1.00, 0.00, -0.00, -1.00, 188.4, 502.8)">T</text><text xml:space="preserve" font-family="AvenirNext-Medium,Avenir Next" font-size="30.0" fill="#3D3B38" transform="matrix(1.00, 0.00, -0.00, -1.00, 205.5, 502.8)">E</text><text xml:space="preserve" font-family="AvenirNext-Medium,Avenir Next" font-size="30.0" fill="#3D3B38" transform="matrix(1.00, 0.00, -0.00, -1.00, 223.5, 502.8)">D</text></g></g><image xlink:href="../../C8C3FE8A-13BF-40E3-ADB1-C4742D985422/assets/6DE64EB050AB9C89594F442D1272B1E0.png" width="150.00" height="17.00" transform="matrix(0.84, -0.53, -0.54, -0.86, 223.3, 504.8)" opacity="0.72"></image><g opacity="0.90"><g><clipPath id="clip0x6100012a98a0"><path d="M 0.0 0.0 L 1024.0 0.0 L 1024.0 768.0 L 0.0 768.0 Z M 0.0 0.0 "></path></clipPath><g clip-path="url(#clip0x6100012a98a0)"><path d="M 0.0 0.0 L 132.4 0.0 L 133.9 0.0 " fill="none" stroke="#565450" stroke-width="3.00" transform="matrix(0.85, -0.53, -0.53, -0.85, 220.5, 498.5)"></path><path d="M 329.0 422.3 L 343.7 420.9 L 336.0 433.5 Z M 329.0 422.3 " fill="#565450"></path></g></g></g><image xlink:href="F11D06BC0D9BA7E36C0A9060990708B7.jpeg" width="300.00" height="168.00" transform="matrix(0.79, 0.00, -0.00, -0.79, 749.6, 543.9)"></image></g></svg>