<?xml version="1.0" encoding="UTF-8" standalone="no"?><svg xmlns="http://www.w3.org/2000/svg" xmlns:xlink="http://www.w3.org/1999/xlink" clip-rule="evenodd" stroke-miterlimit="10" viewBox="0 0 1024 768"><desc>SVG generated by Keynote</desc><defs></defs><g transform="matrix(1.00, 0.00, -0.00, -1.00, 0.0, 768.0)"><g><clipPath id="clip0x610000cb9860"><path d="M 0.0 768.0 L 1024.0 768.0 L 1024.0 0.0 L 0.0 0.0 Z M 0.0 768.0 "></path></clipPath><g clip-path="url(#clip0x610000cb9860)"><image xlink:href="../../7EA767DE-955E-4E20-9ADC-BFAA01F56EE6/assets/8F1988DB1AAF97C886A39057648AB34F.jpeg" width="2048.00" height="1536.00" transform="matrix(0.50, 0.00, -0.00, -0.50, 0.0, 768.0)"></image></g></g><g opacity="0.45"><g><clipPath id="clip0x6080010a3a80"><path d="M 30.0 48.0 L 994.0 48.0 L 994.0 741.0 L 30.0 741.0 Z M 30.0 48.0 "></path></clipPath><g clip-path="url(#clip0x6080010a3a80)"><image xlink:href="../../7EA767DE-955E-4E20-9ADC-BFAA01F56EE6/assets/2762798D5DAF222C11E7DC4E503ABF71.png" width="1374.00" height="986.00" transform="matrix(0.70, 0.00, -0.00, -0.70, 31.0, 740.0)"></image></g></g></g><image xlink:href="../../24FF3596-3AA8-4D6D-8B95-5047FBF55393/assets/8A603E5C7461FCFD389253D1C4A4C9FD.png" width="787.00" height="33.00" transform="matrix(1.00, 0.00, -0.00, -1.00, 74.0, 704.0)"></image><text xml:space="preserve" font-family="AvenirNext-Bold,Avenir Next" font-weight="bold" font-size="38.4" fill="#3D3B38" transform="matrix(1.00, 0.00, -0.00, -1.00, 75.0, 676.1)">C</text><text xml:space="preserve" font-family="AvenirNext-Bold,Avenir Next" font-weight="bold" font-size="38.4" fill="#3D3B38" transform="matrix(1.00, 0.00, -0.00, -1.00, 104.3, 676.1)">A</text><text xml:space="preserve" font-family="AvenirNext-Bold,Avenir Next" font-weight="bold" font-size="38.4" fill="#3D3B38" transform="matrix(1.00, 0.00, -0.00, -1.00, 135.4, 676.1)">N</text><text xml:space="preserve" font-family="AvenirNext-Bold,Avenir Next" font-weight="bold" font-size="38.4" fill="#3D3B38" transform="matrix(1.00, 0.00, -0.00, -1.00, 168.8, 676.1)">’</text><text xml:space="preserve" font-family="AvenirNext-Bold,Avenir Next" font-weight="bold" font-size="38.4" fill="#3D3B38" transform="matrix(1.00, 0.00, -0.00, -1.00, 183.4, 676.1)">T</text><text xml:space="preserve" font-family="AvenirNext-Bold,Avenir Next" font-weight="bold" font-size="38.4" fill="#3D3B38" transform="matrix(1.00, 0.00, -0.00, -1.00, 207.9, 676.1)"> </text><text xml:space="preserve" font-family="AvenirNext-Bold,Avenir Next" font-weight="bold" font-size="38.4" fill="#3D3B38" transform="matrix(1.00, 0.00, -0.00, -1.00, 220.1, 676.1)">W</text><text xml:space="preserve" font-family="AvenirNext-Bold,Avenir Next" font-weight="bold" font-size="38.4" fill="#3D3B38" transform="matrix(1.00, 0.00, -0.00, -1.00, 262.5, 676.1)">E</text><text xml:space="preserve" font-family="AvenirNext-Bold,Avenir Next" font-weight="bold" font-size="38.4" fill="#3D3B38" transform="matrix(1.00, 0.00, -0.00, -1.00, 288.9, 676.1)"> </text><text xml:space="preserve" font-family="AvenirNext-Bold,Avenir Next" font-weight="bold" font-size="38.4" fill="#3D3B38" transform="matrix(1.00, 0.00, -0.00, -1.00, 301.6, 676.1)">S</text><text xml:space="preserve" font-family="AvenirNext-Bold,Avenir Next" font-weight="bold" font-size="38.4" fill="#3D3B38" transform="matrix(1.00, 0.00, -0.00, -1.00, 326.8, 676.1)">T</text><text xml:space="preserve" font-family="AvenirNext-Bold,Avenir Next" font-weight="bold" font-size="38.4" fill="#3D3B38" transform="matrix(1.00, 0.00, -0.00, -1.00, 352.2, 676.1)">I</text><text xml:space="preserve" font-family="AvenirNext-Bold,Avenir Next" font-weight="bold" font-size="38.4" fill="#3D3B38" transform="matrix(1.00, 0.00, -0.00, -1.00, 367.5, 676.1)">L</text><text xml:space="preserve" font-family="AvenirNext-Bold,Avenir Next" font-weight="bold" font-size="38.4" fill="#3D3B38" transform="matrix(1.00, 0.00, -0.00, -1.00, 390.8, 676.1)">L</text><text xml:space="preserve" font-family="AvenirNext-Bold,Avenir Next" font-weight="bold" font-size="38.4" fill="#3D3B38" transform="matrix(1.00, 0.00, -0.00, -1.00, 413.1, 676.1)"> </text><text xml:space="preserve" font-family="AvenirNext-Bold,Avenir Next" font-weight="bold" font-size="38.4" fill="#3D3B38" transform="matrix(1.00, 0.00, -0.00, -1.00, 425.8, 676.1)">H</text><text xml:space="preserve" font-family="AvenirNext-Bold,Avenir Next" font-weight="bold" font-size="38.4" fill="#3D3B38" transform="matrix(1.00, 0.00, -0.00, -1.00, 458.2, 676.1)">A</text><text xml:space="preserve" font-family="AvenirNext-Bold,Avenir Next" font-weight="bold" font-size="38.4" fill="#3D3B38" transform="matrix(1.00, 0.00, -0.00, -1.00, 488.1, 676.1)">V</text><text xml:space="preserve" font-family="AvenirNext-Bold,Avenir Next" font-weight="bold" font-size="38.4" fill="#3D3B38" transform="matrix(1.00, 0.00, -0.00, -1.00, 517.4, 676.1)">E</text><text xml:space="preserve" font-family="AvenirNext-Bold,Avenir Next" font-weight="bold" font-size="38.4" fill="#3D3B38" transform="matrix(1.00, 0.00, -0.00, -1.00, 543.7, 676.1)"> </text><text xml:space="preserve" font-family="AvenirNext-Bold,Avenir Next" font-weight="bold" font-size="38.4" fill="#3D3B38" transform="matrix(1.00, 0.00, -0.00, -1.00, 556.4, 676.1)">N</text><text xml:space="preserve" font-family="AvenirNext-Bold,Avenir Next" font-weight="bold" font-size="38.4" fill="#3D3B38" transform="matrix(1.00, 0.00, -0.00, -1.00, 589.8, 676.1)">I</text><text xml:space="preserve" font-family="AvenirNext-Bold,Avenir Next" font-weight="bold" font-size="38.4" fill="#3D3B38" transform="matrix(1.00, 0.00, -0.00, -1.00, 605.1, 676.1)">C</text><text xml:space="preserve" font-family="AvenirNext-Bold,Avenir Next" font-weight="bold" font-size="38.4" fill="#3D3B38" transform="matrix(1.00, 0.00, -0.00, -1.00, 634.9, 676.1)">E</text><text xml:space="preserve" font-family="AvenirNext-Bold,Avenir Next" font-weight="bold" font-size="38.4" fill="#3D3B38" transform="matrix(1.00, 0.00, -0.00, -1.00, 661.3, 676.1)"> </text><text xml:space="preserve" font-family="AvenirNext-Bold,Avenir Next" font-weight="bold" font-size="38.4" fill="#3D3B38" transform="matrix(1.00, 0.00, -0.00, -1.00, 673.0, 676.1)">T</text><text xml:space="preserve" font-family="AvenirNext-Bold,Avenir Next" font-weight="bold" font-size="38.4" fill="#3D3B38" transform="matrix(1.00, 0.00, -0.00, -1.00, 698.4, 676.1)">H</text><text xml:space="preserve" font-family="AvenirNext-Bold,Avenir Next" font-weight="bold" font-size="38.4" fill="#3D3B38" transform="matrix(1.00, 0.00, -0.00, -1.00, 730.8, 676.1)">I</text><text xml:space="preserve" font-family="AvenirNext-Bold,Avenir Next" font-weight="bold" font-size="38.4" fill="#3D3B38" transform="matrix(1.00, 0.00, -0.00, -1.00, 746.1, 676.1)">N</text><text xml:space="preserve" font-family="AvenirNext-Bold,Avenir Next" font-weight="bold" font-size="38.4" fill="#3D3B38" transform="matrix(1.00, 0.00, -0.00, -1.00, 779.5, 676.1)">G</text><text xml:space="preserve" font-family="AvenirNext-Bold,Avenir Next" font-weight="bold" font-size="38.4" fill="#3D3B38" transform="matrix(1.00, 0.00, -0.00, -1.00, 812.1, 676.1)">S</text><text xml:space="preserve" font-family="AvenirNext-Bold,Avenir Next" font-weight="bold" font-size="38.4" fill="#3D3B38" transform="matrix(1.00, 0.00, -0.00, -1.00, 837.9, 676.1)">?</text><image xlink:href="A012C1C44594F0F2448CCA89B08BF26F.png" width="883.00" height="31.00" transform="matrix(1.00, 0.00, -0.00, -1.00, 40.0, 116.0)"></image><text xml:space="preserve" font-family="AvenirNext-Medium,Avenir Next" font-size="36.0" fill="#5D514B" transform="matrix(1.00, 0.00, -0.00, -1.00, 42.0, 89.7)">W</text><text xml:space="preserve" font-family="AvenirNext-Medium,Avenir Next" font-size="36.0" fill="#5D514B" transform="matrix(1.00, 0.00, -0.00, -1.00, 77.6, 89.7)">H</text><text xml:space="preserve" font-family="AvenirNext-Medium,Avenir Next" font-size="36.0" fill="#5D514B" transform="matrix(1.00, 0.00, -0.00, -1.00, 103.8, 89.7)">E</text><text xml:space="preserve" font-family="AvenirNext-Medium,Avenir Next" font-size="36.0" fill="#5D514B" transform="matrix(1.00, 0.00, -0.00, -1.00, 125.4, 89.7)">R</text><text xml:space="preserve" font-family="AvenirNext-Medium,Avenir Next" font-size="36.0" fill="#5D514B" transform="matrix(1.00, 0.00, -0.00, -1.00, 147.6, 89.7)">E</text><text xml:space="preserve" font-family="AvenirNext-Medium,Avenir Next" font-size="36.0" fill="#5D514B" transform="matrix(1.00, 0.00, -0.00, -1.00, 169.2, 89.7)"> </text><text xml:space="preserve" font-family="AvenirNext-Medium,Avenir Next" font-size="36.0" fill="#5D514B" transform="matrix(1.00, 0.00, -0.00, -1.00, 177.5, 89.7)">A</text><text xml:space="preserve" font-family="AvenirNext-Medium,Avenir Next" font-size="36.0" fill="#5D514B" transform="matrix(1.00, 0.00, -0.00, -1.00, 203.1, 89.7)">R</text><text xml:space="preserve" font-family="AvenirNext-Medium,Avenir Next" font-size="36.0" fill="#5D514B" transform="matrix(1.00, 0.00, -0.00, -1.00, 225.2, 89.7)">E</text><text xml:space="preserve" font-family="AvenirNext-Medium,Avenir Next" font-size="36.0" fill="#5D514B" transform="matrix(1.00, 0.00, -0.00, -1.00, 246.9, 89.7)"> </text><text xml:space="preserve" font-family="AvenirNext-Medium,Avenir Next" font-size="36.0" fill="#5D514B" transform="matrix(1.00, 0.00, -0.00, -1.00, 255.9, 89.7)">M</text><text xml:space="preserve" font-family="AvenirNext-Medium,Avenir Next" font-size="36.0" fill="#5D514B" transform="matrix(1.00, 0.00, -0.00, -1.00, 288.4, 89.7)">Y</text><text xml:space="preserve" font-family="AvenirNext-Medium,Avenir Next" font-size="36.0" fill="#5D514B" transform="matrix(1.00, 0.00, -0.00, -1.00, 310.0, 89.7)"> </text><text xml:space="preserve" font-family="AvenirNext-Medium,Avenir Next" font-size="36.0" fill="#5D514B" transform="matrix(1.00, 0.00, -0.00, -1.00, 319.0, 89.7)">B</text><text xml:space="preserve" font-family="AvenirNext-Medium,Avenir Next" font-size="36.0" fill="#5D514B" transform="matrix(1.00, 0.00, -0.00, -1.00, 342.1, 89.7)">A</text><text xml:space="preserve" font-family="AvenirNext-Medium,Avenir Next" font-size="36.0" fill="#5D514B" transform="matrix(1.00, 0.00, -0.00, -1.00, 365.5, 89.7)">T</text><text xml:space="preserve" font-family="AvenirNext-Medium,Avenir Next" font-size="36.0" fill="#5D514B" transform="matrix(1.00, 0.00, -0.00, -1.00, 386.0, 89.7)">T</text><text xml:space="preserve" font-family="AvenirNext-Medium,Avenir Next" font-size="36.0" fill="#5D514B" transform="matrix(1.00, 0.00, -0.00, -1.00, 406.5, 89.7)">L</text><text xml:space="preserve" font-family="AvenirNext-Medium,Avenir Next" font-size="36.0" fill="#5D514B" transform="matrix(1.00, 0.00, -0.00, -1.00, 424.9, 89.7)">E</text><text xml:space="preserve" font-family="AvenirNext-Medium,Avenir Next" font-size="36.0" fill="#5D514B" transform="matrix(1.00, 0.00, -0.00, -1.00, 446.5, 89.7)"> </text><text xml:space="preserve" font-family="AvenirNext-Medium,Avenir Next" font-size="36.0" fill="#5D514B" transform="matrix(1.00, 0.00, -0.00, -1.00, 455.5, 89.7)">P</text><text xml:space="preserve" font-family="AvenirNext-Medium,Avenir Next" font-size="36.0" fill="#5D514B" transform="matrix(1.00, 0.00, -0.00, -1.00, 477.0, 89.7)">R</text><text xml:space="preserve" font-family="AvenirNext-Medium,Avenir Next" font-size="36.0" fill="#5D514B" transform="matrix(1.00, 0.00, -0.00, -1.00, 499.1, 89.7)">O</text><text xml:space="preserve" font-family="AvenirNext-Medium,Avenir Next" font-size="36.0" fill="#5D514B" transform="matrix(1.00, 0.00, -0.00, -1.00, 529.2, 89.7)">V</text><text xml:space="preserve" font-family="AvenirNext-Medium,Avenir Next" font-size="36.0" fill="#5D514B" transform="matrix(1.00, 0.00, -0.00, -1.00, 552.3, 89.7)">E</text><text xml:space="preserve" font-family="AvenirNext-Medium,Avenir Next" font-size="36.0" fill="#5D514B" transform="matrix(1.00, 0.00, -0.00, -1.00, 573.9, 89.7)">N</text><text xml:space="preserve" font-family="AvenirNext-Medium,Avenir Next" font-size="36.0" fill="#5D514B" transform="matrix(1.00, 0.00, -0.00, -1.00, 601.7, 89.7)"> </text><text xml:space="preserve" font-family="AvenirNext-Medium,Avenir Next" font-size="36.0" fill="#5D514B" transform="matrix(1.00, 0.00, -0.00, -1.00, 610.7, 89.7)">C</text><text xml:space="preserve" font-family="AvenirNext-Medium,Avenir Next" font-size="36.0" fill="#5D514B" transform="matrix(1.00, 0.00, -0.00, -1.00, 635.8, 89.7)">O</text><text xml:space="preserve" font-family="AvenirNext-Medium,Avenir Next" font-size="36.0" fill="#5D514B" transform="matrix(1.00, 0.00, -0.00, -1.00, 666.3, 89.7)">N</text><text xml:space="preserve" font-family="AvenirNext-Medium,Avenir Next" font-size="36.0" fill="#5D514B" transform="matrix(1.00, 0.00, -0.00, -1.00, 694.1, 89.7)">V</text><text xml:space="preserve" font-family="AvenirNext-Medium,Avenir Next" font-size="36.0" fill="#5D514B" transform="matrix(1.00, 0.00, -0.00, -1.00, 717.3, 89.7)">E</text><text xml:space="preserve" font-family="AvenirNext-Medium,Avenir Next" font-size="36.0" fill="#5D514B" transform="matrix(1.00, 0.00, -0.00, -1.00, 738.9, 89.7)">N</text><text xml:space="preserve" font-family="AvenirNext-Medium,Avenir Next" font-size="36.0" fill="#5D514B" transform="matrix(1.00, 0.00, -0.00, -1.00, 766.7, 89.7)">T</text><text xml:space="preserve" font-family="AvenirNext-Medium,Avenir Next" font-size="36.0" fill="#5D514B" transform="matrix(1.00, 0.00, -0.00, -1.00, 787.2, 89.7)">I</text><text xml:space="preserve" font-family="AvenirNext-Medium,Avenir Next" font-size="36.0" fill="#5D514B" transform="matrix(1.00, 0.00, -0.00, -1.00, 796.9, 89.7)">O</text><text xml:space="preserve" font-family="AvenirNext-Medium,Avenir Next" font-size="36.0" fill="#5D514B" transform="matrix(1.00, 0.00, -0.00, -1.00, 827.5, 89.7)">N</text><text xml:space="preserve" font-family="AvenirNext-Medium,Avenir Next" font-size="36.0" fill="#5D514B" transform="matrix(1.00, 0.00, -0.00, -1.00, 855.3, 89.7)">S</text><text xml:space="preserve" font-family="AvenirNext-Medium,Avenir Next" font-size="36.0" fill="#5D514B" transform="matrix(1.00, 0.00, -0.00, -1.00, 875.8, 89.7)">!</text><text xml:space="preserve" font-family="AvenirNext-Medium,Avenir Next" font-size="36.0" fill="#5D514B" transform="matrix(1.00, 0.00, -0.00, -1.00, 887.8, 89.7)">!</text><text xml:space="preserve" font-family="AvenirNext-Medium,Avenir Next" font-size="36.0" fill="#5D514B" transform="matrix(1.00, 0.00, -0.00, -1.00, 899.8, 89.7)">!</text><text xml:space="preserve" font-family="AvenirNext-Medium,Avenir Next" font-size="36.0" fill="#5D514B" transform="matrix(1.00, 0.00, -0.00, -1.00, 911.8, 89.7)">!</text><image xlink:href="E28F86F200F3A54967904919406C10F9.jpeg" width="800.00" height="533.00" transform="matrix(0.90, 0.00, -0.00, -0.90, 150.3, 634.8)"></image><image xlink:href="F7B845F29D2CE9644A576C63FD630EC3.png" width="23.00" height="11.00" transform="matrix(1.00, 0.00, -0.00, -1.00, 571.0, 145.0)"></image><text xml:space="preserve" font-family="AvenirNext-MediumItalic,Avenir Next" font-style="italic" font-size="12.0" fill="#5D514B" transform="matrix(1.00, 0.00, -0.00, -1.00, 573.4, 138.3)">s</text><text xml:space="preserve" font-family="AvenirNext-MediumItalic,Avenir Next" font-style="italic" font-size="12.0" fill="#5D514B" transform="matrix(1.00, 0.00, -0.00, -1.00, 578.7, 138.3)">r</text><text xml:space="preserve" font-family="AvenirNext-MediumItalic,Avenir Next" font-style="italic" font-size="12.0" fill="#5D514B" transform="matrix(1.00, 0.00, -0.00, -1.00, 582.7, 138.3)">c</text><text xml:space="preserve" font-family="AvenirNext-MediumItalic,Avenir Next" font-style="italic" font-size="12.0" fill="#5D514B" transform="matrix(1.00, 0.00, -0.00, -1.00, 588.6, 138.3)">:</text><text xml:space="preserve" font-family="AvenirNext-MediumItalic,Avenir Next" font-style="italic" font-size="12.0" fill="#5D514B" transform="matrix(1.00, 0.00, -0.00, -1.00, 592.2, 138.3)"> </text><image xlink:href="9617FA02AB2EA6E037092AC0A637FD7E.png" width="282.00" height="17.00" transform="matrix(1.00, 0.00, -0.00, -1.00, 593.0, 148.0)"></image><text xml:space="preserve" font-family="AvenirNext-MediumItalic,Avenir Next" font-style="italic" font-size="12.0" fill="#5D514B" transform="matrix(1.00, 0.00, -0.00, -1.00, 595.2, 138.3)">h</text><text xml:space="preserve" font-family="AvenirNext-MediumItalic,Avenir Next" font-style="italic" font-size="12.0" fill="#5D514B" transform="matrix(1.00, 0.00, -0.00, -1.00, 602.2, 138.3)">t</text><text xml:space="preserve" font-family="AvenirNext-MediumItalic,Avenir Next" font-style="italic" font-size="12.0" fill="#5D514B" transform="matrix(1.00, 0.00, -0.00, -1.00, 605.9, 138.3)">t</text><text xml:space="preserve" font-family="AvenirNext-MediumItalic,Avenir Next" font-style="italic" font-size="12.0" fill="#5D514B" transform="matrix(1.00, 0.00, -0.00, -1.00, 609.8, 138.3)">p</text><text xml:space="preserve" font-family="AvenirNext-MediumItalic,Avenir Next" font-style="italic" font-size="12.0" fill="#5D514B" transform="matrix(1.00, 0.00, -0.00, -1.00, 617.3, 138.3)">:</text><text xml:space="preserve" font-family="AvenirNext-MediumItalic,Avenir Next" font-style="italic" font-size="12.0" fill="#5D514B" transform="matrix(1.00, 0.00, -0.00, -1.00, 620.9, 138.3)">/</text><text xml:space="preserve" font-family="AvenirNext-MediumItalic,Avenir Next" font-style="italic" font-size="12.0" fill="#5D514B" transform="matrix(1.00, 0.00, -0.00, -1.00, 625.5, 138.3)">/</text><text xml:space="preserve" font-family="AvenirNext-MediumItalic,Avenir Next" font-style="italic" font-size="12.0" fill="#5D514B" transform="matrix(1.00, 0.00, -0.00, -1.00, 630.0, 138.3)">e</text><text xml:space="preserve" font-family="AvenirNext-MediumItalic,Avenir Next" font-style="italic" font-size="12.0" fill="#5D514B" transform="matrix(1.00, 0.00, -0.00, -1.00, 636.8, 138.3)">n</text><text xml:space="preserve" font-family="AvenirNext-MediumItalic,Avenir Next" font-style="italic" font-size="12.0" fill="#5D514B" transform="matrix(1.00, 0.00, -0.00, -1.00, 643.8, 138.3)">.</text><text xml:space="preserve" font-family="AvenirNext-MediumItalic,Avenir Next" font-style="italic" font-size="12.0" fill="#5D514B" transform="matrix(1.00, 0.00, -0.00, -1.00, 646.9, 138.3)">w</text><text xml:space="preserve" font-family="AvenirNext-MediumItalic,Avenir Next" font-style="italic" font-size="12.0" fill="#5D514B" transform="matrix(1.00, 0.00, -0.00, -1.00, 656.0, 138.3)">i</text><text xml:space="preserve" font-family="AvenirNext-MediumItalic,Avenir Next" font-style="italic" font-size="12.0" fill="#5D514B" transform="matrix(1.00, 0.00, -0.00, -1.00, 659.1, 138.3)">k</text><text xml:space="preserve" font-family="AvenirNext-MediumItalic,Avenir Next" font-style="italic" font-size="12.0" fill="#5D514B" transform="matrix(1.00, 0.00, -0.00, -1.00, 665.2, 138.3)">i</text><text xml:space="preserve" font-family="AvenirNext-MediumItalic,Avenir Next" font-style="italic" font-size="12.0" fill="#5D514B" transform="matrix(1.00, 0.00, -0.00, -1.00, 668.3, 138.3)">p</text><text xml:space="preserve" font-family="AvenirNext-MediumItalic,Avenir Next" font-style="italic" font-size="12.0" fill="#5D514B" transform="matrix(1.00, 0.00, -0.00, -1.00, 675.9, 138.3)">e</text><text xml:space="preserve" font-family="AvenirNext-MediumItalic,Avenir Next" font-style="italic" font-size="12.0" fill="#5D514B" transform="matrix(1.00, 0.00, -0.00, -1.00, 682.6, 138.3)">d</text><text xml:space="preserve" font-family="AvenirNext-MediumItalic,Avenir Next" font-style="italic" font-size="12.0" fill="#5D514B" transform="matrix(1.00, 0.00, -0.00, -1.00, 690.2, 138.3)">i</text><text xml:space="preserve" font-family="AvenirNext-MediumItalic,Avenir Next" font-style="italic" font-size="12.0" fill="#5D514B" transform="matrix(1.00, 0.00, -0.00, -1.00, 693.3, 138.3)">a</text><text xml:space="preserve" font-family="AvenirNext-MediumItalic,Avenir Next" font-style="italic" font-size="12.0" fill="#5D514B" transform="matrix(1.00, 0.00, -0.00, -1.00, 699.7, 138.3)">.</text><text xml:space="preserve" font-family="AvenirNext-MediumItalic,Avenir Next" font-style="italic" font-size="12.0" fill="#5D514B" transform="matrix(1.00, 0.00, -0.00, -1.00, 702.9, 138.3)">o</text><text xml:space="preserve" font-family="AvenirNext-MediumItalic,Avenir Next" font-style="italic" font-size="12.0" fill="#5D514B" transform="matrix(1.00, 0.00, -0.00, -1.00, 710.1, 138.3)">r</text><text xml:space="preserve" font-family="AvenirNext-MediumItalic,Avenir Next" font-style="italic" font-size="12.0" fill="#5D514B" transform="matrix(1.00, 0.00, -0.00, -1.00, 714.0, 138.3)">g</text><text xml:space="preserve" font-family="AvenirNext-MediumItalic,Avenir Next" font-style="italic" font-size="12.0" fill="#5D514B" transform="matrix(1.00, 0.00, -0.00, -1.00, 721.6, 138.3)">/</text><text xml:space="preserve" font-family="AvenirNext-MediumItalic,Avenir Next" font-style="italic" font-size="12.0" fill="#5D514B" transform="matrix(1.00, 0.00, -0.00, -1.00, 726.1, 138.3)">w</text><text xml:space="preserve" font-family="AvenirNext-MediumItalic,Avenir Next" font-style="italic" font-size="12.0" fill="#5D514B" transform="matrix(1.00, 0.00, -0.00, -1.00, 735.2, 138.3)">i</text><text xml:space="preserve" font-family="AvenirNext-MediumItalic,Avenir Next" font-style="italic" font-size="12.0" fill="#5D514B" transform="matrix(1.00, 0.00, -0.00, -1.00, 738.4, 138.3)">k</text><text xml:space="preserve" font-family="AvenirNext-MediumItalic,Avenir Next" font-style="italic" font-size="12.0" fill="#5D514B" transform="matrix(1.00, 0.00, -0.00, -1.00, 744.4, 138.3)">i</text><text xml:space="preserve" font-family="AvenirNext-MediumItalic,Avenir Next" font-style="italic" font-size="12.0" fill="#5D514B" transform="matrix(1.00, 0.00, -0.00, -1.00, 747.5, 138.3)">/</text><text xml:space="preserve" font-family="AvenirNext-MediumItalic,Avenir Next" font-style="italic" font-size="12.0" fill="#5D514B" transform="matrix(1.00, 0.00, -0.00, -1.00, 752.1, 138.3)">F</text><text xml:space="preserve" font-family="AvenirNext-MediumItalic,Avenir Next" font-style="italic" font-size="12.0" fill="#5D514B" transform="matrix(1.00, 0.00, -0.00, -1.00, 758.5, 138.3)">i</text><text xml:space="preserve" font-family="AvenirNext-MediumItalic,Avenir Next" font-style="italic" font-size="12.0" fill="#5D514B" transform="matrix(1.00, 0.00, -0.00, -1.00, 761.6, 138.3)">l</text><text xml:space="preserve" font-family="AvenirNext-MediumItalic,Avenir Next" font-style="italic" font-size="12.0" fill="#5D514B" transform="matrix(1.00, 0.00, -0.00, -1.00, 764.7, 138.3)">e</text><text xml:space="preserve" font-family="AvenirNext-MediumItalic,Avenir Next" font-style="italic" font-size="12.0" fill="#5D514B" transform="matrix(1.00, 0.00, -0.00, -1.00, 771.5, 138.3)">:</text><text xml:space="preserve" font-family="AvenirNext-MediumItalic,Avenir Next" font-style="italic" font-size="12.0" fill="#5D514B" transform="matrix(1.00, 0.00, -0.00, -1.00, 775.1, 138.3)">L</text><text xml:space="preserve" font-family="AvenirNext-MediumItalic,Avenir Next" font-style="italic" font-size="12.0" fill="#5D514B" transform="matrix(1.00, 0.00, -0.00, -1.00, 781.2, 138.3)">a</text><text xml:space="preserve" font-family="AvenirNext-MediumItalic,Avenir Next" font-style="italic" font-size="12.0" fill="#5D514B" transform="matrix(1.00, 0.00, -0.00, -1.00, 787.7, 138.3)">r</text><text xml:space="preserve" font-family="AvenirNext-MediumItalic,Avenir Next" font-style="italic" font-size="12.0" fill="#5D514B" transform="matrix(1.00, 0.00, -0.00, -1.00, 791.6, 138.3)">g</text><text xml:space="preserve" font-family="AvenirNext-MediumItalic,Avenir Next" font-style="italic" font-size="12.0" fill="#5D514B" transform="matrix(1.00, 0.00, -0.00, -1.00, 799.2, 138.3)">e</text><text xml:space="preserve" font-family="AvenirNext-MediumItalic,Avenir Next" font-style="italic" font-size="12.0" fill="#5D514B" transform="matrix(1.00, 0.00, -0.00, -1.00, 806.0, 138.3)">_</text><text xml:space="preserve" font-family="AvenirNext-MediumItalic,Avenir Next" font-style="italic" font-size="12.0" fill="#5D514B" transform="matrix(1.00, 0.00, -0.00, -1.00, 812.0, 138.3)">b</text><text xml:space="preserve" font-family="AvenirNext-MediumItalic,Avenir Next" font-style="italic" font-size="12.0" fill="#5D514B" transform="matrix(1.00, 0.00, -0.00, -1.00, 819.6, 138.3)">o</text><text xml:space="preserve" font-family="AvenirNext-MediumItalic,Avenir Next" font-style="italic" font-size="12.0" fill="#5D514B" transform="matrix(1.00, 0.00, -0.00, -1.00, 826.8, 138.3)">n</text><text xml:space="preserve" font-family="AvenirNext-MediumItalic,Avenir Next" font-style="italic" font-size="12.0" fill="#5D514B" transform="matrix(1.00, 0.00, -0.00, -1.00, 833.7, 138.3)">ﬁ</text><text xml:space="preserve" font-family="AvenirNext-MediumItalic,Avenir Next" font-style="italic" font-size="12.0" fill="#5D514B" transform="matrix(1.00, 0.00, -0.00, -1.00, 840.6, 138.3)">r</text><text xml:space="preserve" font-family="AvenirNext-MediumItalic,Avenir Next" font-style="italic" font-size="12.0" fill="#5D514B" transform="matrix(1.00, 0.00, -0.00, -1.00, 844.6, 138.3)">e</text><text xml:space="preserve" font-family="AvenirNext-MediumItalic,Avenir Next" font-style="italic" font-size="12.0" fill="#5D514B" transform="matrix(1.00, 0.00, -0.00, -1.00, 851.4, 138.3)">.</text><text xml:space="preserve" font-family="AvenirNext-MediumItalic,Avenir Next" font-style="italic" font-size="12.0" fill="#5D514B" transform="matrix(1.00, 0.00, -0.00, -1.00, 854.5, 138.3)">j</text><text xml:space="preserve" font-family="AvenirNext-MediumItalic,Avenir Next" font-style="italic" font-size="12.0" fill="#5D514B" transform="matrix(1.00, 0.00, -0.00, -1.00, 857.6, 138.3)">p</text><text xml:space="preserve" font-family="AvenirNext-MediumItalic,Avenir Next" font-style="italic" font-size="12.0" fill="#5D514B" transform="matrix(1.00, 0.00, -0.00, -1.00, 865.2, 138.3)">g</text><g><clipPath id="clip0x618000cbb780"><path d="M 594.2 135.1 L 872.7 135.1 L 872.7 137.7 L 594.2 137.7 Z M 594.2 135.1 "></path></clipPath><g clip-path="url(#clip0x618000cbb780)"><path d="M 149.5 17.5 L 427.0 17.5 " fill="none" stroke="#5D514B" stroke-width="0.60" transform="matrix(1.00, 0.00, 0.00, -1.00, 445.7, 153.9)"></path></g></g><image xlink:href="D0CAA1A39E772815C902F7426F60A2E7.png" width="207.00" height="63.00" transform="matrix(1.00, 0.00, -0.00, -1.00, 351.1, 297.1)" opacity="0.30"></image><g><clipPath id="clip0x600000ebaa60"><path d="M 354.0 296.0 L 555.0 296.0 L 555.0 239.0 L 354.0 239.0 Z M 354.3 296.1 "></path></clipPath><g clip-path="url(#clip0x600000ebaa60)"><image xlink:href="305F3861F72BFD73C3C6B847AFAF9D5E.png" width="500.00" height="500.00" transform="matrix(0.50, 0.00, -0.00, -0.50, 354.0, 296.0)"></image></g></g><image xlink:href="3793D8DE474F71794D737C2BEF78AF9F.png" width="104.00" height="28.00" transform="matrix(1.00, 0.00, -0.00, -1.00, 404.0, 282.0)"></image><g><clipPath id="clip0x618000ca8e20"><path d="M 346.2 233.9 L 563.7 233.9 L 563.7 299.4 L 346.2 299.4 Z M 346.2 233.9 "></path></clipPath><g clip-path="url(#clip0x618000ca8e20)"><text xml:space="preserve" font-family="AvenirNext-Medium,Avenir Next" font-size="30.0" fill="#3D3B38" transform="matrix(1.00, 0.00, -0.00, -1.00, 403.4, 258.1)">M</text><text xml:space="preserve" font-family="AvenirNext-Medium,Avenir Next" font-size="30.0" fill="#3D3B38" transform="matrix(1.00, 0.00, -0.00, -1.00, 430.5, 258.1)">o</text><text xml:space="preserve" font-family="AvenirNext-Medium,Avenir Next" font-size="30.0" fill="#3D3B38" transform="matrix(1.00, 0.00, -0.00, -1.00, 448.8, 258.1)">d</text><text xml:space="preserve" font-family="AvenirNext-Medium,Avenir Next" font-size="30.0" fill="#3D3B38" transform="matrix(1.00, 0.00, -0.00, -1.00, 467.9, 258.1)">e</text><text xml:space="preserve" font-family="AvenirNext-Medium,Avenir Next" font-size="30.0" fill="#3D3B38" transform="matrix(1.00, 0.00, -0.00, -1.00, 485.1, 258.1)">l</text><text xml:space="preserve" font-family="AvenirNext-Medium,Avenir Next" font-size="30.0" fill="#3D3B38" transform="matrix(1.00, 0.00, -0.00, -1.00, 492.9, 258.1)">s</text></g></g><image xlink:href="6319023C825EC07C420D11A9A08BB2E3.png" width="207.00" height="63.00" transform="matrix(0.92, 0.38, 0.38, -0.92, 545.9, 214.3)" opacity="0.30"></image><g><clipPath id="clip0x618000cbf500"><path d="M 550.0 214.7 L 735.8 291.6 L 757.6 239.0 L 571.8 162.0 Z M 550.0 214.7 "></path></clipPath><g clip-path="url(#clip0x618000cbf500)"><image xlink:href="../../1BC3D76F-57AD-4AD4-8A46-756004B1428C/assets/305F3861F72BFD73C3C6B847AFAF9D5E.png" width="500.00" height="500.00" transform="matrix(0.46, 0.19, 0.19, -0.46, 550.0, 214.7)"></image></g></g><image xlink:href="DE596FBEB35E1D15600177E529EA0DD4.png" width="95.00" height="52.00" transform="matrix(1.00, 0.00, -0.00, -1.00, 606.0, 249.0)"></image><g><clipPath id="clip0x600000eacba0"><path d="M 541.3 214.6 L 742.3 297.8 L 767.4 237.3 L 566.3 154.1 Z M 541.3 214.6 "></path></clipPath><g clip-path="url(#clip0x600000eacba0)"><text xml:space="preserve" font-family="AvenirNext-Medium,Avenir Next" font-size="30.0" fill="#3D3B38" transform="matrix(0.92, 0.38, 0.38, -0.92, 613.9, 200.0)">R</text><text xml:space="preserve" font-family="AvenirNext-Medium,Avenir Next" font-size="30.0" fill="#3D3B38" transform="matrix(0.92, 0.38, 0.38, -0.92, 630.6, 206.9)">o</text><text xml:space="preserve" font-family="AvenirNext-Medium,Avenir Next" font-size="30.0" fill="#3D3B38" transform="matrix(0.92, 0.38, 0.38, -0.92, 647.5, 213.9)">u</text><text xml:space="preserve" font-family="AvenirNext-Medium,Avenir Next" font-size="30.0" fill="#3D3B38" transform="matrix(0.92, 0.38, 0.38, -0.92, 663.7, 220.6)">t</text><text xml:space="preserve" font-family="AvenirNext-Medium,Avenir Next" font-size="30.0" fill="#3D3B38" transform="matrix(0.92, 0.38, 0.38, -0.92, 672.8, 224.4)">e</text><text xml:space="preserve" font-family="AvenirNext-Medium,Avenir Next" font-size="30.0" fill="#3D3B38" transform="matrix(0.92, 0.38, 0.38, -0.92, 688.7, 230.9)">s</text></g></g><image xlink:href="../../1BC3D76F-57AD-4AD4-8A46-756004B1428C/assets/6319023C825EC07C420D11A9A08BB2E3.png" width="207.00" height="63.00" transform="matrix(0.74, -0.67, -0.67, -0.74, 713.7, 332.1)" opacity="0.30"></image><g><clipPath id="clip0x618000ca7c20"><path d="M 714.2 329.8 L 863.6 195.3 L 825.4 152.9 L 676.0 287.5 Z M 714.2 329.8 "></path></clipPath><g clip-path="url(#clip0x618000ca7c20)"><image xlink:href="../../1BC3D76F-57AD-4AD4-8A46-756004B1428C/assets/305F3861F72BFD73C3C6B847AFAF9D5E.png" width="500.00" height="500.00" transform="matrix(0.37, -0.33, -0.33, -0.37, 714.2, 329.8)"></image></g></g><image xlink:href="239AAE084E1306476E091B0FCEA2D4E0.png" width="120.00" height="115.00" transform="matrix(1.00, 0.00, -0.00, -1.00, 710.0, 297.0)"></image><g><clipPath id="clip0x618000aa7c80"><path d="M 710.3 337.7 L 872.0 192.1 L 828.2 143.4 L 666.5 289.0 Z M 710.3 337.7 "></path></clipPath><g clip-path="url(#clip0x618000aa7c80)"><text xml:space="preserve" font-family="AvenirNext-Medium,Avenir Next" font-size="30.0" fill="#3D3B38" transform="matrix(0.74, -0.67, -0.67, -0.74, 706.9, 285.2)">C</text><text xml:space="preserve" font-family="AvenirNext-Medium,Avenir Next" font-size="30.0" fill="#3D3B38" transform="matrix(0.74, -0.67, -0.67, -0.74, 722.4, 271.2)">o</text><text xml:space="preserve" font-family="AvenirNext-Medium,Avenir Next" font-size="30.0" fill="#3D3B38" transform="matrix(0.74, -0.67, -0.67, -0.74, 736.0, 259.0)">n</text><text xml:space="preserve" font-family="AvenirNext-Medium,Avenir Next" font-size="30.0" fill="#3D3B38" transform="matrix(0.74, -0.67, -0.67, -0.74, 749.0, 247.3)">t</text><text xml:space="preserve" font-family="AvenirNext-Medium,Avenir Next" font-size="30.0" fill="#3D3B38" transform="matrix(0.74, -0.67, -0.67, -0.74, 756.3, 240.7)">r</text><text xml:space="preserve" font-family="AvenirNext-Medium,Avenir Next" font-size="30.0" fill="#3D3B38" transform="matrix(0.74, -0.67, -0.67, -0.74, 764.0, 233.8)">o</text><text xml:space="preserve" font-family="AvenirNext-Medium,Avenir Next" font-size="30.0" fill="#3D3B38" transform="matrix(0.74, -0.67, -0.67, -0.74, 777.6, 221.5)">l</text><text xml:space="preserve" font-family="AvenirNext-Medium,Avenir Next" font-size="30.0" fill="#3D3B38" transform="matrix(0.74, -0.67, -0.67, -0.74, 783.4, 216.3)">l</text><text xml:space="preserve" font-family="AvenirNext-Medium,Avenir Next" font-size="30.0" fill="#3D3B38" transform="matrix(0.74, -0.67, -0.67, -0.74, 789.2, 211.1)">e</text><text xml:space="preserve" font-family="AvenirNext-Medium,Avenir Next" font-size="30.0" fill="#3D3B38" transform="matrix(0.74, -0.67, -0.67, -0.74, 802.0, 199.6)">r</text><text xml:space="preserve" font-family="AvenirNext-Medium,Avenir Next" font-size="30.0" fill="#3D3B38" transform="matrix(0.74, -0.67, -0.67, -0.74, 810.0, 192.3)">s</text></g></g><image xlink:href="../../1BC3D76F-57AD-4AD4-8A46-756004B1428C/assets/6319023C825EC07C420D11A9A08BB2E3.png" width="207.00" height="63.00" transform="matrix(0.97, -0.26, -0.26, -0.97, 396.1, 261.6)" opacity="0.30"></image><g><clipPath id="clip0x608000eb41c0"><path d="M 398.4 260.0 L 592.7 208.0 L 577.9 152.9 L 383.7 204.9 Z M 398.4 260.0 "></path></clipPath><g clip-path="url(#clip0x608000eb41c0)"><image xlink:href="../../1BC3D76F-57AD-4AD4-8A46-756004B1428C/assets/305F3861F72BFD73C3C6B847AFAF9D5E.png" width="500.00" height="500.00" transform="matrix(0.48, -0.13, -0.13, -0.48, 398.4, 260.0)"></image></g></g><image xlink:href="B68D570740CA3D1634D1AB7690D245CE.png" width="128.00" height="63.00" transform="matrix(1.00, 0.00, -0.00, -1.00, 426.0, 236.0)"></image><g><clipPath id="clip0x618000cad860"><path d="M 391.4 265.2 L 601.6 209.0 L 584.7 145.7 L 374.5 201.9 Z M 391.4 265.2 "></path></clipPath><g clip-path="url(#clip0x618000cad860)"><text xml:space="preserve" font-family="AvenirNext-Medium,Avenir Next" font-size="30.0" fill="#3D3B38" transform="matrix(0.97, -0.26, -0.26, -0.97, 423.0, 214.0)">T</text><text xml:space="preserve" font-family="AvenirNext-Medium,Avenir Next" font-size="30.0" fill="#3D3B38" transform="matrix(0.97, -0.26, -0.26, -0.97, 436.8, 210.3)">e</text><text xml:space="preserve" font-family="AvenirNext-Medium,Avenir Next" font-size="30.0" fill="#3D3B38" transform="matrix(0.97, -0.26, -0.26, -0.97, 453.4, 205.9)">s</text><text xml:space="preserve" font-family="AvenirNext-Medium,Avenir Next" font-size="30.0" fill="#3D3B38" transform="matrix(0.97, -0.26, -0.26, -0.97, 466.2, 202.5)">t</text><text xml:space="preserve" font-family="AvenirNext-Medium,Avenir Next" font-size="30.0" fill="#3D3B38" transform="matrix(0.97, -0.26, -0.26, -0.97, 475.8, 199.9)">i</text><text xml:space="preserve" font-family="AvenirNext-Medium,Avenir Next" font-size="30.0" fill="#3D3B38" transform="matrix(0.97, -0.26, -0.26, -0.97, 483.3, 197.9)">b</text><text xml:space="preserve" font-family="AvenirNext-Medium,Avenir Next" font-size="30.0" fill="#3D3B38" transform="matrix(0.97, -0.26, -0.26, -0.97, 501.7, 193.0)">i</text><text xml:space="preserve" font-family="AvenirNext-Medium,Avenir Next" font-size="30.0" fill="#3D3B38" transform="matrix(0.97, -0.26, -0.26, -0.97, 509.2, 191.0)">l</text><text xml:space="preserve" font-family="AvenirNext-Medium,Avenir Next" font-size="30.0" fill="#3D3B38" transform="matrix(0.97, -0.26, -0.26, -0.97, 516.7, 188.9)">i</text><text xml:space="preserve" font-family="AvenirNext-Medium,Avenir Next" font-size="30.0" fill="#3D3B38" transform="matrix(0.97, -0.26, -0.26, -0.97, 524.2, 186.9)">t</text><text xml:space="preserve" font-family="AvenirNext-Medium,Avenir Next" font-size="30.0" fill="#3D3B38" transform="matrix(0.97, -0.26, -0.26, -0.97, 533.8, 184.4)">y</text></g></g><image xlink:href="../../1BC3D76F-57AD-4AD4-8A46-756004B1428C/assets/6319023C825EC07C420D11A9A08BB2E3.png" width="207.00" height="63.00" transform="matrix(0.94, -0.33, -0.33, -0.94, 185.5, 329.9)" opacity="0.30"></image><g><clipPath id="clip0x608000cb51e0"><path d="M 187.6 328.1 L 377.1 260.9 L 358.0 207.2 L 168.5 274.4 Z M 187.6 328.1 "></path></clipPath><g clip-path="url(#clip0x608000cb51e0)"><image xlink:href="../../1BC3D76F-57AD-4AD4-8A46-756004B1428C/assets/305F3861F72BFD73C3C6B847AFAF9D5E.png" width="500.00" height="500.00" transform="matrix(0.47, -0.17, -0.17, -0.47, 187.6, 328.1)"></image></g></g><image xlink:href="F61EA2A15FD54F61FA5E55263C1AF079.png" width="98.00" height="56.00" transform="matrix(1.00, 0.00, -0.00, -1.00, 223.0, 296.0)"></image><g><clipPath id="clip0x6000010bad00"><path d="M 181.0 333.9 L 386.1 261.2 L 364.2 199.4 L 159.1 272.1 Z M 181.0 333.9 "></path></clipPath><g clip-path="url(#clip0x6000010bad00)"><text xml:space="preserve" font-family="AvenirNext-Medium,Avenir Next" font-size="30.0" fill="#3D3B38" transform="matrix(0.94, -0.33, -0.33, -0.94, 223.5, 275.0)">P</text><text xml:space="preserve" font-family="AvenirNext-Medium,Avenir Next" font-size="30.0" fill="#3D3B38" transform="matrix(0.94, -0.33, -0.33, -0.94, 238.7, 269.6)">a</text><text xml:space="preserve" font-family="AvenirNext-Medium,Avenir Next" font-size="30.0" fill="#3D3B38" transform="matrix(0.94, -0.33, -0.33, -0.94, 254.0, 264.2)">r</text><text xml:space="preserve" font-family="AvenirNext-Medium,Avenir Next" font-size="30.0" fill="#3D3B38" transform="matrix(0.94, -0.33, -0.33, -0.94, 263.9, 260.7)">t</text><text xml:space="preserve" font-family="AvenirNext-Medium,Avenir Next" font-size="30.0" fill="#3D3B38" transform="matrix(0.94, -0.33, -0.33, -0.94, 273.2, 257.4)">i</text><text xml:space="preserve" font-family="AvenirNext-Medium,Avenir Next" font-size="30.0" fill="#3D3B38" transform="matrix(0.94, -0.33, -0.33, -0.94, 280.6, 254.8)">a</text><text xml:space="preserve" font-family="AvenirNext-Medium,Avenir Next" font-size="30.0" fill="#3D3B38" transform="matrix(0.94, -0.33, -0.33, -0.94, 295.9, 249.4)">l</text><text xml:space="preserve" font-family="AvenirNext-Medium,Avenir Next" font-size="30.0" fill="#3D3B38" transform="matrix(0.94, -0.33, -0.33, -0.94, 303.2, 246.7)">s</text></g></g><image xlink:href="../../1BC3D76F-57AD-4AD4-8A46-756004B1428C/assets/6319023C825EC07C420D11A9A08BB2E3.png" width="207.00" height="63.00" transform="matrix(0.97, 0.26, 0.26, -0.97, 172.4, 201.6)" opacity="0.30"></image><g><clipPath id="clip0x6000010a0ea0"><path d="M 176.3 201.5 L 370.6 253.2 L 385.3 198.2 L 191.0 146.4 Z M 176.3 201.5 "></path></clipPath><g clip-path="url(#clip0x6000010a0ea0)"><image xlink:href="../../1BC3D76F-57AD-4AD4-8A46-756004B1428C/assets/305F3861F72BFD73C3C6B847AFAF9D5E.png" width="500.00" height="500.00" transform="matrix(0.48, 0.13, 0.13, -0.48, 176.3, 201.5)"></image></g></g><image xlink:href="A4350761F37466EC2FA748421F6BA63D.png" width="109.00" height="45.00" transform="matrix(1.00, 0.00, -0.00, -1.00, 226.0, 219.0)"></image><g><clipPath id="clip0x610000cbc2c0"><path d="M 167.6 202.5 L 377.9 258.5 L 394.7 195.3 L 184.5 139.3 Z M 167.6 202.5 "></path></clipPath><g clip-path="url(#clip0x610000cbc2c0)"><text xml:space="preserve" font-family="AvenirNext-Medium,Avenir Next" font-size="30.0" fill="#3D3B38" transform="matrix(0.97, 0.26, 0.26, -0.97, 231.4, 176.8)">H</text><text xml:space="preserve" font-family="AvenirNext-Medium,Avenir Next" font-size="30.0" fill="#3D3B38" transform="matrix(0.97, 0.26, 0.26, -0.97, 252.6, 182.4)">e</text><text xml:space="preserve" font-family="AvenirNext-Medium,Avenir Next" font-size="30.0" fill="#3D3B38" transform="matrix(0.97, 0.26, 0.26, -0.97, 269.2, 186.9)">l</text><text xml:space="preserve" font-family="AvenirNext-Medium,Avenir Next" font-size="30.0" fill="#3D3B38" transform="matrix(0.97, 0.26, 0.26, -0.97, 276.7, 188.9)">p</text><text xml:space="preserve" font-family="AvenirNext-Medium,Avenir Next" font-size="30.0" fill="#3D3B38" transform="matrix(0.97, 0.26, 0.26, -0.97, 295.1, 193.8)">e</text><text xml:space="preserve" font-family="AvenirNext-Medium,Avenir Next" font-size="30.0" fill="#3D3B38" transform="matrix(0.97, 0.26, 0.26, -0.97, 311.7, 198.2)">r</text><text xml:space="preserve" font-family="AvenirNext-Medium,Avenir Next" font-size="30.0" fill="#3D3B38" transform="matrix(0.97, 0.26, 0.26, -0.97, 322.2, 201.0)">s</text></g></g></g></svg>